<mxfile host="app.diagrams.net" modified="2023-04-24T21:16:59.432Z" agent="Mozilla/5.0 (Windows NT 10.0; Win64; x64) AppleWebKit/537.36 (KHTML, like Gecko) Chrome/112.0.0.0 Safari/537.36" etag="s8C38C_kV7BBnIBPZWGK" version="21.1.8" type="device">
  <diagram name="many-models-machine-learning-azure-spark" id="azure-virtual-desktop-logical-architecture">
    <mxGraphModel dx="1877" dy="491" grid="1" gridSize="10" guides="1" tooltips="1" connect="1" arrows="1" fold="1" page="1" pageScale="1" pageWidth="827" pageHeight="1169" math="0" shadow="0">
      <root>
        <mxCell id="0" />
        <mxCell id="1" parent="0" />
        <UserObject label="" tags="Tło" id="40">
          <mxCell style="vsdxID=1056;fillColor=none;gradientColor=none;strokeColor=none;spacingTop=-3;spacingBottom=-3;spacingLeft=-3;spacingRight=-3;points=[];labelBackgroundColor=none;rounded=0;html=1;whiteSpace=wrap;" parent="1" vertex="1">
            <mxGeometry x="-114" y="202.5" width="50" height="41" as="geometry" />
          </mxCell>
        </UserObject>
        <mxCell id="41" style="vsdxID=1057;fillColor=#005ba1;gradientColor=none;shape=stencil(xVTRcoIwEPyaPHJzyYHCs7X/kdEAmVLCBKz694amVILKCx36duxu7tgcLKNdW8pGMYFtZ82HOutjVzJ6Y0LoulRWd65itGe0y41VhTWn+uifG9kr++rTfPUdLv5ctoVN0p8SePUI58C/gXevr3Q90icx4GZWL+3BkfZHLwDJy+11QOLMI0NLAdtJS4Rk0ETyotvImk522tSeR89V0hYqcvOivJJFQLVnpZoRPOMoRhBZMB4hpjlHiQgdEWDoiCb9/tQKvrYigJInk1/YGLT3xaRpYAODXo7maxkJJ7tvlGeLnDxcDMfVlvLkD8Nle/l9+Yf7WcHOdDgnyNJFdmYi6H/WMwk0V9zTM9dV5cN3zE/T1kE+qWl/Aw==);strokeColor=none;spacingTop=-3;spacingBottom=-3;spacingLeft=-3;spacingRight=-3;points=[];labelBackgroundColor=none;rounded=0;html=1;whiteSpace=wrap;" parent="40" vertex="1">
          <mxGeometry width="50" height="41" as="geometry" />
        </mxCell>
        <mxCell id="42" style="vsdxID=1058;fillColor=#FFFFFF;gradientColor=none;shape=stencil(vVNLDsIgED0NyxIETXVd9R5EaUtEaAa09fZCIFZFY1KTJizm84Y3b2AQq2zLO4EosQ7MSfTy6FrEtohSqVsB0nkLsR1iVW1ANGAu+hj9jgdksM7mGm4YYh0JFZTcolducHD92Ucwh4PPQgIv8WIV8ZAKKMHlOoYyTIIsSOIYCj5IW4Bx3EmjX/gVh0YUnq2oFW9eUrYXosvCqT8l9ZOYzQqvP5NPlvPoPpvQDHreycf2JuvJRzTb62Q/48+n+TabGaT82BpvjPtWS6Xiuj7n3/fTh+Jus90d);strokeColor=none;spacingTop=-3;spacingBottom=-3;spacingLeft=-3;spacingRight=-3;points=[];labelBackgroundColor=none;rounded=0;html=1;whiteSpace=wrap;" parent="40" vertex="1">
          <mxGeometry x="4" y="2" width="11" height="2" as="geometry" />
        </mxCell>
        <mxCell id="43" style="vsdxID=1059;fillColor=#1ac3f2;gradientColor=none;shape=stencil(vVPbDoIwDP2aPc6MTaM+I/7HIgMW50bKFPh7h8NwWYiJJLz1crr2tDuIxVXBS4EoqSyYu6hlagvELohSqQsB0joLsQSxODMgcjBPnXq/5B2ysx7m1b3Q+DrSVVDSeu902B2jT+TqwRxuLgs9ONrv6NkXQBuEQtAXQ/ouDeaNrDAYy600ejKB4pAL7PrhTPF8kqpqIcog3E+opB7RGQjMm68gRJaWtAGhefNhvP8JhUva7D7h51h7naX1bEDmh3acMaguk0p50Y7zc5W6kFc4S94=);strokeColor=none;spacingTop=-3;spacingBottom=-3;spacingLeft=-3;spacingRight=-3;points=[];labelBackgroundColor=none;rounded=0;html=1;whiteSpace=wrap;" parent="40" vertex="1">
          <mxGeometry x="4" y="2" width="2" height="2" as="geometry" />
        </mxCell>
        <mxCell id="44" style="vsdxID=1060;fillColor=#32d4f5;gradientColor=#198ab3;shape=stencil(xZTbcoMgEIafhkt3OHq4TtP3YBpUplQctE3y9tGgVTTmItOxd8vuDz8fOyxih6aUtUIUN62zn+qsT22J2BuiVFelcrrtIsSOiB1y61Th7Hd18uta9so++rI//QkXvy9LIBb9LoqvPoPvq3cvNrqaiQXeVkr30VXcoKRAqNe665jJhswg4SmwhTNkySCJ5EU3kbOtbLWt5nbYSFeoqLOLciOLoNSclapX6YcoHAMngTshINgzIsFDIgYiAGIpJHF4JAVO/5SIbBPR5XNO7htAo34CojwgCttNBMS79Se0zmJIn/bmAUrYnPXrYLwXy/qPjeav0vxefvU+O+Aszdn4k16l2ZpB/9KaQNwF0+DMtTF+7s7ry0HbpfyQZscb);strokeColor=none;spacingTop=-3;spacingBottom=-3;spacingLeft=-3;spacingRight=-3;points=[];labelBackgroundColor=none;rounded=0;html=1;whiteSpace=wrap;" parent="40" vertex="1">
          <mxGeometry y="4" width="50" height="36" as="geometry" />
        </mxCell>
        <mxCell id="45" style="vsdxID=1061;fillColor=#FFFFFF;gradientColor=none;shape=stencil(vVVdd4IwDP01PJrTJrSlz879D46icsbEU3G6f7+ylo8Auif3VpKb5uaSNAmtL8f8XCQoLo2rP4pbuWuOCb0liOXpWLiy8aeENgmt97UrDq6+nnbh+5y3yPb0WX+1N9xDnJGgqI1C8R0sAoT5NbwHfO623ukinkCqAHcRLyGzwRIh2kKWLl8p7qv8Xl5Wrm7ypqxP0R18Ve4OxcqnW+2r/MBcl1tRnGfmSHB7daEiOc8vZwQwggzYDoQzEPUgGTHUYawe567K00hMAalihSsLEp+JSYaLiSCIiTm7Usv+D7xCTE4w7ekMBFNkBAk0coIeIl9HkCueEgj9IP1iACpQXFBrQKePJUAw6bThtWISoOll6u60YPF1GkwZyilB1JxgBuo/+U0nEi0YwydyzCDOH/le5xM5BsUBJF9ch6IeFeVf/ONSCFY7+UuzZ2yHADmN6LkOGOwxOKE6YDruGZinr4HKpsMmeadZ3c9WV40G3T2/L582lQLSg/SLAX67EH8dumZ9NGt6Nmu8lZ/sq38Q4O9t6Q/Dqt2XVRU29dg/Xc3eFNY6bX4A);strokeColor=none;spacingTop=-3;spacingBottom=-3;spacingLeft=-3;spacingRight=-3;points=[];labelBackgroundColor=none;rounded=0;html=1;whiteSpace=wrap;" parent="40" vertex="1">
          <mxGeometry x="18" y="10" width="14" height="23" as="geometry" />
        </mxCell>
        <UserObject label="" tags="Tło" id="46">
          <mxCell style="vsdxID=1062;fillColor=none;gradientColor=none;strokeColor=none;spacingTop=-3;spacingBottom=-3;spacingLeft=-3;spacingRight=-3;points=[];labelBackgroundColor=none;rounded=0;html=1;whiteSpace=wrap;" parent="1" vertex="1">
            <mxGeometry x="-114" y="294.5" width="50" height="58" as="geometry" />
          </mxCell>
        </UserObject>
        <mxCell id="47" style="vsdxID=1063;fillColor=#0078d4;gradientColor=none;shape=stencil(lZLbDoMgDIafhlvSUTxw7bb3MBEnmROD7vT2g5Bt4iJhdy39/uZvKcFq6upREgbTbPRZ3lUzdwT3hDE1dNKo2UYEDwSrVht5Mvo6ND4fa0e66KJvrsPD6zJwEgZPn/rs6MleDQsyBBmngqfCBadFuQ2vPOwg4uJd/LTOKOTpOIvjsW2EexNAizyAc0FLTG5t9Si2aUEZD+cECtkfvH0pI/3XbihGrP/OagWx309Yjg2+J9mqvvcXvayvT9g++fPHwws=);strokeColor=none;spacingTop=-3;spacingBottom=-3;spacingLeft=-3;spacingRight=-3;points=[];labelBackgroundColor=none;rounded=0;html=1;whiteSpace=wrap;" parent="46" vertex="1">
          <mxGeometry width="50" height="58" as="geometry" />
        </mxCell>
        <mxCell id="48" style="vsdxID=1064;fillColor=#005ba1;gradientColor=#0078d4;shape=stencil(rZLdCsIwDIWfJrelS+Z013O+x2CdLdZ1dPXv7W0JohOEIrs7J/kS0iZAzay7SQHKOXh3UjfTBw20B0QzauVNiAqoBWoG59XRu8vYs5+6RCZ1dtfU4c51G5lKUD7Ysjswac34F7kEdyTK6jdcCywXfCHzh6BCIK1F11Jsq/xRXsnMd67z0VG8NzkYa/kQPvPfm48hvhpqnw==);strokeColor=none;spacingTop=-3;spacingBottom=-3;spacingLeft=-3;spacingRight=-3;points=[];labelBackgroundColor=none;rounded=0;html=1;whiteSpace=wrap;" parent="46" vertex="1">
          <mxGeometry width="50" height="17" as="geometry" />
        </mxCell>
        <mxCell id="49" style="vsdxID=1065;fillColor=#50e6ff;gradientColor=none;shape=stencil(vVXBkoIwDP0ajmTapi3t2XX/g1FUZllxCq7491u2FA0qXlZvJclrX5JHkuCi2eWHIhGsaV39VZzKdbtL8CMRotzvCle2/pTgMsHFpnbF1tXH/Tp8H/I+sj991z/9DV3AGQnS9ijBzsGiGVj9Z/kMgNytvNcNAA2Gh3g3ABRIGSzxTg6KXKkMmMHSpXlXNqmr27wt633ws+CrcrctUv9cuqnyLXE1p6I43JjvElQSmKAMJQI3hKJkwCThiB5mX8exKvdXVeeM0ZoD2sfRRgPTJH7u6gwyQzPz7VBzDbVy2lClSLUEB0EJSA6Wv6ujOsrpQlBQfgL4lF4mX0ePVlwgCKp3qUDzx/mgBWtoRr5Hw08Xb9UGGFKR+Cyzf02KP06K6tMiqBmBcgRDh0gU+H09+2RpwXyy8xI1eDNzaLn8HOOTOeZR75KAf92Y6es6uwasji7MXX6BDCo+8xEj448nxqgsRokxKv6MHY5ROhYUxyg2X9GnU3xmM7ynpM8Wkz9c1tqmrKqwFa/90zXoTWGF4vIX);strokeColor=none;spacingTop=-3;spacingBottom=-3;spacingLeft=-3;spacingRight=-3;points=[];labelBackgroundColor=none;rounded=0;html=1;whiteSpace=wrap;" parent="46" vertex="1">
          <mxGeometry x="7" y="7" width="34" height="43" as="geometry" />
        </mxCell>
        <mxCell id="50" style="vsdxID=1066;fillColor=#198ab3;gradientColor=#50e6ff;shape=stencil(vVPRbsMgDPwaHoMMNF3ynHX/gRqSoLEQOWzt/r6kpluzacuiSXkz5ztjbI6pauz0YJiEMaB/Nidbh46pRyal7TuDNsSIqQNTVePRtOhf+5rOg56YU/Ti36YKZ9IVwEU5qSS8E5LvuNxfkScSaDzGLCaBKHkhSIBJIff8IdW4kQBmNQvBIU+MTJ/tmKEPOljfUz6xncbWZPG+rHG6TaUoNZ6MGe5gWNthMWvwt2evbhH+0KKz/bqpz9ckdhzETPDPASj1wflO2WRFi3/ohydvsJ6Facfg006NdY7ceJ//ar8IkXXV4QI=);strokeColor=none;spacingTop=-3;spacingBottom=-3;spacingLeft=-3;spacingRight=-3;points=[];labelBackgroundColor=none;rounded=0;html=1;whiteSpace=wrap;" parent="46" vertex="1">
          <mxGeometry x="11" y="17" width="30" height="22" as="geometry" />
        </mxCell>
        <UserObject label="" tags="Tło" id="51">
          <mxCell style="vsdxID=1067;fillColor=none;gradientColor=none;strokeColor=none;spacingTop=-3;spacingBottom=-3;spacingLeft=-3;spacingRight=-3;points=[];labelBackgroundColor=none;rounded=0;html=1;whiteSpace=wrap;" parent="1" vertex="1">
            <mxGeometry x="-114" y="384.5" width="50" height="67" as="geometry" />
          </mxCell>
        </UserObject>
        <mxCell id="52" style="vsdxID=1068;fillColor=#005ba1;gradientColor=#005ba1;shape=stencil(fZPRkoIwDEW/pq+ZNhFpn133PxxF6SwLTsUV/16wFUiW4a1J720Pl1TR7lYeroVCfWtD81M8/KktFX0pRF+XRfBtv1K0V7Q7N6G4hOZen2J9PQzKYfXb/A0ndNGX6cGC+hlLk4F9N76j+HgPUW3iPiKQSw4jLLrD2PkcmUoLLlk64gJWphsrX8/wOJ3dAK7RaU7mEGzG0RA5m3Ngtxxu44A4n9ErhDJArpWEeQ5bI/JLjpFxbIyQBEYkOGloORoOOckXEpeMk9h8fmDuOOL8M/DfGJBIhpZnaz1HIe4X0wiffVXFFzDflyPft+Jzof0L);strokeColor=none;spacingTop=-3;spacingBottom=-3;spacingLeft=-3;spacingRight=-3;points=[];labelBackgroundColor=none;rounded=0;html=1;whiteSpace=wrap;" parent="51" vertex="1">
          <mxGeometry y="9" width="50" height="58" as="geometry" />
        </mxCell>
        <mxCell id="53" style="vsdxID=1069;fillColor=#e8e8e8;gradientColor=none;shape=stencil(fZLRDoIwDEW/Zq/L1orgM+p/EAEhIpABCn8vS1HWRXhru9ud26YC465I2kyA6nrTPLJ3mfaFwLMAKOsiM2U/RwIvAuO8MdndNEOdUt4mVmmjZ/OyP4zUp5WyPaAmygNKr6S9DYbE2lcvhTCUEVVG+FWOehGB1zUig6gJuWCDCiDxxLnrlwtDcWQYyUPAoR5zf1BvTNAyCDjQNcU9bE25C3TXxj2M/ha/ONcU+pq/U87Begd5WVV0Ru67fzdziW4OLx8=);strokeColor=none;spacingTop=-3;spacingBottom=-3;spacingLeft=-3;spacingRight=-3;points=[];labelBackgroundColor=none;rounded=0;html=1;whiteSpace=wrap;" parent="51" vertex="1">
          <mxGeometry width="50" height="18" as="geometry" />
        </mxCell>
        <mxCell id="54" style="vsdxID=1070;fillColor=#50e6ff;gradientColor=none;shape=stencil(jVLLDoIwEPyaXknp8tAz4n8QKdKIQApo+XtbF+0jwXjb3c7szDRLoJjaauSE0WmWw40/RT23BE6EMdG3XIpZVwRKAkUzSH6Vw9LX2I+VQZrqPjzMBoW8mFLDYXTFPjlGB3hPzgi/LBLxcUjYBnkeZcigin1HabKhWEBTgIP0swZ8wI4sY1GS+cJ25aZBfUnXGPgI+DNsEFWboEFU15dvYy/oz5juz/keVPiRq3UAuS9pMXtBdWEvohFdhwflvocXpEd4fVC+AA==);strokeColor=none;spacingTop=-3;spacingBottom=-3;spacingLeft=-3;spacingRight=-3;points=[];labelBackgroundColor=none;rounded=0;html=1;whiteSpace=wrap;" parent="51" vertex="1">
          <mxGeometry x="5" y="2" width="38" height="11" as="geometry" />
        </mxCell>
        <mxCell id="55" style="vsdxID=1071;fillColor=#198ab3;gradientColor=none;shape=stencil(vZPbbsMgDIafhstYHEN23XXvgVqSoLIQEbZmb18iZ2tDtak3650Pv82HZROxm3ozWsLplGI42bM7pp6IV8K5G3obXcoWEXsidm2ItovhYziiP5pFuVjv4XPpMGOdoksJp1/ooveGShMPORNXJZMNyBrVcZUzKikoicH5tsV3Q8VAqDVfmdlNVQzJJBeGjdqb2NkqP1i13nSb1HS2drwL/4JYg25KRN6AftkgFp9mlD6PUIDgJSGVoDaAP0SrRGrQz5ui4sB0yVjXoP6c4j/O0LvhwZXNxnXTW+c9HsptvryMHMKrEvsL);strokeColor=none;spacingTop=-3;spacingBottom=-3;spacingLeft=-3;spacingRight=-3;points=[];labelBackgroundColor=none;rounded=0;html=1;whiteSpace=wrap;" parent="51" vertex="1">
          <mxGeometry x="9" y="9" width="30" height="4" as="geometry" />
        </mxCell>
        <mxCell id="56" style="vsdxID=1072;fillColor=#f2f2f2;gradientColor=#E6E6E6;shape=stencil(xVnbctowEP0aHtnR/fKcpv/hSSBhSiFjSEP/vuvaktg1OHRi1DewJev47O7Zixf64fDavK0WShyO7f7H6mPzfHxd6G8LpTa711W7OeKvhX5c6If1vl29tPv33XP//63pVna/fu5/dU849fuCgSC7XUr87q84C9H/vfK937Dd7CY3CIju+nrvQNgvrfcRorq+QQrxleX//LqjDZRQaUFFskEbEPp8Q9M+4d02bfDQP060ZYPvGSqgQSvyUBVADrhOy+a0OSzb/bE5bva7geT+3rZpX1ZLPHC53jYv5NbhY7V6O7ssr0M0oCnCAMYQgBEkNZqSEGMtfDqzkwA6sIoz6KgdpQNlayF04CxFKDUIZmSTHKEsia4WQvRbz/1QlPMHq5ps+IQxwh1JpLE4Pj1zePGVlM0xkl7JRNBymnUx6+uIScYjZ1yCpoyjdlA1cTPzPQVQ5ChKAFG8kyOfyGPTfV0C7w74nt7bXmslPXz4qzWogdGTSh4ik3AOV4xI+UGcdFIvn/xquGJywF72rADKUGas5Zp4FlFpDbJjZmVnUrQF8y5fJDmnHqUpwgiumuRocIEjVIpzmNaU9GtDLYQeQmSyjWZmJEqgHDoPrlrqwywmGYkoIsnvUoxyEu9sZirbo9O9T6FyObgkSMdkW5bAyazTdB5UqrJqKGMYVRwa1TwQiEqBpdrtURHuqI43qTdL6BaYZ5Q3qwJxjDBbMWcUTVXUGIjVLN2JFPNFB5qmwKmS/y4QWUfzecdBWxTnchGUJMtMR6QCpjFoA0+93cXsbmkNNi3zZrspO6msEGcYFdXB8Yt3/jZvNplyd0wMXDUM0IBEZTbUmDYXJxUQ4ukcITaaVHqxhk7tae7o/bzZZMrQIuf/tjiaoUW9jrk+yyzW0wzMDqztwOTA8pdWIGnZUNUVUdYiZ9GX84dFEaidMQ0HXw0iJnTmi0ZnsyYaJURqaCfmHjxMRzS3tC7laQ4gR2nEMkDWE0Z0K44x5oSRQhqzPlWdICDc0RtpBrOOd0ppSndxuQtg7e3L8emWPt0HNsIbWdWwgRfqtKJ1yVQSrUDZDTmcJv0xC6UJuMhCGenl3sfngUVJBZI+1J1VR3dvfkKeT51BZPMTOWrCMcfVm6oZXjkhr4KSiAIRqTvPXzl9AnGMkXn7mEbs0pSqhRErDu6LxT2LL7JGAd9MVvRFw8Yt2Jo7yiLGoPuPLHYDqdGsgAKMbJZR2xMV091uZjXi8KqOVRhm3CCj+KN8bVtvttv+Y935ff51Di/1X/b04x8=);strokeColor=none;spacingTop=-3;spacingBottom=-3;spacingLeft=-3;spacingRight=-3;points=[];labelBackgroundColor=none;rounded=0;html=1;whiteSpace=wrap;" parent="51" vertex="1">
          <mxGeometry x="6" y="29" width="40" height="20" as="geometry" />
        </mxCell>
        <UserObject label="" tags="Tło" id="58">
          <mxCell style="vsdxID=1074;fillColor=none;gradientColor=none;shape=stencil(nZBLDoAgDERP0z3SIyjew0SURgSD+Lu9kMZoXLhwN9O+tukAlrNpJg1SzDH4QW/URgNYgZTkjA4UkwJUgGXng+6DX1zLfmoymdXo17xh5zmRJ6Q42BWCfc2oJfdAr+Yv+AP9Cb7OJ3H/2JG1HNGz/84klThPVCc=);dashed=1;strokeColor=#000000;points=[];labelBackgroundColor=none;rounded=0;html=1;whiteSpace=wrap;" parent="1" vertex="1">
            <mxGeometry x="-332" y="169.5" width="127" height="322" as="geometry" />
          </mxCell>
        </UserObject>
        <UserObject label="" tags="Tło" id="59">
          <mxCell style="vsdxID=1038;fillColor=none;gradientColor=none;strokeColor=none;spacingTop=-3;spacingBottom=-3;spacingLeft=-3;spacingRight=-3;points=[];labelBackgroundColor=none;rounded=0;html=1;whiteSpace=wrap;" parent="1" vertex="1">
            <mxGeometry x="-294" y="221.5" width="50" height="50" as="geometry" />
          </mxCell>
        </UserObject>
        <mxCell id="60" style="vsdxID=1039;fillColor=none;gradientColor=none;strokeColor=none;spacingTop=-3;spacingBottom=-3;spacingLeft=-3;spacingRight=-3;points=[];labelBackgroundColor=none;rounded=0;html=1;whiteSpace=wrap;" parent="59" vertex="1">
          <mxGeometry width="50" height="50" as="geometry" />
        </mxCell>
        <mxCell id="61" style="vsdxID=1040;fillColor=#005ba1;gradientColor=none;shape=stencil(xZNNcoMwDIVP4yUa4x+C12l6D09iwFMXM8Zt6O1jRiGNSYd01e6E3icZafQI34+dHgxhdIzBv5mzPcWO8BfCmO07E2xMEeEHwveND6YN/qM/4fegZ3KO3v3n3GHCuqoCMRcx+oUJXoHEzCvyzvZbfAmlusd1OCYxTDcV6XDDWYWZpaEAWWYdKbD6ihR6smMRfNTR+v4qo+Z0aE2RXisap9tMGs/GDA/pH8fhDGq1nl9szE8zeCeAyt/CJd34ESVBqC0836sAwfPFSqD5Ypf6pZ8SUMu/2uv68adX8ngmu2waVcP/Xclzk6Tg22GNdQ4Neq+vHZlS6GZ+uAA=);strokeColor=none;spacingTop=-3;spacingBottom=-3;spacingLeft=-3;spacingRight=-3;points=[];labelBackgroundColor=none;rounded=0;html=1;whiteSpace=wrap;" parent="60" vertex="1">
          <mxGeometry x="13" y="17" width="37" height="33" as="geometry" />
        </mxCell>
        <mxCell id="62" style="vsdxID=1041;fillColor=#005ba1;gradientColor=#005ba1;shape=stencil(tZPNcoMgEICfhqMMsFWTc5q+B5OgMqXirKSxb18smAg2k156259v/9iFwGHs5KCIYKND+66u+uw6Aq9ECN13CrXzEoEjgUNjUbVoL/056IOcyVn6sJ9zhinElWwOEewrqJxRvv+xvAX6dMGA8wAIQaGMITyPYZMIpiVpVEtav0QAUiBRY0mj+1WDaX9Q0XL3L/C+oiDWsMST92KEfao4Iy7ZacXjUAtS8+wxY4mpkJMeC7ROOm37pLyR2KrCFysaI9vENV6VGjbmX2e5lcpK/wlO0Hzhd5hvlhnXW9e0Wm5CbG8CskuDB6eWNvnsML1wv+lGGxO+xNqf/wFvCv8Hjt8=);strokeColor=none;spacingTop=-3;spacingBottom=-3;spacingLeft=-3;spacingRight=-3;points=[];labelBackgroundColor=none;rounded=0;html=1;whiteSpace=wrap;" parent="60" vertex="1">
          <mxGeometry y="4" width="25" height="46" as="geometry" />
        </mxCell>
        <mxCell id="63" style="vsdxID=1042;fillColor=#FFFFFF;gradientColor=none;shape=stencil(vVNLDoMgED0NSw1CU7u39h6kopJSMCOtevtCMfFDTJOauJsvb94MD9GsrVnDEcGtAf3gnShMjegVESJUzUEYayGaI5qVGngF+qUK7zfMVTrrqd/uhd73YddB8OC9Sxqf02/k5osZ3G0WxuKExPTkG2AIQrMiung1wSNKH7FetBFow4zQajGBZFDxyOJFpWTVItV2nDdBeJxQCjWjMxFYg+8ghLeWdAChNfi03f8JhUs67D7h59h7na31HEDmh3asMamuFFJ60c7za5XakFc4zT8=);strokeColor=none;spacingTop=-3;spacingBottom=-3;spacingLeft=-3;spacingRight=-3;points=[];labelBackgroundColor=none;rounded=0;html=1;whiteSpace=wrap;" parent="60" vertex="1">
          <mxGeometry x="37" y="37" width="6" height="6" as="geometry" />
        </mxCell>
        <mxCell id="64" style="vsdxID=1043;fillColor=#FFFFFF;gradientColor=none;shape=stencil(vVNLDoMgED0NSw1CU7u39h6kopJSMCOtevtCMfFDTJOauJsvb94MD9GsrVnDEcGtAf3gnShMjegVESJUzUEYayGaI5qVGngF+qUK7zfMVTrrqd/uhd73YddB8OC9Sxqf02/k5osZ3G0WxuKExPTkG2AIQrMiung1wSNKH7FetBFow4zQajGBZFDxyOJFpWTVItV2nDdBeJxQCjWjMxFYg+8ghLeWdAChNfi03f8JhUs67D7h59h7na31HEDmh3asMamuFFJ60c7za5XakFc4zT8=);strokeColor=none;spacingTop=-3;spacingBottom=-3;spacingLeft=-3;spacingRight=-3;points=[];labelBackgroundColor=none;rounded=0;html=1;whiteSpace=wrap;" parent="60" vertex="1">
          <mxGeometry x="25" y="37" width="6" height="6" as="geometry" />
        </mxCell>
        <mxCell id="65" style="vsdxID=1044;fillColor=#FFFFFF;gradientColor=none;shape=stencil(vVNLDoMgED0NSw1CU7u39h6kopJSMCOtevtCMfFDTJOauJsvb94MD9GsrVnDEcGtAf3gnShMjegVESJUzUEYayGaI5qVGngF+qUK7zfMVTrrqd/uhd73YddB8OC9Sxqf02/k5osZ3G0WxuKExPTkG2AIQrMiung1wSNKH7FetBFow4zQajGBZFDxyOJFpWTVItV2nDdBeJxQCjWjMxFYg+8ghLeWdAChNfi03f8JhUs67D7h59h7na31HEDmh3asMamuFFJ60c7za5XakFc4zT8=);strokeColor=none;spacingTop=-3;spacingBottom=-3;spacingLeft=-3;spacingRight=-3;points=[];labelBackgroundColor=none;rounded=0;html=1;whiteSpace=wrap;" parent="60" vertex="1">
          <mxGeometry x="13" y="37" width="6" height="6" as="geometry" />
        </mxCell>
        <mxCell id="66" style="vsdxID=1045;fillColor=#eaeaea;gradientColor=none;shape=stencil(hVLRDoIwDPyavS6jBabPiP9BZMgiMjJA4e8Fi8KWoG/t7dq7W8owacusUQxE21lzU0+ddyXDEwPQdams7qaKYcowKYxVV2v6Oqe+yWbmXN3NY94w0FwgxDwDYqQ+PHIM38iZ6JfeEj/wBxZASo6EDPBF4mghgTc1IAHRZwu6hB1VAI6Rq7uuXDSEKykPPAZX1NP8m9VLCoIL6Wpufbk29oL+jLn9OdfD4H/kuDqQruJK2cs5Fes9FLqq6Jy27/79TBDdHqYv);strokeColor=none;spacingTop=-3;spacingBottom=-3;spacingLeft=-3;spacingRight=-3;points=[];labelBackgroundColor=none;rounded=0;html=1;whiteSpace=wrap;" parent="60" vertex="1">
          <mxGeometry width="25" height="9" as="geometry" />
        </mxCell>
        <mxCell id="67" style="vsdxID=1046;fillColor=#50e6ff;gradientColor=none;shape=stencil(hZJNEoIwDIVP022mTYTC2p97MFKkI4pTQPH2ggGxddRd+vqSr28aQeumzC5GoGxaVx/NzeZtKWgjEO25NM62QyVoK2hd1M4cXN2dcz5fstE5Vqf6Ok7ouU9JOfagvPN5lQKunsqO7fvOsV+FDZOgNaiYpR5fUqwmFwZtPbEQzWPIN3zBIgKlPngZOTGkj9QJKO1DA+bfsEFUlEA+EgkoSPqRE1TkY38G1TGkQdAg5vID8yMUJORTF8+3qEOx7ERhq4pX6v0+3KFB4v2j7QM=);strokeColor=none;spacingTop=-3;spacingBottom=-3;spacingLeft=-3;spacingRight=-3;points=[];labelBackgroundColor=none;rounded=0;html=1;whiteSpace=wrap;" parent="60" vertex="1">
          <mxGeometry x="2" y="1" width="19" height="5" as="geometry" />
        </mxCell>
        <mxCell id="68" style="vsdxID=1047;fillColor=#198ab3;gradientColor=none;shape=stencil(xVNLEoIwDD1Nl3T6AdS14j06WqBjpUyoire3neAHdBw36i7Je0lf8yFy2dWq1USwzoPb6ZPZ+prIFRHCNLUG44NFZEHksnSgK3CHZot+qyIzWnt3jBV6zMtYTBHsjC56a2Qq2AQEBibPcpoiGQY2Z7McI/1j+rVYuqBSDniietMl4LzyxjUjtlVQ6SQ8lpRWVSOoO2ndPoVfy0vnlGVTfXxOs7HEyYc5Yz9VmL9QmM9GCm+S/tLGOGX+PGbKxbs2frGJ1jQf7msw7mteGmvxSh7x6VmEEJ6ULC4=);strokeColor=none;spacingTop=-3;spacingBottom=-3;spacingLeft=-3;spacingRight=-3;points=[];labelBackgroundColor=none;rounded=0;html=1;whiteSpace=wrap;" parent="60" vertex="1">
          <mxGeometry x="4" y="4" width="15" height="2" as="geometry" />
        </mxCell>
        <UserObject label="" tags="Tło" id="77">
          <mxCell style="vsdxID=1076;fillColor=none;gradientColor=none;shape=stencil(nZBLDoAgDERP0z3SIyjew0SURgSD+Lu9kMZoXLhwN9O+tukAlrNpJg1SzDH4QW/URgNYgZTkjA4UkwJUgGXng+6DX1zLfmoymdXo17xh5zmRJ6Q42BWCfc2oJfdAr+Yv+AP9Cb7OJ3H/2JG1HNGz/84klThPVCc=);dashed=1;strokeColor=#000000;points=[];labelBackgroundColor=none;rounded=0;html=1;whiteSpace=wrap;" parent="1" vertex="1">
            <mxGeometry x="-152" y="169.5" width="127" height="322" as="geometry" />
          </mxCell>
        </UserObject>
        <UserObject label="&lt;div style=&quot;font-size: 1px&quot;&gt;&lt;font style=&quot;font-size:14.11px;font-family:Segoe UI;color:#000000;direction:ltr;letter-spacing:0px;line-height:120%;opacity:1&quot;&gt;Azure Data Factory&lt;br/&gt;&lt;/font&gt;&lt;/div&gt;" tags="Tło" id="80">
          <mxCell style="verticalAlign=middle;align=center;overflow=width;vsdxID=1079;fillColor=none;gradientColor=none;shape=stencil(nZBLDoAgDERP0z3SIyjew0SURgSD+Lu9kMZoXLhwN9O+tukAlrNpJg1SzDH4QW/URgNYgZTkjA4UkwJUgGXng+6DX1zLfmoymdXo17xh5zmRJ6Q42BWCfc2oJfdAr+Yv+AP9Cb7OJ3H/2JG1HNGz/84klThPVCc=);strokeColor=none;points=[];labelBackgroundColor=none;rounded=0;html=1;whiteSpace=wrap;" parent="1" vertex="1">
            <mxGeometry x="-332" y="275.5" width="127" height="41" as="geometry" />
          </mxCell>
        </UserObject>
        <UserObject label="&lt;div style=&quot;font-size: 1px&quot;&gt;&lt;font style=&quot;font-size:14.11px;font-family:Segoe UI;color:#000000;direction:ltr;letter-spacing:0px;line-height:120%;opacity:1&quot;&gt;Azure Databricks&lt;br/&gt;&lt;/font&gt;&lt;/div&gt;" tags="Tło" id="81">
          <mxCell style="verticalAlign=middle;align=center;overflow=width;vsdxID=1080;fillColor=none;gradientColor=none;shape=stencil(nZBLDoAgDERP0z3SIyjew0SURgSD+Lu9kMZoXLhwN9O+tukAlrNpJg1SzDH4QW/URgNYgZTkjA4UkwJUgGXng+6DX1zLfmoymdXo17xh5zmRJ6Q42BWCfc2oJfdAr+Yv+AP9Cb7OJ3H/2JG1HNGz/84klThPVCc=);strokeColor=none;points=[];labelBackgroundColor=none;rounded=0;html=1;whiteSpace=wrap;" parent="1" vertex="1">
            <mxGeometry x="-332" y="401.5" width="127" height="28" as="geometry" />
          </mxCell>
        </UserObject>
        <UserObject label="&lt;div style=&quot;font-size: 1px&quot;&gt;&lt;font style=&quot;font-size:14.11px;font-family:Segoe UI;color:#000000;direction:ltr;letter-spacing:0px;line-height:120%;opacity:1&quot;&gt;Azure Data Lake Storage V2&lt;br/&gt;&lt;/font&gt;&lt;/div&gt;" tags="Tło" id="82">
          <mxCell style="verticalAlign=middle;align=center;overflow=width;vsdxID=1081;fillColor=none;gradientColor=none;shape=stencil(nZBLDoAgDERP0z3SIyjew0SURgSD+Lu9kMZoXLhwN9O+tukAlrNpJg1SzDH4QW/URgNYgZTkjA4UkwJUgGXng+6DX1zLfmoymdXo17xh5zmRJ6Q42BWCfc2oJfdAr+Yv+AP9Cb7OJ3H/2JG1HNGz/84klThPVCc=);strokeColor=none;points=[];labelBackgroundColor=none;rounded=0;html=1;whiteSpace=wrap;" parent="1" vertex="1">
            <mxGeometry x="-152" y="243.5" width="127" height="41" as="geometry" />
          </mxCell>
        </UserObject>
        <UserObject label="&lt;div style=&quot;font-size: 1px&quot;&gt;&lt;font style=&quot;font-size:14.11px;font-family:Segoe UI;color:#000000;direction:ltr;letter-spacing:0px;line-height:120%;opacity:1&quot;&gt;Azure Synapse&lt;br/&gt;&lt;/font&gt;&lt;/div&gt;" tags="Tło" id="83">
          <mxCell style="verticalAlign=middle;align=center;overflow=width;vsdxID=1082;fillColor=none;gradientColor=none;shape=stencil(nZBLDoAgDERP0z3SIyjew0SURgSD+Lu9kMZoXLhwN9O+tukAlrNpJg1SzDH4QW/URgNYgZTkjA4UkwJUgGXng+6DX1zLfmoymdXo17xh5zmRJ6Q42BWCfc2oJfdAr+Yv+AP9Cb7OJ3H/2JG1HNGz/84klThPVCc=);strokeColor=none;points=[];labelBackgroundColor=none;rounded=0;html=1;whiteSpace=wrap;" parent="1" vertex="1">
            <mxGeometry x="-152" y="353.5" width="127" height="28" as="geometry" />
          </mxCell>
        </UserObject>
        <UserObject label="&lt;div style=&quot;font-size: 1px&quot;&gt;&lt;font style=&quot;font-size:14.11px;font-family:Segoe UI;color:#000000;direction:ltr;letter-spacing:0px;line-height:120%;opacity:1&quot;&gt;Azure SQL Database&lt;br/&gt;&lt;/font&gt;&lt;/div&gt;" tags="Tło" id="84">
          <mxCell style="verticalAlign=middle;align=center;overflow=width;vsdxID=1083;fillColor=none;gradientColor=none;shape=stencil(nZBLDoAgDERP0z3SIyjew0SURgSD+Lu9kMZoXLhwN9O+tukAlrNpJg1SzDH4QW/URgNYgZTkjA4UkwJUgGXng+6DX1zLfmoymdXo17xh5zmRJ6Q42BWCfc2oJfdAr+Yv+AP9Cb7OJ3H/2JG1HNGz/84klThPVCc=);strokeColor=none;points=[];labelBackgroundColor=none;rounded=0;html=1;whiteSpace=wrap;" parent="1" vertex="1">
            <mxGeometry x="-146" y="449.5" width="115" height="42" as="geometry" />
          </mxCell>
        </UserObject>
        <UserObject label="" tags="Tło" id="85">
          <mxCell style="vsdxID=1084;fillColor=none;gradientColor=none;shape=stencil(nZBLDoAgDERP0z3SIyjew0SURgSD+Lu9kMZoXLhwN9O+tukAlrNpJg1SzDH4QW/URgNYgZTkjA4UkwJUgGXng+6DX1zLfmoymdXo17xh5zmRJ6Q42BWCfc2oJfdAr+Yv+AP9Cb7OJ3H/2JG1HNGz/84klThPVCc=);dashed=1;strokeColor=#000000;points=[];labelBackgroundColor=none;rounded=0;html=1;whiteSpace=wrap;" parent="1" vertex="1">
            <mxGeometry x="27" y="207.5" width="127" height="254" as="geometry" />
          </mxCell>
        </UserObject>
        <UserObject label="&lt;div style=&quot;font-size: 1px&quot;&gt;&lt;font style=&quot;font-size:14.11px;font-family:Segoe UI;color:#000000;direction:ltr;letter-spacing:0px;line-height:120%;opacity:1&quot;&gt;Azure Databricks&lt;br/&gt;&lt;/font&gt;&lt;/div&gt;" tags="Tło" id="94">
          <mxCell style="verticalAlign=middle;align=center;overflow=width;vsdxID=1104;fillColor=none;gradientColor=none;shape=stencil(nZBLDoAgDERP0z3SIyjew0SURgSD+Lu9kMZoXLhwN9O+tukAlrNpJg1SzDH4QW/URgNYgZTkjA4UkwJUgGXng+6DX1zLfmoymdXo17xh5zmRJ6Q42BWCfc2oJfdAr+Yv+AP9Cb7OJ3H/2JG1HNGz/84klThPVCc=);strokeColor=none;points=[];labelBackgroundColor=none;rounded=0;html=1;whiteSpace=wrap;" parent="1" vertex="1">
            <mxGeometry x="27" y="285.5" width="127" height="28" as="geometry" />
          </mxCell>
        </UserObject>
        <UserObject label="" tags="Tło" id="95">
          <mxCell style="vsdxID=1105;fillColor=none;gradientColor=none;strokeColor=none;spacingTop=-3;spacingBottom=-3;spacingLeft=-3;spacingRight=-3;points=[];labelBackgroundColor=none;rounded=0;html=1;whiteSpace=wrap;" parent="1" vertex="1">
            <mxGeometry x="66" y="346.5" width="50" height="53" as="geometry" />
          </mxCell>
        </UserObject>
        <mxCell id="96" style="vsdxID=1106;fillColor=#198ab3;gradientColor=none;shape=stencil(UzV2Ls5ILEhVNTIoLinKz04tz0wpyVA1dlE1MsrMy0gtyiwBslSNXVWNndPyi1LTi/JL81Ig/IJEkEoQKze/DGRCBUSfpbGegQlIl5FBJUTE0MAAzHeDKM/JzENSbqZnaUa8agMUpXgUwkwhQilBBwMZCM+mZebkQMIKWR49cIBCkIA1dgUA);strokeColor=none;spacingTop=-3;spacingBottom=-3;spacingLeft=-3;spacingRight=-3;points=[];labelBackgroundColor=none;rounded=0;html=1;whiteSpace=wrap;" parent="95" vertex="1">
          <mxGeometry y="40" width="50" height="13" as="geometry" />
        </mxCell>
        <mxCell id="97" style="vsdxID=1107;fillColor=#50c7e8;gradientColor=#1989b2;shape=stencil(nZHdDsIgDIWfprcL0MxxP+d7LBkTIsLC8O/tBRujW4JZvDun/doUDmA7635SINgcgz+pmxmiBtyDEMZpFUxMCrADbEcf1DH4ixvIT30mszr7a95wp7la5hHBHmTZyx2ItMaVSWyqXV2m2QJu6krKMsz5gubsxxnv5sY71vj2B/5JJvH569FYS1F999fZpBLlit0T);strokeColor=none;spacingTop=-3;spacingBottom=-3;spacingLeft=-3;spacingRight=-3;points=[];labelBackgroundColor=none;rounded=0;html=1;whiteSpace=wrap;" parent="95" vertex="1">
          <mxGeometry width="31" height="53" as="geometry" />
        </mxCell>
        <mxCell id="98" style="vsdxID=1108;fillColor=#32bedd;gradientColor=none;shape=stencil(hZDdDoMgDIWfprcE6DR67dx7mIiDjIFB3M/bD9aY6RK3u9P2O4UewGbS3ahA8ikGf1F300cNeAQpjdMqmJgUYAvYDD6oc/Cz66keu0xmdfW3vOFBvurAaswuyZ/UEZy/6xPh1rgVzjcoClaLfRgLVsqN4cfm5dkFLUqG1T7+999JfG4ejLUU2Xr+nVFqUb7YvgA=);strokeColor=none;spacingTop=-3;spacingBottom=-3;spacingLeft=-3;spacingRight=-3;points=[];labelBackgroundColor=none;rounded=0;html=1;whiteSpace=wrap;" parent="95" vertex="1">
          <mxGeometry x="26" y="24" width="23" height="29" as="geometry" />
        </mxCell>
        <UserObject label="&lt;div style=&quot;font-size: 1px&quot;&gt;&lt;font style=&quot;font-size:14.11px;font-family:Segoe UI;color:#000000;direction:ltr;letter-spacing:0px;line-height:120%;opacity:1&quot;&gt;Azure Machine Learning&lt;br/&gt;&lt;/font&gt;&lt;/div&gt;" tags="Tło" id="99">
          <mxCell style="verticalAlign=middle;align=center;overflow=width;vsdxID=1109;fillColor=none;gradientColor=none;shape=stencil(nZBLDoAgDERP0z3SIyjew0SURgSD+Lu9kMZoXLhwN9O+tukAlrNpJg1SzDH4QW/URgNYgZTkjA4UkwJUgGXng+6DX1zLfmoymdXo17xh5zmRJ6Q42BWCfc2oJfdAr+Yv+AP9Cb7OJ3H/2JG1HNGz/84klThPVCc=);strokeColor=none;points=[];labelBackgroundColor=none;rounded=0;html=1;whiteSpace=wrap;" parent="1" vertex="1">
            <mxGeometry x="27" y="407.5" width="127" height="41" as="geometry" />
          </mxCell>
        </UserObject>
        <UserObject label="" tags="Tło" id="150">
          <mxCell style="vsdxID=1164;fillColor=none;gradientColor=none;shape=stencil(nZBLDoAgDERP0z3SIyjew0SURgSD+Lu9kMZoXLhwN9O+tukAlrNpJg1SzDH4QW/URgNYgZTkjA4UkwJUgGXng+6DX1zLfmoymdXo17xh5zmRJ6Q42BWCfc2oJfdAr+Yv+AP9Cb7OJ3H/2JG1HNGz/84klThPVCc=);dashed=1;strokeColor=#000000;points=[];labelBackgroundColor=none;rounded=0;html=1;whiteSpace=wrap;" parent="1" vertex="1">
            <mxGeometry x="460" y="211.5" width="130" height="250" as="geometry" />
          </mxCell>
        </UserObject>
        <UserObject label="&lt;div style=&quot;font-size: 1px&quot;&gt;&lt;font style=&quot;font-size:16.93px;font-family:Segoe UI;color:#000000;direction:ltr;letter-spacing:0px;line-height:120%;opacity:1&quot;&gt;&lt;b&gt;Data workload&lt;br/&gt;&lt;/b&gt;&lt;/font&gt;&lt;/div&gt;" tags="Tło" id="177">
          <mxCell style="verticalAlign=middle;align=center;overflow=width;vsdxID=1190;fillColor=none;gradientColor=none;shape=stencil(nZBLDoAgDERP0z3SIyjew0SURgSD+Lu9kMZoXLhwN9O+tukAlrNpJg1SzDH4QW/URgNYgZTkjA4UkwJUgGXng+6DX1zLfmoymdXo17xh5zmRJ6Q42BWCfc2oJfdAr+Yv+AP9Cb7OJ3H/2JG1HNGz/84klThPVCc=);strokeColor=none;points=[];labelBackgroundColor=none;rounded=0;html=1;whiteSpace=wrap;" parent="1" vertex="1">
            <mxGeometry x="-340" y="131.5" width="142" height="28" as="geometry" />
          </mxCell>
        </UserObject>
        <UserObject label="&lt;div style=&quot;font-size: 1px&quot;&gt;&lt;font style=&quot;font-size:16.93px;font-family:Segoe UI;color:#000000;direction:ltr;letter-spacing:0px;line-height:120%;opacity:1&quot;&gt;&lt;b&gt;Staging area&lt;br/&gt;&lt;/b&gt;&lt;/font&gt;&lt;/div&gt;" tags="Tło" id="178">
          <mxCell style="verticalAlign=middle;align=center;overflow=width;vsdxID=1191;fillColor=none;gradientColor=none;shape=stencil(nZBLDoAgDERP0z3SIyjew0SURgSD+Lu9kMZoXLhwN9O+tukAlrNpJg1SzDH4QW/URgNYgZTkjA4UkwJUgGXng+6DX1zLfmoymdXo17xh5zmRJ6Q42BWCfc2oJfdAr+Yv+AP9Cb7OJ3H/2JG1HNGz/84klThPVCc=);strokeColor=none;points=[];labelBackgroundColor=none;rounded=0;html=1;whiteSpace=wrap;" parent="1" vertex="1">
            <mxGeometry x="-159.5" y="131.5" width="142" height="28" as="geometry" />
          </mxCell>
        </UserObject>
        <UserObject label="&lt;div style=&quot;font-size: 1px&quot;&gt;&lt;font style=&quot;font-size:16.93px;font-family:Segoe UI;color:#000000;direction:ltr;letter-spacing:0px;line-height:120%;opacity:1&quot;&gt;&lt;b&gt;Training&lt;br/&gt;&lt;/b&gt;&lt;/font&gt;&lt;/div&gt;" tags="Tło" id="179">
          <mxCell style="verticalAlign=middle;align=center;overflow=width;vsdxID=1192;fillColor=none;gradientColor=none;shape=stencil(nZBLDoAgDERP0z3SIyjew0SURgSD+Lu9kMZoXLhwN9O+tukAlrNpJg1SzDH4QW/URgNYgZTkjA4UkwJUgGXng+6DX1zLfmoymdXo17xh5zmRJ6Q42BWCfc2oJfdAr+Yv+AP9Cb7OJ3H/2JG1HNGz/84klThPVCc=);strokeColor=none;points=[];labelBackgroundColor=none;rounded=0;html=1;whiteSpace=wrap;" parent="1" vertex="1">
            <mxGeometry x="41" y="169" width="99" height="28" as="geometry" />
          </mxCell>
        </UserObject>
        <UserObject label="&lt;div style=&quot;font-size: 1px&quot;&gt;&lt;font style=&quot;font-size:16.93px;font-family:Segoe UI;color:#000000;direction:ltr;letter-spacing:0px;line-height:120%;opacity:1&quot;&gt;&lt;b&gt;Analytical workload&lt;br/&gt;&lt;/b&gt;&lt;/font&gt;&lt;/div&gt;" tags="Tło" id="181">
          <mxCell style="verticalAlign=middle;align=center;overflow=width;vsdxID=1194;fillColor=none;gradientColor=none;shape=stencil(nZBLDoAgDERP0z3SIyjew0SURgSD+Lu9kMZoXLhwN9O+tukAlrNpJg1SzDH4QW/URgNYgZTkjA4UkwJUgGXng+6DX1zLfmoymdXo17xh5zmRJ6Q42BWCfc2oJfdAr+Yv+AP9Cb7OJ3H/2JG1HNGz/84klThPVCc=);strokeColor=none;points=[];labelBackgroundColor=none;rounded=0;html=1;whiteSpace=wrap;" parent="1" vertex="1">
            <mxGeometry x="282.61" y="130" width="99" height="50" as="geometry" />
          </mxCell>
        </UserObject>
        <UserObject label="&lt;div style=&quot;font-size: 1px&quot;&gt;&lt;font style=&quot;font-size:16.93px;font-family:Segoe UI;color:#000000;direction:ltr;letter-spacing:0px;line-height:120%;opacity:1&quot;&gt;&lt;b&gt;Front-end&lt;br/&gt;&lt;/b&gt;&lt;/font&gt;&lt;/div&gt;" tags="Tło" id="182">
          <mxCell style="verticalAlign=middle;align=center;overflow=width;vsdxID=1195;fillColor=none;gradientColor=none;shape=stencil(nZBLDoAgDERP0z3SIyjew0SURgSD+Lu9kMZoXLhwN9O+tukAlrNpJg1SzDH4QW/URgNYgZTkjA4UkwJUgGXng+6DX1zLfmoymdXo17xh5zmRJ6Q42BWCfc2oJfdAr+Yv+AP9Cb7OJ3H/2JG1HNGz/84klThPVCc=);strokeColor=none;points=[];labelBackgroundColor=none;rounded=0;html=1;whiteSpace=wrap;" parent="1" vertex="1">
            <mxGeometry x="474" y="143.5" width="99" height="28" as="geometry" />
          </mxCell>
        </UserObject>
        <UserObject label="" tags="Tło" id="184">
          <mxCell style="vsdxID=1200;fillColor=#107c10;gradientColor=none;shape=stencil(rVFBDsIwDHtNj5VCK14wxj8ilm0VZZ3SAuX3tAoIBhwQ4mbHjhMlyjZxxJmUgZg47OnsujQqu1HGuGkkdqkgZVtlmz4wDRyOUyd8xuqs6BBONSFLH9QOAxdha6FbcSLvisR5oQEvvfegFXyMgqwxu6g5JEwuTIupHnkgXcbo3uNwyxEpnonmt/Ivi/1nLfhirQIeZ+6d9/KlZ/31LaUkL7XtFQ==);strokeColor=none;points=[[0.5,0,0],[0.5,0.5,0],[0,0.5,0],[0.5,1,0],[1,0.5,0],[0.15,0.85,0],[0.85,0.85,0],[0.85,0.15,0],[0.15,0.15,0]];labelBackgroundColor=none;rounded=0;html=1;whiteSpace=wrap;" parent="1" vertex="1">
            <mxGeometry x="-572" y="280.5" width="35" height="35" as="geometry" />
          </mxCell>
        </UserObject>
        <mxCell id="185" value="&lt;div style=&quot;font-size: 1px&quot;&gt;&lt;font style=&quot;font-size:15.52px;font-family:Segoe UI;color:#ffffff;direction:ltr;letter-spacing:0px;line-height:120%;opacity:1&quot;&gt;&lt;b&gt;1&lt;br/&gt;&lt;/b&gt;&lt;/font&gt;&lt;/div&gt;" style="text;vsdxID=1200;fillColor=none;gradientColor=none;strokeColor=none;points=[[0.5,0,0],[0.5,0.5,0],[0,0.5,0],[0.5,1,0],[1,0.5,0],[0.15,0.85,0],[0.85,0.85,0],[0.85,0.15,0],[0.15,0.15,0]];labelBackgroundColor=none;rounded=0;html=1;whiteSpace=wrap;verticalAlign=middle;align=center;overflow=width;;html=1;" parent="184" vertex="1">
          <mxGeometry x="2.22" y="3.89" width="31.12" height="26.67" as="geometry" />
        </mxCell>
        <UserObject label="" tags="Connector" id="220">
          <mxCell style="vsdxID=1201;edgeStyle=none;startArrow=none;endArrow=none;startSize=5;endSize=5;strokeWidth=2;strokeColor=#000000;spacingTop=0;spacingBottom=0;spacingLeft=0;spacingRight=0;verticalAlign=middle;html=1;labelBackgroundColor=#ffffff;rounded=0;" parent="1" edge="1">
            <mxGeometry relative="1" as="geometry">
              <mxPoint as="offset" />
              <Array as="points">
                <mxPoint x="-580" y="413.8399999999999" />
              </Array>
              <mxPoint x="-580" y="237.5" as="sourcePoint" />
              <mxPoint x="-633" y="413.15" as="targetPoint" />
            </mxGeometry>
          </mxCell>
        </UserObject>
        <UserObject label="" tags="Connector" id="221">
          <mxCell style="vsdxID=1202;edgeStyle=none;startArrow=none;endArrow=none;startSize=5;endSize=5;strokeWidth=2;strokeColor=#000000;spacingTop=0;spacingBottom=0;spacingLeft=0;spacingRight=0;verticalAlign=middle;html=1;labelBackgroundColor=#ffffff;rounded=0;" parent="1" edge="1">
            <mxGeometry relative="1" as="geometry">
              <mxPoint as="offset" />
              <Array as="points">
                <mxPoint x="-579.35" y="233" />
              </Array>
              <mxPoint x="-632" y="233" as="sourcePoint" />
              <mxPoint x="-580" y="245" as="targetPoint" />
            </mxGeometry>
          </mxCell>
        </UserObject>
        <UserObject label="" tags="Tło" id="222">
          <mxCell style="vsdxID=1203;edgeStyle=none;startArrow=none;endArrow=block;startSize=5;endSize=5;strokeWidth=2;strokeColor=#000000;spacingTop=0;spacingBottom=0;spacingLeft=0;spacingRight=0;verticalAlign=middle;html=1;labelBackgroundColor=#ffffff;rounded=0;" parent="1" edge="1">
            <mxGeometry relative="1" as="geometry">
              <mxPoint x="-1" as="offset" />
              <Array as="points" />
              <mxPoint x="-580.5" y="330" as="sourcePoint" />
              <mxPoint x="-528.5" y="330" as="targetPoint" />
            </mxGeometry>
          </mxCell>
        </UserObject>
        <UserObject label="" tags="Tło" id="223">
          <mxCell style="vsdxID=1204;edgeStyle=none;startArrow=none;endArrow=block;startSize=5;endSize=5;strokeWidth=2;strokeColor=#000000;spacingTop=0;spacingBottom=0;spacingLeft=0;spacingRight=0;verticalAlign=middle;html=1;labelBackgroundColor=#ffffff;rounded=0;" parent="1" edge="1">
            <mxGeometry relative="1" as="geometry">
              <mxPoint x="-1" as="offset" />
              <Array as="points" />
              <mxPoint x="-205" y="330.5" as="sourcePoint" />
              <mxPoint x="-153" y="330.5" as="targetPoint" />
            </mxGeometry>
          </mxCell>
        </UserObject>
        <UserObject label="" tags="Tło" id="224">
          <mxCell style="vsdxID=1205;edgeStyle=none;startArrow=none;endArrow=block;startSize=5;endSize=5;strokeWidth=2;strokeColor=#000000;spacingTop=0;spacingBottom=0;spacingLeft=0;spacingRight=0;verticalAlign=middle;html=1;labelBackgroundColor=#ffffff;rounded=0;" parent="1" edge="1">
            <mxGeometry relative="1" as="geometry">
              <mxPoint x="-1" as="offset" />
              <Array as="points" />
              <mxPoint x="-25" y="330.5" as="sourcePoint" />
              <mxPoint x="27" y="330.5" as="targetPoint" />
            </mxGeometry>
          </mxCell>
        </UserObject>
        <UserObject label="" tags="Connector" id="226">
          <mxCell style="vsdxID=1207;edgeStyle=none;startArrow=none;endArrow=none;startSize=5;endSize=5;strokeWidth=2;strokeColor=#000000;spacingTop=0;spacingBottom=0;spacingLeft=0;spacingRight=0;verticalAlign=middle;html=1;labelBackgroundColor=#ffffff;rounded=0;" parent="1" edge="1">
            <mxGeometry relative="1" as="geometry">
              <mxPoint as="offset" />
              <Array as="points">
                <mxPoint x="207" y="387.5" />
              </Array>
              <mxPoint x="207" y="272.5" as="sourcePoint" />
              <mxPoint x="154" y="387.5" as="targetPoint" />
            </mxGeometry>
          </mxCell>
        </UserObject>
        <UserObject label="" tags="Connector" id="227">
          <mxCell style="vsdxID=1208;edgeStyle=none;startArrow=none;endArrow=none;startSize=5;endSize=5;strokeWidth=2;strokeColor=#000000;spacingTop=0;spacingBottom=0;spacingLeft=0;spacingRight=0;verticalAlign=middle;html=1;labelBackgroundColor=#ffffff;rounded=0;" parent="1" edge="1">
            <mxGeometry relative="1" as="geometry">
              <mxPoint as="offset" />
              <Array as="points">
                <mxPoint x="207" y="262.5" />
              </Array>
              <mxPoint x="157" y="262.5" as="sourcePoint" />
              <mxPoint x="207" y="284.5" as="targetPoint" />
            </mxGeometry>
          </mxCell>
        </UserObject>
        <UserObject label="" tags="Tło" id="228">
          <mxCell style="vsdxID=1209;edgeStyle=none;startArrow=none;endArrow=block;startSize=5;endSize=5;strokeWidth=2;strokeColor=#000000;spacingTop=0;spacingBottom=0;spacingLeft=0;spacingRight=0;verticalAlign=middle;html=1;labelBackgroundColor=#ffffff;rounded=0;" parent="1" edge="1">
            <mxGeometry relative="1" as="geometry">
              <mxPoint x="-1" as="offset" />
              <Array as="points">
                <mxPoint x="223" y="329.5" />
              </Array>
              <mxPoint x="210" y="329.5" as="sourcePoint" />
              <mxPoint x="262" y="329.5" as="targetPoint" />
            </mxGeometry>
          </mxCell>
        </UserObject>
        <UserObject label="" tags="Tło" id="229">
          <mxCell style="vsdxID=1210;edgeStyle=none;startArrow=none;endArrow=block;startSize=5;endSize=5;strokeWidth=2;strokeColor=#000000;spacingTop=0;spacingBottom=0;spacingLeft=0;spacingRight=0;verticalAlign=middle;html=1;labelBackgroundColor=#ffffff;rounded=0;" parent="1" edge="1">
            <mxGeometry relative="1" as="geometry">
              <mxPoint x="-1" as="offset" />
              <Array as="points" />
              <mxPoint x="402" y="325.83" as="sourcePoint" />
              <mxPoint x="453" y="325.83" as="targetPoint" />
            </mxGeometry>
          </mxCell>
        </UserObject>
        <UserObject label="" tags="Tło" id="192">
          <mxCell style="vsdxID=1214;fillColor=#107c10;gradientColor=none;shape=stencil(rVFBDsIwDHtNj5VCK14wxj8ilm0VZZ3SAuX3tAoIBhwQ4mbHjhMlyjZxxJmUgZg47OnsujQqu1HGuGkkdqkgZVtlmz4wDRyOUyd8xuqs6BBONSFLH9QOAxdha6FbcSLvisR5oQEvvfegFXyMgqwxu6g5JEwuTIupHnkgXcbo3uNwyxEpnonmt/Ivi/1nLfhirQIeZ+6d9/KlZ/31LaUkL7XtFQ==);strokeColor=none;points=[[0.5,0,0],[0.5,0.5,0],[0,0.5,0],[0.5,1,0],[1,0.5,0],[0.15,0.85,0],[0.85,0.85,0],[0.85,0.15,0],[0.15,0.15,0]];labelBackgroundColor=none;rounded=0;html=1;whiteSpace=wrap;" parent="1" vertex="1">
            <mxGeometry x="-390" y="284.39" width="35" height="35" as="geometry" />
          </mxCell>
        </UserObject>
        <mxCell id="193" value="&lt;div style=&quot;font-size: 1px&quot;&gt;&lt;font style=&quot;font-size:15.52px;font-family:Segoe UI;color:#ffffff;direction:ltr;letter-spacing:0px;line-height:120%;opacity:1&quot;&gt;&lt;b&gt;2&lt;br&gt;&lt;/b&gt;&lt;/font&gt;&lt;/div&gt;" style="text;vsdxID=1214;fillColor=none;gradientColor=none;strokeColor=none;points=[[0.5,0,0],[0.5,0.5,0],[0,0.5,0],[0.5,1,0],[1,0.5,0],[0.15,0.85,0],[0.85,0.85,0],[0.85,0.15,0],[0.15,0.15,0]];labelBackgroundColor=none;rounded=0;html=1;whiteSpace=wrap;verticalAlign=middle;align=center;overflow=width;;html=1;" parent="192" vertex="1">
          <mxGeometry x="3.6100000000000003" y="0.83" width="27.78" height="30.56" as="geometry" />
        </mxCell>
        <UserObject label="" tags="Tło" id="194">
          <mxCell style="vsdxID=1215;fillColor=#107c10;gradientColor=none;shape=stencil(rVFBDsIwDHtNj5VCK14wxj8ilm0VZZ3SAuX3tAoIBhwQ4mbHjhMlyjZxxJmUgZg47OnsujQqu1HGuGkkdqkgZVtlmz4wDRyOUyd8xuqs6BBONSFLH9QOAxdha6FbcSLvisR5oQEvvfegFXyMgqwxu6g5JEwuTIupHnkgXcbo3uNwyxEpnonmt/Ivi/1nLfhirQIeZ+6d9/KlZ/31LaUkL7XtFQ==);strokeColor=none;points=[[0.5,0,0],[0.5,0.5,0],[0,0.5,0],[0.5,1,0],[1,0.5,0],[0.15,0.85,0],[0.85,0.85,0],[0.85,0.15,0],[0.15,0.15,0]];labelBackgroundColor=none;rounded=0;html=1;whiteSpace=wrap;" parent="1" vertex="1">
            <mxGeometry x="-21.720000000000027" y="288.5" width="35" height="35" as="geometry" />
          </mxCell>
        </UserObject>
        <mxCell id="195" value="&lt;div style=&quot;font-size: 1px&quot;&gt;&lt;font style=&quot;font-size:15.52px;font-family:Segoe UI;color:#ffffff;direction:ltr;letter-spacing:0px;line-height:120%;opacity:1&quot;&gt;&lt;b&gt;4&lt;br&gt;&lt;/b&gt;&lt;/font&gt;&lt;/div&gt;" style="text;vsdxID=1215;fillColor=none;gradientColor=none;strokeColor=none;points=[[0.5,0,0],[0.5,0.5,0],[0,0.5,0],[0.5,1,0],[1,0.5,0],[0.15,0.85,0],[0.85,0.85,0],[0.85,0.15,0],[0.15,0.15,0]];labelBackgroundColor=none;rounded=0;html=1;whiteSpace=wrap;verticalAlign=middle;align=center;overflow=width;;html=1;" parent="194" vertex="1">
          <mxGeometry x="1.9400000000000002" y="2.33" width="31.12" height="26.67" as="geometry" />
        </mxCell>
        <mxCell id="215" parent="1" vertex="1">
          <mxGeometry x="-7" y="494.5" as="geometry" />
        </mxCell>
        <mxCell id="217" parent="1" vertex="1">
          <mxGeometry x="221" y="219.5" as="geometry" />
        </mxCell>
        <UserObject label="" tags="Vehicles Connector Common_Icons Media Container" id="230">
          <mxCell parent="1" vertex="1" visible="0">
            <mxGeometry as="geometry" />
          </mxCell>
        </UserObject>
        <UserObject label="" tags="Tło" id="bNFybD1ttjROPPk29QS4-230">
          <mxCell style="vsdxID=13;fillColor=none;gradientColor=none;strokeColor=none;spacingTop=-3;spacingBottom=-3;spacingLeft=-3;spacingRight=-3;points=[[0.5,1.73,0],[0.5,0,0],[0,0.5,0],[1,0.5,0]];labelBackgroundColor=none;rounded=0;html=1;whiteSpace=wrap;" parent="1" vertex="1">
            <mxGeometry x="-301" y="352.5" width="79" height="155" as="geometry" />
          </mxCell>
        </UserObject>
        <mxCell id="bNFybD1ttjROPPk29QS4-231" style="vsdxID=14;fillColor=#ff3621;gradientColor=none;shape=stencil(lZXZboMwEEW/hter8Y6f0/Q/IoUUVAoRodvf19TqYlOm5s3LmdH1HdtTqcOtPV2bStJtnsbH5rU7z22l7iopu6Ftpm4Oo0odK3W4jFPzMI3PwznOr6eFXEZP48uS4S3G0RIh6T3OpAXZz5X7CPfdsA17kNuGTUobAyG2aa9hTRKgBGq1J0ALSF2sx37H/0lLGJnK8XAMT7kUKoaNZ03PdNcGtMsWG3xkbFkHOAFRXtcQb/wOH62HZfg0uSP4uhjWoPL6C6Jt9muzMHWOm/CMuLvuoFPLjYaTxdJdsJCjoVQuZw+uLfwOMQRiSpRbozUEkzzHw4ekuMu7cjIch3t5mXjt4Zmn52BTa8KKK79ihv1hag2fJleoOd7BZ2eVkIz6dYAIfxhTq0w+8z7+6Rph8NNvLl3fx3b1ez/vT2Ep9jZ1/AA=);strokeColor=none;spacingTop=-3;spacingBottom=-3;spacingLeft=-3;spacingRight=-3;points=[[0.5,1.3,0],[0.5,0,0],[0,0.5,0],[1,0.5,0]];labelBackgroundColor=none;rounded=0;html=1;whiteSpace=wrap;" parent="bNFybD1ttjROPPk29QS4-230" vertex="1">
          <mxGeometry width="50" height="50" as="geometry" />
        </mxCell>
        <UserObject label="" tags="Tło" id="bNFybD1ttjROPPk29QS4-233">
          <mxCell style="vsdxID=13;fillColor=none;gradientColor=none;strokeColor=none;spacingTop=-3;spacingBottom=-3;spacingLeft=-3;spacingRight=-3;points=[[0.5,1.73,0],[0.5,0,0],[0,0.5,0],[1,0.5,0]];labelBackgroundColor=none;rounded=0;html=1;whiteSpace=wrap;" parent="1" vertex="1">
            <mxGeometry x="65.5" y="228.5" width="50" height="50" as="geometry" />
          </mxCell>
        </UserObject>
        <mxCell id="bNFybD1ttjROPPk29QS4-234" style="vsdxID=14;fillColor=#ff3621;gradientColor=none;shape=stencil(lZXZboMwEEW/hter8Y6f0/Q/IoUUVAoRodvf19TqYlOm5s3LmdH1HdtTqcOtPV2bStJtnsbH5rU7z22l7iopu6Ftpm4Oo0odK3W4jFPzMI3PwznOr6eFXEZP48uS4S3G0RIh6T3OpAXZz5X7CPfdsA17kNuGTUobAyG2aa9hTRKgBGq1J0ALSF2sx37H/0lLGJnK8XAMT7kUKoaNZ03PdNcGtMsWG3xkbFkHOAFRXtcQb/wOH62HZfg0uSP4uhjWoPL6C6Jt9muzMHWOm/CMuLvuoFPLjYaTxdJdsJCjoVQuZw+uLfwOMQRiSpRbozUEkzzHw4ekuMu7cjIch3t5mXjt4Zmn52BTa8KKK79ihv1hag2fJleoOd7BZ2eVkIz6dYAIfxhTq0w+8z7+6Rph8NNvLl3fx3b1ez/vT2Ep9jZ1/AA=);strokeColor=none;spacingTop=-3;spacingBottom=-3;spacingLeft=-3;spacingRight=-3;points=[[0.5,1.3,0],[0.5,0,0],[0,0.5,0],[1,0.5,0]];labelBackgroundColor=none;rounded=0;html=1;whiteSpace=wrap;" parent="bNFybD1ttjROPPk29QS4-233" vertex="1">
          <mxGeometry width="50" height="50" as="geometry" />
        </mxCell>
        <mxCell id="bNFybD1ttjROPPk29QS4-235" value="&lt;div style=&quot;font-size: 1px&quot;&gt;&lt;font style=&quot;font-size:15.52px;font-family:Segoe UI;color:#000000;direction:ltr;letter-spacing:0px;line-height:120%;opacity:1&quot;&gt;&lt;br&gt;&lt;/font&gt;&lt;/div&gt;" style="text;vsdxID=13;fillColor=none;gradientColor=none;strokeColor=none;spacingTop=-3;spacingBottom=-3;spacingLeft=-3;spacingRight=-3;points=[[0.5,1.73,0],[0.5,0,0],[0,0.5,0],[1,0.5,0]];labelBackgroundColor=none;rounded=0;html=1;whiteSpace=wrap;verticalAlign=middle;align=center;overflow=width;;html=1;" parent="bNFybD1ttjROPPk29QS4-233" vertex="1">
          <mxGeometry x="-25.4" y="50" width="101.6" height="37.26" as="geometry" />
        </mxCell>
        <mxCell id="bNFybD1ttjROPPk29QS4-252" style="vsdxID=2303;fillColor=none;gradientColor=none;strokeColor=none;spacingTop=-3;spacingBottom=-3;spacingLeft=-3;spacingRight=-3;points=[];labelBackgroundColor=none;rounded=0;html=1;whiteSpace=wrap;" parent="1" vertex="1">
          <mxGeometry x="-740" y="228.5" width="33" height="25" as="geometry" />
        </mxCell>
        <mxCell id="bNFybD1ttjROPPk29QS4-253" style="vsdxID=2304;fillColor=#000000;gradientColor=none;shape=stencil(lVnZctswDPwav3J4H89p+h+ZidN4miZpjtb5+0K1xGMhkdabo0AQuNhdgtLB3Lw/3r0eD1q+f7y9/Dz+Pd1/PB7Mt4PWp+fH49vpg34dzO3B3Dy8vB1/vL18Pt9f/n69myKnX79e/kwZzpf7VBJhuknLr8uFIFT8f+H7Jfz35939FK7meCO8nm9YLjkR5hxnPV+SwsQ5ar6kvYiqk5iea9u8Jojo2rxV0HzFyV05vRbKDWsNRqi0D4RohTaQuEA7X0laRF3nfTo9172wJe1SW395LkEVSSTVVmFESLC6IKTrpJUAGa2sTSkP17cAkhkn4qg+rUXq1ceXTS2UCcCvsGzKXkd+pIKd4a3GoisMWykFlkcksWq4vuSFVvtwW8jUaUYJuaa3LCGnykqZI/qtrH+F1jWmUPxqyyKpvGkB0yKUEX15wLbGqTLn95kHPTi4oStN5e1oRRW+7Z5ULGpi5MqEggULXbH7Ctxi1B39DASxK7iVmtHCqCZY97imY3Gf5RJxDZZHIIFFmQzLRl5osNUC9JsjrukupnME76hEbxZmXr30QDYD/K7xXFrbANr2ivqul6Rz97To8Ys8ayFTroL4hauTrAofhDU9byL6e0At8b2/irrK8XhWK0Uyw3IJR98lIsdBW2GQiBW8ZQWN2bT9GMlhX3QrtaBzn77Wa8F9O2T7rNaoQRiBTArVpoULPZPSbM6jrjD30/uGx5WsxCAZhuUSNU13fuE4EOc9kKiGt1rBdvfosb7VXuhWocrOvK1/2swkONXIWIIVEYyF+xUFpV2TfBW/6anTzgvMGfj0BALoecX/a2Rb+15txFgYe+Nb4TnZBFPB3S3cEU58jREa4pxwMBsYJUxPzy7mqTQPHZqDJ1lTyOB71j1NQ8BME4WFZhMNFRyvbL5xI7FlwrNUi4XElplsl5p1/IKMXcafXrmkim7jCAeJg6LK49g2vlNBPbukvinMGzLkNSFgAvVR+C7TyCy4pbDEcMSYQno0s3ResDwr0MFaYXeWa1U+VVQ4sAkosclqgO80eQMhqG8Oz+U0ecPQ7PKNG4kdGxKIaYuBnSt5ASO6/K3jiyrms1Gv3Elu3XLDch6tdeywXIbvyB+obxHz6gx5TYidhmZpiOanAUyM/GX+27r7yK273u7zwX9DcYVXmWr8XQHtAPiOhSYZ05WyzZPOV7ENB6Qgj5CAsRu8P6RbEiYmtoGpOc/Mh8wl9bZyerCGvMU/z1V1e8YOx98gkh3FMKyWqCR7QxLdInErIikjDIQvJtbdGXvaeTCvYppbIQQNzH7ANIuiS9kStrRh8oubDcWVfb3Kiu96CHJ8iTQqlxwscRwsbMoEeeL4dl8L0S0rjVMAsDXMfEaMsOwNji3+ea6q23NereOLKpQZVjtSG92yIuOAMBC+K/7Q71vkvoMzzwohRoZGTHM49Mg8km3xl/lv19tZNP0o310eTk9Pl8829f/xOw1dunzjMbf/AA==);strokeColor=none;spacingTop=-3;spacingBottom=-3;spacingLeft=-3;spacingRight=-3;points=[];labelBackgroundColor=none;rounded=0;html=1;whiteSpace=wrap;" parent="bNFybD1ttjROPPk29QS4-252" vertex="1">
          <mxGeometry width="33" height="25" as="geometry" />
        </mxCell>
        <mxCell id="bNFybD1ttjROPPk29QS4-250" style="vsdxID=2301;fillColor=none;gradientColor=none;strokeColor=none;spacingTop=-3;spacingBottom=-3;spacingLeft=-3;spacingRight=-3;points=[];labelBackgroundColor=none;rounded=0;html=1;whiteSpace=wrap;" parent="1" vertex="1">
          <mxGeometry x="-690" y="225.5" width="57" height="248.5" as="geometry" />
        </mxCell>
        <mxCell id="bNFybD1ttjROPPk29QS4-251" style="vsdxID=2302;fillColor=#212121;gradientColor=none;shape=stencil(lVXLcsIwDPyaXDW2FL/OtP0PpkDJlAIToIW/r9I4ceRASG9G7Ma71souaHHaLo/rAtXpXB8+1z/V6rwt6KVArPbbdV2deVXQa0GLzaFef9SHy37V/j4uG2Sz+jp8N1+4tjxCIGxYqG5tBTU4+1d5awm7aj8glB5cKQjBgAtDwvulbrfQkRLAdnvEUggdR12xLZmyL91iSSsVMRQxBoKJmFgKFpR/LNchoJRbalBmgmBAO0EwCKWZ8seU3B+bQS39OQda2mM3JUqDjk/XS4MJdVcv+0cj9eaEXG/wqed6LCU//F4ugZVqE6TTqoEmjyoxUjaycxqqi6XSATq59dA25ai7B+V16tIsgrN9w+JkPAt6kx1pj4cpi7lToKy0xyAv3VkPAaU73tyWj8VySIMQ63jCJswRmyN5GqD9lDkygFlqkpXOHQbwmbtshNEnRNc4UOGxUu27TM3sG4F7gh+lEqyXzoaJkz76TKbgkgTMnYVsEgbjhSNZj2+Mgdt5FwZ/FmXnn14YyOGiTO34wuA+dqVbutN1Fm1G5f3n7NJEAP79RM0g8CK9iJtqt2sf1OH/+QvKpfb1pddf);strokeColor=none;spacingTop=-3;spacingBottom=-3;spacingLeft=-3;spacingRight=-3;points=[];labelBackgroundColor=none;rounded=0;html=1;whiteSpace=wrap;" parent="bNFybD1ttjROPPk29QS4-250" vertex="1">
          <mxGeometry width="39" height="32.064516129032256" as="geometry" />
        </mxCell>
        <mxCell id="bNFybD1ttjROPPk29QS4-254" value="&lt;div style=&quot;font-size: 1px&quot;&gt;&lt;p style=&quot;text-align:center;margin-left:0;margin-right:0;margin-top:0px;margin-bottom:0px;text-indent:0;vertical-align:middle;direction:ltr;&quot;&gt;&lt;font style=&quot;font-size:12.7px;font-family:Segoe UI;color:#000000;direction:ltr;letter-spacing:0px;line-height:120%;opacity:1&quot;&gt;Big Data Streams&lt;/font&gt;&lt;font style=&quot;font-size:12.7px;font-family:Segoe UI;color:#4672c4;direction:ltr;letter-spacing:0px;line-height:120%;opacity:1&quot;&gt;&lt;br/&gt;&lt;/font&gt;&lt;/p&gt;&lt;/div&gt;" style="verticalAlign=middle;align=center;overflow=width;vsdxID=2305;fillColor=none;gradientColor=none;shape=stencil(nZBLDoAgDERP0z3SIyjew0SURgSD+Lu9kMZoXLhwN9O+tukAlrNpJg1SzDH4QW/URgNYgZTkjA4UkwJUgGXng+6DX1zLfmoymdXo17xh5zmRJ6Q42BWCfc2oJfdAr+Yv+AP9Cb7OJ3H/2JG1HNGz/84klThPVCc=);strokeColor=none;points=[];labelBackgroundColor=none;rounded=0;html=1;whiteSpace=wrap;" parent="1" vertex="1">
          <mxGeometry x="-799" y="261.5" width="198" height="29" as="geometry" />
        </mxCell>
        <mxCell id="bNFybD1ttjROPPk29QS4-248" style="vsdxID=2299;fillColor=none;gradientColor=none;strokeColor=none;spacingTop=-3;spacingBottom=-3;spacingLeft=-3;spacingRight=-3;points=[];labelBackgroundColor=none;rounded=0;html=1;whiteSpace=wrap;" parent="1" vertex="1">
          <mxGeometry x="-750" y="347" width="37" height="39" as="geometry" />
        </mxCell>
        <mxCell id="bNFybD1ttjROPPk29QS4-249" style="vsdxID=2300;fillColor=#000000;gradientColor=none;shape=stencil(lVzbkt02DvyaeWWJd+o5m/yHq+zEU+u1s46zO/77QDUjEuqmwDlv42MJB8KlATSo8xR/+evzhz8/PYXtrx/fv/370/+fP/74/BT/9RTC89fPn74//5C/nuKvT/GX3799//TH929/f/34+u8/PxxXHn/959v/Dgkvr/e16vJxU9h+vn6Qoquvn/z2ev1///7w8bjev/7/vrltf7vD4y3bS3i7KrgY3656+yglV6MlOLncQHB2FeQWFxPIrS55S25zHsTuzgeQu7stXOVm72K15O5uz1fBObrir4L9toHY4oJl33HDKbS5lpbaFu+2ZlthA21L7D4yzFvy6e9bt5UIgotrk3hoILi6atp3cz6B4IbxoMI3jGss+zZ5nsJiQd8W3O5J32bp2zZXUXBx+34VXHeHcrNLlueqxDfaIbq9gFzxHIeEqXDNLlzl5v10yZCbR9ycEVzPr3qT++X5q0KUw6+n3B7yVoKKlTIm0u4SKFKSCwUeMDhfLMG+m6lbLlEySX7VHQR3jeZP6F25PuGw0q0mb67ommDEycNs8HxmHMv1oSxF5kckZkJ2klgJ1uXRdyt8y06wLrG6g+DqCXhqc8Xybo2I65KBEcM3EVJKapdgyU2E602iBvMNLNuB6C7XrhJVFTVUHVX01gQI6qqKGrYdOH/rNAT1UUZ1MACmj8J0G2KI6aqM3sftWRTnUgUtdgiFXkVfBmiV+piyWYA5kBE2UPao+eUx60pnAXmmimiXu515dQkHK9XkFgqHUUSH4IciN0M7IrkQIMDkeTIUteZdsroGsdoGASb5XiHCxAMVBF9bhisu5+DaabJe2bNVeuQO8LDcUejpEhYeuci22dnqGq0L+mHVuEgznD0LhXBMfhTTUc1MwbE6rpIoNw4IvG05r94IaTivK+ItbwRsUKXzgawID3Z7KFJhYRfJuCu4mq1EC4y7UgYb6jqpaZJrVlp4xl1pGCP4wjPwSukLVq/nGXglRQPIJdw9rjGHQQLecceoP4S8K20ZeA8rQEAS7C6Ni6h7+AygjEFXYqFYNZgx94gxqO0PpjpA7pE3ZaXnMRNY1cxTV3O0sXVl1FFb71wVobGVftpzBECGSTkOJhkw0OYUWzACOFyXs3U+v1WLxXiV9CqN1DW5APHHySgoM4DcwwVghrKZg0YMJ8L2USqfg9ENlo/064qEXoy6m9VV12r0bqlJRiSUGvrQ1rmZ6KIVPVECDskk7oxjcRsAaYSmBewm7ogXu41PbhwoPgd8jIxkaLS4gMcQTmrKlCq6gd3iCs7rCKXzuwgh/YCNU25YQWRyYIXAGOnjSVgMuQuQPFIVAigwSnJC+wVQqjs8PbShr1+BpdgBBTNaTgy8QEtfiQdgtNRg0gHUREuJs4gtHEYDdU6L0O2RokRS5O696XmnphrRugGgDRFQaDiv2maNGTtYPygahSIZzCphYDJkgjIUBr2HHYKJg1yFrbpjeBBBL7sNZp/DA5eovaKeIGcPrm5JM92TfCuEowLxPlJkYt4ExZrVICd5QPCI3EIT7mNomhO1WhM0nQz68kyt3Nut5HFHz8BmMmVpJP7o3HHQVvz6z4EYu+WQwnjGhOWEHgnmCM9SR9+ulEWQ7Ia8NQImx+jbu1iGyGjTeoUh0mNuVEbIzWYhKyPkRlQOcnpWS1QZH4FxqgyOCyUbg6MncqwxOi4s2ggdM/GkjcGx2jRpY2zciSXl9cwiVBsho8/UD06U9dVmSsUG2ID4nZjSiW3HEH/rMw8jRYjIlB6hgB1TssnHyg1pSEybg3VN/JQcwBGQRvXN7aSnuewJw2K9zJokpUbbE8X3XuoUt+xBEylW2XLxYNjUjLIhdg7GrMvtBPT0CasIuVaH7M9+/cbOxTXeOGeMiUojfGpnDbkRvPdeUT1ixSDeaIiXCr7AHY+bdyk7AOVHcqBLkgtWOWPkmRwVYIygIwhXj6yPLFyPONTr1YvG9+B7wBjc+EoqZWRDXTV952mL21tlnX4FifRzK3i7qKnUTzfAS7koAKz5bSGXkkk6alR3kkyrTkTdccqNFGkzfQX7FgsrZNyl19pwabeR2+SqZoWwIvO64LHgNuJBZoCwWF+Sxs3h6u7BwUKfAvB4i4aehPZdaduoofeVDwvsw1iq4zXr53bONNaIpc9WvDMiWp83VKShwo2JsFWDwlSYZIZnDCZ9Fxk3OHGVyXsiA6Pnmr1TObboUIwqLfAmAbGCs0LaFpzjMXgReKHO2ih9hXTF+1zuvmFdBsTcHWwY0TT632TvDhW+dKljlfRC+KI3Ct4k4dQBGh5fXihjh2C/ENzxpcvdWGEG9dW6wjOqT1Z3E4VlOjTpYQUxXXDujeELQcwQnE573frO4y41EqE9CQrpd80BXmFMFxz6oHRPdBYbdRTEKLEodaMTRCt1B8IoMyQEs2ErZV4TdDrCaLdhK34izLvDodCyvpKyhQB9Fb2FAP3ICjx9Rsqukq3SqulIYqxrfOYr2jPA6O662NhJPCMSlmjmWd9MDAkHrtWoL1D6Cum6NXx7VPtgyqSXbIUqcWHUGSdAbxkozGGZfbAUF0YducqsxYVRR0YvLMaFUUeaDrMaF0Yd3u4zbbja7hdGncl6v3CwrfTNjDuHIZAfZuARC5uuy4w8amztgjmbVzGRCXsk1khhBp/V4SoGn9ZoHprpu9vdb2b42T3NQ5nxR64y56HMALQHmocmMbFHe8IoDEByC+YGxfC+eF2hcO+3Mwcxybmlvtz+HYbAusHtn1jYHmW5/ZNbcCKa4doiJgq1fxJrpDC3fxjDwAAucRtad7p+ueRloA9coT2TBmHVDzNpELhGByYNwqJIByYNAlfpwKRBWFTpwKRB4CqNIGQvepkyoDUvj4dLRZkvCDwcBeYLwmI4iswXBB6OIs/fq2CIxBcEHo4mB2eWu94JYcDD0URhv+iGIxMGnoejwIyBXwxHgSkDz8PRJCj8YtoITBp4Ho4eJGQC87WeRqNJqi2VZcLW82wUmLH1i+HIM2XreTqawNkqIDxztjwfTcZ7imDo4teAfUX4vteHmn3TUAQ+aEL+y4l2qdIvvC0BbzsgXKaO03a6A8KN3/jopoxutE6tfQf4QtoNuck+M6F4AnV0r+DYwYcerTU1r/7H65KWsinbOy5lyi449DNphnWTt9/ZUrZU60F8hSHRPjU2+y06Zcout3I44JEUu31XttRCrzKHKd+trDKlNgIK9nS2YmXdYUrltQZ9ydDuEg5WsilTqjijqkybPvvUKZ0FUFhhKDvA4t4IKHiAhWHdFTIoW/4ksHghU74bypQpDVKR3icJVtu+AOnFS+ILTFcz7D2mj3FFq7yZr3J7fnd3YNcpeIyw+px1MV9iDjRzZT7NMkZCHRK24Igzl4QaKRypJq9OsutbTsEyw+Lr3BOF43k44d4SeKA/9EPaysTou+zhkB37DskvuWUDjSdBkTf7VTI1xKrjFnRs6jHsUUxi1xbOd+kXyd+raiTeS73mpw5aIO91GNfymqIRjd5h0HLvDodBI+owQ4UnrxMs4neyRj0Sg9ezpPAi4RSPqDMZeffIq5LttNet75D4EuzBs7KToFiBmiISNVgu49fG9yVkyx/jN0F+f/7y5fUnRfT/42+IyEevvz8Sf/0H);strokeColor=none;spacingTop=-3;spacingBottom=-3;spacingLeft=-3;spacingRight=-3;points=[];labelBackgroundColor=none;rounded=0;html=1;whiteSpace=wrap;" parent="bNFybD1ttjROPPk29QS4-248" vertex="1">
          <mxGeometry width="37" height="39" as="geometry" />
        </mxCell>
        <mxCell id="bNFybD1ttjROPPk29QS4-246" style="vsdxID=2297;fillColor=none;gradientColor=none;strokeColor=none;spacingTop=-3;spacingBottom=-3;spacingLeft=-3;spacingRight=-3;points=[];labelBackgroundColor=none;rounded=0;html=1;whiteSpace=wrap;" parent="1" vertex="1">
          <mxGeometry x="-690" y="338" width="31" height="46" as="geometry" />
        </mxCell>
        <mxCell id="bNFybD1ttjROPPk29QS4-247" style="vsdxID=2298;fillColor=#000000;gradientColor=none;shape=stencil(pVfbchshDP2afdUAYgU8p8l/eMZO7alrp47TJn8fbffiRWRFdvy2xtJBOkdI0ODD637zsmuceb1ezr92/w7b677BH41zh9N+dzlc+avBxwYfns+X3c/L+e207X+/bDrL7uv3+W+H8N77tRA7H2c++t8eIbT/V5568+PhNDNPHtxd9taYZWsZzCrjSiRV85wX64F85pB0/NgC0n0OrZJtGc8660ow33DI+fEWbB59tOA0/iNEf6dDAMX+i4jW2usBfcMh56ijUBR0AuPnDn/eNtvOwQ6AHtKY87Bk3UTDu+uXAgKlwWpYStAGBZcceMxxCTBHHeppgiSRm4DEMG45gxw8JsxuF1tE6hRY24KhgoGQclzeyeWwBbO5dmNut2rXcmMVRGqWtRd8WQMh5EFE0MS1VDDWApFgzEHCHBUhWgWWGXVRRAtJCIEEVjBmIEWNAw5ECGH0gjEKWhtGeZbQaEpzHiEqmMFAWyQeBZ9SIj6SpB1ALA5KqVFkxoVGuvKJi1qgfllQgtCiTMVsrbeX1Q55A+v6W+7gAkStaoaRMaXJfHvRvYggiVJk3UzSqmc2Ckb+4jieFuvxZrJQ4bN+voyKCCauC9fVSeg2kiRIasWEdjDC3lDVKExZdHHKeOo3CUjUMrdg1M4dzsrfyuAWxXCgaUHcTGuQfN5XRhoSpCoD0y3hpoRkVlzc6qditUN+7lyuNDpAbWaiKZorN6Qg8uQR4EkkSqBVEI+AKPjjbmgqSqu3Bp4D1kpI0R8QWl/EGbWuTamYVR0BVtSPkLmgNVeNouyWzGDQdKDy7oJ+6h5Tfqa4vHAkpF3fWq5zIQTa4rIlhUB5O5Xy8niJVVQ+7bEkTg0XmQdb5aHbS/IgCc4VqR2Lddb8cXsUPx+Ox/5NPf9fPqJ5qX+A4+Mn);strokeColor=none;spacingTop=-3;spacingBottom=-3;spacingLeft=-3;spacingRight=-3;points=[];labelBackgroundColor=none;rounded=0;html=1;whiteSpace=wrap;" parent="bNFybD1ttjROPPk29QS4-246" vertex="1">
          <mxGeometry width="31" height="46" as="geometry" />
        </mxCell>
        <mxCell id="bNFybD1ttjROPPk29QS4-245" value="&lt;div style=&quot;font-size: 1px&quot;&gt;&lt;p style=&quot;text-align:center;margin-left:0;margin-right:0;margin-top:0px;margin-bottom:0px;text-indent:0;vertical-align:middle;direction:ltr;&quot;&gt;&lt;font style=&quot;font-size:12.7px;font-family:Segoe UI;color:#000000;direction:ltr;letter-spacing:0px;line-height:120%;opacity:1&quot;&gt;IoT Devices&lt;/font&gt;&lt;font style=&quot;font-size:12.7px;font-family:Segoe UI;color:#4672c4;direction:ltr;letter-spacing:0px;line-height:120%;opacity:1&quot;&gt;&lt;br/&gt;&lt;/font&gt;&lt;/p&gt;&lt;/div&gt;" style="verticalAlign=middle;align=center;overflow=width;vsdxID=2296;fillColor=none;gradientColor=none;shape=stencil(nZBLDoAgDERP0z3SIyjew0SURgSD+Lu9kMZoXLhwN9O+tukAlrNpJg1SzDH4QW/URgNYgZTkjA4UkwJUgGXng+6DX1zLfmoymdXo17xh5zmRJ6Q42BWCfc2oJfdAr+Yv+AP9Cb7OJ3H/2JG1HNGz/84klThPVCc=);strokeColor=none;points=[];labelBackgroundColor=none;rounded=0;html=1;whiteSpace=wrap;" parent="1" vertex="1">
          <mxGeometry x="-800" y="388" width="198" height="29" as="geometry" />
        </mxCell>
        <mxCell id="bNFybD1ttjROPPk29QS4-255" value="&lt;div style=&quot;font-size: 1px&quot;&gt;&lt;font style=&quot;font-size:16.93px;font-family:Segoe UI;color:#000000;direction:ltr;letter-spacing:0px;line-height:120%;opacity:1&quot;&gt;&lt;b&gt;Streaming&lt;br/&gt;&lt;/b&gt;&lt;/font&gt;&lt;/div&gt;" style="verticalAlign=middle;align=center;overflow=width;vsdxID=2306;fillColor=none;gradientColor=none;shape=stencil(nZBLDoAgDERP0z3SIyjew0SURgSD+Lu9kMZoXLhwN9O+tukAlrNpJg1SzDH4QW/URgNYgZTkjA4UkwJUgGXng+6DX1zLfmoymdXo17xh5zmRJ6Q42BWCfc2oJfdAr+Yv+AP9Cb7OJ3H/2JG1HNGz/84klThPVCc=);strokeColor=none;points=[];labelBackgroundColor=none;rounded=0;html=1;whiteSpace=wrap;" parent="1" vertex="1">
          <mxGeometry x="-795.75" y="169.5" width="199" height="27" as="geometry" />
        </mxCell>
        <UserObject label="" tags="Tło" id="bNFybD1ttjROPPk29QS4-279">
          <mxCell style="vsdxID=1111;fillColor=none;gradientColor=none;strokeColor=none;points=[];labelBackgroundColor=none;rounded=0;html=1;whiteSpace=wrap;" parent="1" vertex="1">
            <mxGeometry x="-513" y="270.5" width="106" height="106" as="geometry" />
          </mxCell>
        </UserObject>
        <mxCell id="bNFybD1ttjROPPk29QS4-281" style="vsdxID=15;fillColor=none;gradientColor=none;strokeColor=none;spacingTop=-3;spacingBottom=-3;spacingLeft=-3;spacingRight=-3;points=[[0.5,1.76,0],[0.5,0,0],[0,0.5,0],[1,0.5,0]];labelBackgroundColor=none;rounded=0;html=1;whiteSpace=wrap;" parent="bNFybD1ttjROPPk29QS4-279" vertex="1">
          <mxGeometry x="29" y="14" width="48" height="48" as="geometry" />
        </mxCell>
        <mxCell id="bNFybD1ttjROPPk29QS4-282" style="vsdxID=16;fillColor=#76bc2d;gradientColor=none;shape=stencil(xVbbcoIwEP0aHtnJHfJs7X9katBMKTiBVv37QiNKoAxFbXwLu4dszmazZyO6qnZqryOCqtqW7/pgNvUuoi8RIabYaWvqZhXRdURXWWn11pafxcZ971WLbFcf5Ve7w9H9xzCQ9ieCTs5AGRD5Y3l1eGXfGq/t8ICxw9tTZ5HMWc4QmgDzt5TA6BkSq6OpYlvWqjZl4fzI+XJltzpuwsVZrraeqzpove+Zcf+AuSn6hICkE9GnCJERIeERQsMEpSIUGz80B8wWMuH+1YCfGxSKBxUg6S+hbyUyKlsGPAlWYrNvZinef5MY+dcuGND0rnRJMTiBkMBJqHwJCiiZCP/3JuMz4umglEUP8u+MRtEpn2syc11TEBD+lqgrkgCEJIeETIS/ldGwjIM2ztk3tBA+o5rywu1hqnk50hM0s4t9a7/xkyl5QP0f3GNT1/guKkPJFCig0oxl8xr+YdIpLmPFM7Rz9HKW4pvFdbjNTJ672bjvHw7DjckN0nT9DQ==);strokeColor=none;spacingTop=-3;spacingBottom=-3;spacingLeft=-3;spacingRight=-3;points=[[0.5,1.31,0],[0.5,0,0],[0,0.5,0],[1,0.5,0]];labelBackgroundColor=none;rounded=0;html=1;whiteSpace=wrap;" parent="bNFybD1ttjROPPk29QS4-281" vertex="1">
          <mxGeometry x="22" y="16" width="18" height="16" as="geometry" />
        </mxCell>
        <mxCell id="bNFybD1ttjROPPk29QS4-283" style="vsdxID=17;fillColor=#86d633;gradientColor=none;shape=stencil(vVPBbsMgDP0ajkFg2iycu+4/UEsSNBYih67p348MlgXUbdIOvRn72c/P2EQcpl6NmgCbPLpXfTVn3xPxTADM0Gs0PlhEHIk4tA51h+4ynON7VAtysd7c+1JhjnmcsSUH2C2+mydaw6fnJcIVnkIUE1zSnYh4TAmcUxk9XxBOBWQ1V465UrOZKnReeeOGGE0xq7DTVWCrWqu6LDRdtR43br7tz5ohk0O5vEv+g5yGF3KAiibTU8xHUrZ/lJqcep30v6WE3uus5MP+JayVhDvUCXy6YFxKnhqtKaQ9u/G8VSj3Njn2FHYJIkqIWAfS1L/tzh+nEIzvM2qNtfEKt/Hy7IIrnqw4fgA=);strokeColor=none;spacingTop=-3;spacingBottom=-3;spacingLeft=-3;spacingRight=-3;points=[[0.5,1.31,0],[0.5,0,0],[0,0.5,0],[1,0.5,0]];labelBackgroundColor=none;rounded=0;html=1;whiteSpace=wrap;" parent="bNFybD1ttjROPPk29QS4-281" vertex="1">
          <mxGeometry x="11" y="11" width="7" height="6" as="geometry" />
        </mxCell>
        <mxCell id="bNFybD1ttjROPPk29QS4-284" style="vsdxID=18;fillColor=#76bc2d;gradientColor=none;shape=stencil(xVXbkoMgDP0aHmW4uCjP3fY/mBaVWVc6aLft3y8u2AqtddqdqW+QHJKcmGMAXbWV2EtAUNsZ/SWPatdVgH4CQlRTSaM6ewJ0Deiq0EaWRh+anbvvRY/sT9/6p49wcu8wQv0bgs7uTlOYkT/LxsGF2Vqv8XAOU+rwxj+44IeIHENKwpgc5thjEnFSbWJ0JzqlG+f3FdTClDKx+ZKiFmXgao9S7kdmPK6wVk1ACGI+kX6C0lDclRIPGE116A1swtS2sGeJ4IAJh4gFEdG7iOQZ5OROag/eHoybSuwLZZD4QTvjsFQSD643EIhyD6ExhN7vXzw5M1J4rBw+93VeUM4lxxK6GZK/OmxRez5gmi0jG/b/LxPrhi0oHPascticdBiG+fDLm9LOTRMfi+dGDfZw3UGFqmu3wsb+eGdZk9t3dP0L);strokeColor=none;spacingTop=-3;spacingBottom=-3;spacingLeft=-3;spacingRight=-3;points=[[0.5,1.31,0],[0.5,0,0],[0,0.5,0],[1,0.5,0]];labelBackgroundColor=none;rounded=0;html=1;whiteSpace=wrap;" parent="bNFybD1ttjROPPk29QS4-281" vertex="1">
          <mxGeometry x="11" y="21" width="7" height="17" as="geometry" />
        </mxCell>
        <mxCell id="bNFybD1ttjROPPk29QS4-285" style="vsdxID=19;fillColor=none;gradientColor=none;strokeColor=none;spacingTop=-3;spacingBottom=-3;spacingLeft=-3;spacingRight=-3;points=[[0.5,1.31,0],[0.5,0,0],[0,0.5,0],[1,0.5,0]];labelBackgroundColor=none;rounded=0;html=1;whiteSpace=wrap;" parent="bNFybD1ttjROPPk29QS4-281" vertex="1">
          <mxGeometry width="5" height="12" as="geometry" />
        </mxCell>
        <mxCell id="bNFybD1ttjROPPk29QS4-286" style="vsdxID=20;fillColor=#999999;gradientColor=none;shape=stencil(vVPLDsIgEPwajiUUaNVz1f8gSlsilmaLWv9ekKrURJv00Ns+ZpkdMotY0dWilYiSzoI5yZs62hqxLaJUNbUEZV2E2A6xojQgKzCX5hjyVnikj87m6l/owxwjOM/8FCX3UCHPbB/AWjUROCVkLnRDccZjuICD68ILnuFsEwZgmFhhnofKgFlzzNPRo2+SPhG96hIwVlhlmng7ogVUMnF0SalFNWp1NynbqJz+0fNZ8It8tp5fH7SAmjG1W5bT31q8RfhYS8rfrpnw0QJiJizsgo/5S6V1uJ24/30srhQOje0e);strokeColor=none;spacingTop=-3;spacingBottom=-3;spacingLeft=-3;spacingRight=-3;points=[[0.5,1.31,0],[0.5,0,0],[0,0.5,0],[1,0.5,0]];labelBackgroundColor=none;rounded=0;html=1;whiteSpace=wrap;" parent="bNFybD1ttjROPPk29QS4-285" vertex="1">
          <mxGeometry width="5" height="12" as="geometry" />
        </mxCell>
        <mxCell id="bNFybD1ttjROPPk29QS4-287" style="vsdxID=21;fillColor=#999999;gradientColor=none;fillOpacity=50;strokeOpacity=50;shape=stencil(vVPLDsIgEPwajiUUaNVz1f8gSlsilmaLWv9ekKrURJv00Ns+ZpkdMotY0dWilYiSzoI5yZs62hqxLaJUNbUEZV2E2A6xojQgKzCX5hjyVnikj87m6l/owxwjOM/8FCX3UCHPbB/AWjUROCVkLnRDccZjuICD68ILnuFsEwZgmFhhnofKgFlzzNPRo2+SPhG96hIwVlhlmng7ogVUMnF0SalFNWp1NynbqJz+0fNZ8It8tp5fH7SAmjG1W5bT31q8RfhYS8rfrpnw0QJiJizsgo/5S6V1uJ24/30srhQOje0e);strokeColor=none;spacingTop=-3;spacingBottom=-3;spacingLeft=-3;spacingRight=-3;points=[[0.5,1.31,0],[0.5,0,0],[0,0.5,0],[1,0.5,0]];labelBackgroundColor=none;rounded=0;html=1;whiteSpace=wrap;" parent="bNFybD1ttjROPPk29QS4-285" vertex="1">
          <mxGeometry width="5" height="12" as="geometry" />
        </mxCell>
        <mxCell id="bNFybD1ttjROPPk29QS4-288" style="vsdxID=22;fillColor=none;gradientColor=none;strokeColor=none;spacingTop=-3;spacingBottom=-3;spacingLeft=-3;spacingRight=-3;points=[[0.5,1.31,0],[0.5,0,0],[0,0.5,0],[1,0.5,0]];labelBackgroundColor=none;rounded=0;html=1;whiteSpace=wrap;" parent="bNFybD1ttjROPPk29QS4-281" vertex="1">
          <mxGeometry x="43" width="5" height="12" as="geometry" />
        </mxCell>
        <mxCell id="bNFybD1ttjROPPk29QS4-289" style="vsdxID=23;fillColor=#999999;gradientColor=none;shape=stencil(vZPLDoIwEEW/pkuaPkBk7eM/GinQWCkZquLfW2zVQoKJLtxN75zO5ZIO4pu+EZ1EjPQWzFFeVWkbxLeIMdU2EpR1FeI7xDeVAVmDObelP3diJMfqZC7jhMHfIzjj4yVGbkF4nPae1aqN2FWBM7YMCzi4DgSYE5yuPQyBpinOcy8FiBIymRcTiRhUn4CxwirTxn5EC6hl4vySSot60uqvUnaRTJfjzM0LhtNiORDNcEangfKXEph1+hzxSvQ0+UOe9wfOzH/Os/SD/pBmav3hVX7zgj+zrnivSaW09lsW9+dr5SS/knx3Bw==);strokeColor=none;spacingTop=-3;spacingBottom=-3;spacingLeft=-3;spacingRight=-3;points=[[0.5,1.31,0],[0.5,0,0],[0,0.5,0],[1,0.5,0]];labelBackgroundColor=none;rounded=0;html=1;whiteSpace=wrap;" parent="bNFybD1ttjROPPk29QS4-288" vertex="1">
          <mxGeometry width="5" height="12" as="geometry" />
        </mxCell>
        <mxCell id="bNFybD1ttjROPPk29QS4-290" style="vsdxID=24;fillColor=#999999;gradientColor=none;fillOpacity=50;strokeOpacity=50;shape=stencil(vZPLDoIwEEW/pkuaPkBk7eM/GinQWCkZquLfW2zVQoKJLtxN75zO5ZIO4pu+EZ1EjPQWzFFeVWkbxLeIMdU2EpR1FeI7xDeVAVmDObelP3diJMfqZC7jhMHfIzjj4yVGbkF4nPae1aqN2FWBM7YMCzi4DgSYE5yuPQyBpinOcy8FiBIymRcTiRhUn4CxwirTxn5EC6hl4vySSot60uqvUnaRTJfjzM0LhtNiORDNcEangfKXEph1+hzxSvQ0+UOe9wfOzH/Os/SD/pBmav3hVX7zgj+zrnivSaW09lsW9+dr5SS/knx3Bw==);strokeColor=none;spacingTop=-3;spacingBottom=-3;spacingLeft=-3;spacingRight=-3;points=[[0.5,1.31,0],[0.5,0,0],[0,0.5,0],[1,0.5,0]];labelBackgroundColor=none;rounded=0;html=1;whiteSpace=wrap;" parent="bNFybD1ttjROPPk29QS4-288" vertex="1">
          <mxGeometry width="5" height="12" as="geometry" />
        </mxCell>
        <mxCell id="bNFybD1ttjROPPk29QS4-291" style="vsdxID=25;fillColor=#949494;gradientColor=none;shape=stencil(vZLBDoIwDIafZkfIWKPGM+J7LDJgcW6kTIG3d3MaQUATDt7a/l/XNvsJpE3Fa0EYbSyas2hlbisCB8KY1JVAaV1EICOQFgZFieaq85DX3JM+upibf6ELfQmlvofRPuSQxMAelWPAldRf8Fc+C69GJ0twPDkVnzDEsAk8ThrohOlHE7qId7KJ0FhupdEjTXEsReRmRYXi5UhqWiHqQTlZPmW/jXfJzOjVpyx/0R+u+ekPF7y9VUilgjWH+qcXXSn4GLI7);strokeColor=none;spacingTop=-3;spacingBottom=-3;spacingLeft=-3;spacingRight=-3;points=[[0.5,1.31,0],[0.5,0,0],[0,0.5,0],[1,0.5,0]];labelBackgroundColor=none;rounded=0;html=1;whiteSpace=wrap;" parent="bNFybD1ttjROPPk29QS4-281" vertex="1">
          <mxGeometry width="48" height="5" as="geometry" />
        </mxCell>
        <mxCell id="bNFybD1ttjROPPk29QS4-292" style="vsdxID=26;fillColor=none;gradientColor=none;strokeColor=none;spacingTop=-3;spacingBottom=-3;spacingLeft=-3;spacingRight=-3;points=[[0.5,1.31,0],[0.5,0,0],[0,0.5,0],[1,0.5,0]];labelBackgroundColor=none;rounded=0;html=1;whiteSpace=wrap;" parent="bNFybD1ttjROPPk29QS4-281" vertex="1">
          <mxGeometry y="36" width="5" height="12" as="geometry" />
        </mxCell>
        <mxCell id="bNFybD1ttjROPPk29QS4-293" style="vsdxID=27;fillColor=#999999;gradientColor=none;shape=stencil(vZPLDsIgEEW/hmUJFKh1rfU/iNKWiKWZ4uvvpWIjqDVx424eh7m5YQax1dDKXqGcDA7sXp31zrWIrVGe665VoJ2PEKsQW9UWVAP22O1C3suRHKODPY0TLuEdFVjQ8VVOrqFC7tkmwEZ3EVxyzJfzsISt78D7ZHjQC8yLUJkYQpJxEZDJix4ysE46bbtYjRgJjcq8WlYb2SSt4axUH5XpvJlX7Sn/CDOCefkNT71H+OSdclyIxHwqXwrMxL+8p9IFpotf/zG1MrdF//jG7wvsg+fq19qYcDlx//VUfCmcGatu);strokeColor=none;spacingTop=-3;spacingBottom=-3;spacingLeft=-3;spacingRight=-3;points=[[0.5,1.31,0],[0.5,0,0],[0,0.5,0],[1,0.5,0]];labelBackgroundColor=none;rounded=0;html=1;whiteSpace=wrap;" parent="bNFybD1ttjROPPk29QS4-292" vertex="1">
          <mxGeometry width="5" height="12" as="geometry" />
        </mxCell>
        <mxCell id="bNFybD1ttjROPPk29QS4-294" style="vsdxID=28;fillColor=#999999;gradientColor=none;fillOpacity=50;strokeOpacity=50;shape=stencil(vZPLDsIgEEW/hmUJFKh1rfU/iNKWiKWZ4uvvpWIjqDVx424eh7m5YQax1dDKXqGcDA7sXp31zrWIrVGe665VoJ2PEKsQW9UWVAP22O1C3suRHKODPY0TLuEdFVjQ8VVOrqFC7tkmwEZ3EVxyzJfzsISt78D7ZHjQC8yLUJkYQpJxEZDJix4ysE46bbtYjRgJjcq8WlYb2SSt4axUH5XpvJlX7Sn/CDOCefkNT71H+OSdclyIxHwqXwrMxL+8p9IFpotf/zG1MrdF//jG7wvsg+fq19qYcDlx//VUfCmcGatu);strokeColor=none;spacingTop=-3;spacingBottom=-3;spacingLeft=-3;spacingRight=-3;points=[[0.5,1.31,0],[0.5,0,0],[0,0.5,0],[1,0.5,0]];labelBackgroundColor=none;rounded=0;html=1;whiteSpace=wrap;" parent="bNFybD1ttjROPPk29QS4-292" vertex="1">
          <mxGeometry width="5" height="12" as="geometry" />
        </mxCell>
        <mxCell id="bNFybD1ttjROPPk29QS4-295" style="vsdxID=29;fillColor=none;gradientColor=none;strokeColor=none;spacingTop=-3;spacingBottom=-3;spacingLeft=-3;spacingRight=-3;points=[[0.5,1.31,0],[0.5,0,0],[0,0.5,0],[1,0.5,0]];labelBackgroundColor=none;rounded=0;html=1;whiteSpace=wrap;" parent="bNFybD1ttjROPPk29QS4-281" vertex="1">
          <mxGeometry x="43" y="36" width="5" height="12" as="geometry" />
        </mxCell>
        <mxCell id="bNFybD1ttjROPPk29QS4-296" style="vsdxID=30;fillColor=#999999;gradientColor=none;shape=stencil(vZPbjsIgEIafhsuSKZRWr9V9D6K0JWJppuzqvr2wuCuYrTExejeHb+bPwAzhq6mXoyIMJod2r45653rC14QxPfQKtfMW4RvCV61F1aH9HHbRH2Ugg3WwX6HDKdaVgoIIVQy+YwR+vI8IGz0k8KKiVTkPS9z6DF47i2WE8UI3VFzKfxmArF0CFPKkpwKtk07bIVUDI7FThVcrWiO7LDUdlRqTcDk/zK32QlDG58fhQGuRj1NWtGmyeeol5flr/qm8fiD4V/gBtKbBe+ofZ7boHd94f4G9cV39VhsTLyfN356KD8Uz45sz);strokeColor=none;spacingTop=-3;spacingBottom=-3;spacingLeft=-3;spacingRight=-3;points=[[0.5,1.31,0],[0.5,0,0],[0,0.5,0],[1,0.5,0]];labelBackgroundColor=none;rounded=0;html=1;whiteSpace=wrap;" parent="bNFybD1ttjROPPk29QS4-295" vertex="1">
          <mxGeometry width="5" height="12" as="geometry" />
        </mxCell>
        <mxCell id="bNFybD1ttjROPPk29QS4-297" style="vsdxID=31;fillColor=#999999;gradientColor=none;fillOpacity=50;strokeOpacity=50;shape=stencil(vZPbjsIgEIafhsuSKZRWr9V9D6K0JWJppuzqvr2wuCuYrTExejeHb+bPwAzhq6mXoyIMJod2r45653rC14QxPfQKtfMW4RvCV61F1aH9HHbRH2Ugg3WwX6HDKdaVgoIIVQy+YwR+vI8IGz0k8KKiVTkPS9z6DF47i2WE8UI3VFzKfxmArF0CFPKkpwKtk07bIVUDI7FThVcrWiO7LDUdlRqTcDk/zK32QlDG58fhQGuRj1NWtGmyeeol5flr/qm8fiD4V/gBtKbBe+ofZ7boHd94f4G9cV39VhsTLyfN356KD8Uz45sz);strokeColor=none;spacingTop=-3;spacingBottom=-3;spacingLeft=-3;spacingRight=-3;points=[[0.5,1.31,0],[0.5,0,0],[0,0.5,0],[1,0.5,0]];labelBackgroundColor=none;rounded=0;html=1;whiteSpace=wrap;" parent="bNFybD1ttjROPPk29QS4-295" vertex="1">
          <mxGeometry width="5" height="12" as="geometry" />
        </mxCell>
        <mxCell id="bNFybD1ttjROPPk29QS4-298" style="vsdxID=32;fillColor=#949494;gradientColor=none;shape=stencil(vVLLDoIwEPyaHiGlGwieUf+jkQKNlZKlCv69rSXyMI0JB2+7s7OPaYdA0Te8E4TR3qC+ikGWpiFwJIzJthEojY0InAgUlUZRo763pc877pguuumHmzD6Puo6GH36LMvjLH8jZ09Wsg2SaZiY0N3UrxM4XmwVJzrEkHo+Tg2QxMA8NHEOWZylq6GfJWPER9lHqA03UrcrWYpjLSK7LqoUr1elfhCiW8BJWM984Gb3bjmh9/mDmB9fY4PZV5VUyttyWd/60ELew3B6AQ==);strokeColor=none;spacingTop=-3;spacingBottom=-3;spacingLeft=-3;spacingRight=-3;points=[[0.5,1.31,0],[0.5,0,0],[0,0.5,0],[1,0.5,0]];labelBackgroundColor=none;rounded=0;html=1;whiteSpace=wrap;" parent="bNFybD1ttjROPPk29QS4-281" vertex="1">
          <mxGeometry y="42" width="48" height="5" as="geometry" />
        </mxCell>
        <mxCell id="bNFybD1ttjROPPk29QS4-299" value="&lt;div style=&quot;font-size: 1px&quot;&gt;&lt;font style=&quot;font-size:15.52px;font-family:Segoe UI;color:#000000;direction:ltr;letter-spacing:0px;line-height:120%;opacity:1&quot;&gt;Azure Event Hubs&lt;br/&gt;&lt;/font&gt;&lt;/div&gt;" style="text;vsdxID=15;fillColor=none;gradientColor=none;strokeColor=none;spacingTop=-3;spacingBottom=-3;spacingLeft=-3;spacingRight=-3;points=[[0.5,1.76,0],[0.5,0,0],[0,0.5,0],[1,0.5,0]];labelBackgroundColor=none;rounded=0;html=1;whiteSpace=wrap;verticalAlign=middle;align=center;overflow=width;;html=1;" parent="bNFybD1ttjROPPk29QS4-281" vertex="1">
          <mxGeometry x="-26.42" y="48" width="101.6" height="37.26" as="geometry" />
        </mxCell>
        <UserObject label="" tags="Tło" id="bNFybD1ttjROPPk29QS4-300">
          <mxCell style="vsdxID=1074;fillColor=none;gradientColor=none;shape=stencil(nZBLDoAgDERP0z3SIyjew0SURgSD+Lu9kMZoXLhwN9O+tukAlrNpJg1SzDH4QW/URgNYgZTkjA4UkwJUgGXng+6DX1zLfmoymdXo17xh5zmRJ6Q42BWCfc2oJfdAr+Yv+AP9Cb7OJ3H/2JG1HNGz/84klThPVCc=);dashed=1;strokeColor=#000000;points=[];labelBackgroundColor=none;rounded=0;html=1;whiteSpace=wrap;" parent="1" vertex="1">
            <mxGeometry x="-523.5" y="237.5" width="123.5" height="170" as="geometry" />
          </mxCell>
        </UserObject>
        <mxCell id="bNFybD1ttjROPPk29QS4-302" value="&lt;b style=&quot;border-color: var(--border-color); color: rgb(0, 0, 0); font-family: &amp;quot;Segoe UI&amp;quot;; font-size: 16.93px; font-style: normal; font-variant-ligatures: normal; font-variant-caps: normal; letter-spacing: normal; orphans: 2; text-indent: 0px; text-transform: none; widows: 2; word-spacing: 0px; -webkit-text-stroke-width: 0px; background-color: rgb(251, 251, 251); text-decoration-thickness: initial; text-decoration-style: initial; text-decoration-color: initial;&quot;&gt;Ingest&lt;/b&gt;" style="text;whiteSpace=wrap;html=1;align=center;" parent="1" vertex="1">
          <mxGeometry x="-501.75" y="198.5" width="80" height="40" as="geometry" />
        </mxCell>
        <UserObject label="" tags="Tło" id="bNFybD1ttjROPPk29QS4-304">
          <mxCell style="vsdxID=1204;edgeStyle=none;startArrow=none;endArrow=block;startSize=5;endSize=5;strokeWidth=2;strokeColor=#000000;spacingTop=0;spacingBottom=0;spacingLeft=0;spacingRight=0;verticalAlign=middle;html=1;labelBackgroundColor=#ffffff;rounded=0;" parent="1" edge="1">
            <mxGeometry relative="1" as="geometry">
              <mxPoint x="-1" as="offset" />
              <Array as="points" />
              <mxPoint x="-400" y="330" as="sourcePoint" />
              <mxPoint x="-348" y="330" as="targetPoint" />
            </mxGeometry>
          </mxCell>
        </UserObject>
        <UserObject label="" tags="Tło" id="bNFybD1ttjROPPk29QS4-305">
          <mxCell style="vsdxID=1074;fillColor=none;gradientColor=none;shape=stencil(nZBLDoAgDERP0z3SIyjew0SURgSD+Lu9kMZoXLhwN9O+tukAlrNpJg1SzDH4QW/URgNYgZTkjA4UkwJUgGXng+6DX1zLfmoymdXo17xh5zmRJ6Q42BWCfc2oJfdAr+Yv+AP9Cb7OJ3H/2JG1HNGz/84klThPVCc=);dashed=1;strokeColor=#000000;points=[];labelBackgroundColor=none;rounded=0;html=1;whiteSpace=wrap;" parent="1" vertex="1">
            <mxGeometry x="-759.5" y="202.5" width="126.5" height="235" as="geometry" />
          </mxCell>
        </UserObject>
        <UserObject label="" tags="Tło" id="bNFybD1ttjROPPk29QS4-310">
          <mxCell style="vsdxID=1214;fillColor=#107c10;gradientColor=none;shape=stencil(rVFBDsIwDHtNj5VCK14wxj8ilm0VZZ3SAuX3tAoIBhwQ4mbHjhMlyjZxxJmUgZg47OnsujQqu1HGuGkkdqkgZVtlmz4wDRyOUyd8xuqs6BBONSFLH9QOAxdha6FbcSLvisR5oQEvvfegFXyMgqwxu6g5JEwuTIupHnkgXcbo3uNwyxEpnonmt/Ivi/1nLfhirQIeZ+6d9/KlZ/31LaUkL7XtFQ==);strokeColor=none;points=[[0.5,0,0],[0.5,0.5,0],[0,0.5,0],[0.5,1,0],[1,0.5,0],[0.15,0.85,0],[0.85,0.85,0],[0.85,0.15,0],[0.15,0.15,0]];labelBackgroundColor=none;rounded=0;html=1;whiteSpace=wrap;" parent="1" vertex="1">
            <mxGeometry x="-194.5" y="290.83" width="35" height="35" as="geometry" />
          </mxCell>
        </UserObject>
        <mxCell id="bNFybD1ttjROPPk29QS4-311" value="&lt;div style=&quot;font-size: 1px&quot;&gt;&lt;font style=&quot;font-size:15.52px;font-family:Segoe UI;color:#ffffff;direction:ltr;letter-spacing:0px;line-height:120%;opacity:1&quot;&gt;&lt;b&gt;3&lt;br&gt;&lt;/b&gt;&lt;/font&gt;&lt;/div&gt;" style="text;vsdxID=1214;fillColor=none;gradientColor=none;strokeColor=none;points=[[0.5,0,0],[0.5,0.5,0],[0,0.5,0],[0.5,1,0],[1,0.5,0],[0.15,0.85,0],[0.85,0.85,0],[0.85,0.15,0],[0.15,0.15,0]];labelBackgroundColor=none;rounded=0;html=1;whiteSpace=wrap;verticalAlign=middle;align=center;overflow=width;;html=1;" parent="bNFybD1ttjROPPk29QS4-310" vertex="1">
          <mxGeometry x="3.6100000000000003" y="0.83" width="27.78" height="30.56" as="geometry" />
        </mxCell>
        <UserObject label="" tags="Tło" id="bNFybD1ttjROPPk29QS4-313">
          <mxCell style="vsdxID=1216;fillColor=#107c10;gradientColor=none;shape=stencil(rVFBDsIwDHtNj5VCK14wxj8ilm0VZZ3SAuX3tAoIBhwQ4mbHjhMlyjZxxJmUgZg47OnsujQqu1HGuGkkdqkgZVtlmz4wDRyOUyd8xuqs6BBONSFLH9QOAxdha6FbcSLvisR5oQEvvfegFXyMgqwxu6g5JEwuTIupHnkgXcbo3uNwyxEpnonmt/Ivi/1nLfhirQIeZ+6d9/KlZ/31LaUkL7XtFQ==);strokeColor=none;points=[[0.5,0,0],[0.5,0.5,0],[0,0.5,0],[0.5,1,0],[1,0.5,0],[0.15,0.85,0],[0.85,0.85,0],[0.85,0.15,0],[0.15,0.15,0]];labelBackgroundColor=none;rounded=0;html=1;whiteSpace=wrap;" parent="1" vertex="1">
            <mxGeometry x="213.5" y="284.39" width="35" height="35" as="geometry" />
          </mxCell>
        </UserObject>
        <mxCell id="bNFybD1ttjROPPk29QS4-315" parent="1" vertex="1">
          <mxGeometry x="231" y="229.5" as="geometry" />
        </mxCell>
        <mxCell id="bNFybD1ttjROPPk29QS4-314" value="&lt;div style=&quot;font-size: 1px&quot;&gt;&lt;font style=&quot;font-size:15.52px;font-family:Segoe UI;color:#ffffff;direction:ltr;letter-spacing:0px;line-height:120%;opacity:1&quot;&gt;&lt;b&gt;5&lt;br&gt;&lt;/b&gt;&lt;/font&gt;&lt;/div&gt;" style="text;vsdxID=1216;fillColor=none;gradientColor=none;strokeColor=none;points=[[0.5,0,0],[0.5,0.5,0],[0,0.5,0],[0.5,1,0],[1,0.5,0],[0.15,0.85,0],[0.85,0.85,0],[0.85,0.15,0],[0.15,0.15,0]];labelBackgroundColor=none;rounded=0;html=1;whiteSpace=wrap;verticalAlign=middle;align=center;overflow=width;;html=1;" parent="1" vertex="1">
          <mxGeometry x="225.22000000000003" y="404.5" width="27.78" height="30" as="geometry" />
        </mxCell>
        <mxCell id="bNFybD1ttjROPPk29QS4-318" value="&lt;div style=&quot;font-size: 1px&quot;&gt;&lt;font style=&quot;font-size:15.52px;font-family:Segoe UI;color:#ffffff;direction:ltr;letter-spacing:0px;line-height:120%;opacity:1&quot;&gt;&lt;b&gt;5&lt;br&gt;&lt;/b&gt;&lt;/font&gt;&lt;/div&gt;" style="text;vsdxID=1216;fillColor=none;gradientColor=none;strokeColor=none;points=[[0.5,0,0],[0.5,0.5,0],[0,0.5,0],[0.5,1,0],[1,0.5,0],[0.15,0.85,0],[0.85,0.85,0],[0.85,0.15,0],[0.15,0.15,0]];labelBackgroundColor=none;rounded=0;html=1;whiteSpace=wrap;verticalAlign=middle;align=center;overflow=width;;html=1;" parent="1" vertex="1">
          <mxGeometry x="217.11" y="286.5" width="27.78" height="30" as="geometry" />
        </mxCell>
        <UserObject label="" tags="Tło" id="bNFybD1ttjROPPk29QS4-324">
          <mxCell style="vsdxID=1216;fillColor=#107c10;gradientColor=none;shape=stencil(rVFBDsIwDHtNj5VCK14wxj8ilm0VZZ3SAuX3tAoIBhwQ4mbHjhMlyjZxxJmUgZg47OnsujQqu1HGuGkkdqkgZVtlmz4wDRyOUyd8xuqs6BBONSFLH9QOAxdha6FbcSLvisR5oQEvvfegFXyMgqwxu6g5JEwuTIupHnkgXcbo3uNwyxEpnonmt/Ivi/1nLfhirQIeZ+6d9/KlZ/31LaUkL7XtFQ==);strokeColor=none;points=[[0.5,0,0],[0.5,0.5,0],[0,0.5,0],[0.5,1,0],[1,0.5,0],[0.15,0.85,0],[0.85,0.85,0],[0.85,0.15,0],[0.15,0.15,0]];labelBackgroundColor=none;rounded=0;html=1;whiteSpace=wrap;" parent="1" vertex="1">
            <mxGeometry x="410" y="286.5" width="35" height="35" as="geometry" />
          </mxCell>
        </UserObject>
        <mxCell id="bNFybD1ttjROPPk29QS4-326" value="&lt;div style=&quot;font-size: 1px&quot;&gt;&lt;font style=&quot;font-size:15.52px;font-family:Segoe UI;color:#ffffff;direction:ltr;letter-spacing:0px;line-height:120%;opacity:1&quot;&gt;&lt;b&gt;6&lt;br&gt;&lt;/b&gt;&lt;/font&gt;&lt;/div&gt;" style="text;vsdxID=1216;fillColor=none;gradientColor=none;strokeColor=none;points=[[0.5,0,0],[0.5,0.5,0],[0,0.5,0],[0.5,1,0],[1,0.5,0],[0.15,0.85,0],[0.85,0.85,0],[0.85,0.15,0],[0.15,0.15,0]];labelBackgroundColor=none;rounded=0;html=1;whiteSpace=wrap;verticalAlign=middle;align=center;overflow=width;;html=1;" parent="1" vertex="1">
          <mxGeometry x="413.6100000000001" y="289.39" width="27.78" height="30" as="geometry" />
        </mxCell>
        <UserObject label="" tags="Tło" id="bNFybD1ttjROPPk29QS4-327">
          <mxCell style="vsdxID=1056;fillColor=none;gradientColor=none;strokeColor=none;spacingTop=-3;spacingBottom=-3;spacingLeft=-3;spacingRight=-3;points=[];labelBackgroundColor=none;rounded=0;html=1;whiteSpace=wrap;" parent="1" vertex="1">
            <mxGeometry x="306.61" y="220.25" width="50" height="41" as="geometry" />
          </mxCell>
        </UserObject>
        <mxCell id="bNFybD1ttjROPPk29QS4-328" style="vsdxID=1057;fillColor=#005ba1;gradientColor=none;shape=stencil(xVTRcoIwEPyaPHJzyYHCs7X/kdEAmVLCBKz694amVILKCx36duxu7tgcLKNdW8pGMYFtZ82HOutjVzJ6Y0LoulRWd65itGe0y41VhTWn+uifG9kr++rTfPUdLv5ctoVN0p8SePUI58C/gXevr3Q90icx4GZWL+3BkfZHLwDJy+11QOLMI0NLAdtJS4Rk0ETyotvImk522tSeR89V0hYqcvOivJJFQLVnpZoRPOMoRhBZMB4hpjlHiQgdEWDoiCb9/tQKvrYigJInk1/YGLT3xaRpYAODXo7maxkJJ7tvlGeLnDxcDMfVlvLkD8Nle/l9+Yf7WcHOdDgnyNJFdmYi6H/WMwk0V9zTM9dV5cN3zE/T1kE+qWl/Aw==);strokeColor=none;spacingTop=-3;spacingBottom=-3;spacingLeft=-3;spacingRight=-3;points=[];labelBackgroundColor=none;rounded=0;html=1;whiteSpace=wrap;" parent="bNFybD1ttjROPPk29QS4-327" vertex="1">
          <mxGeometry width="50" height="41" as="geometry" />
        </mxCell>
        <mxCell id="bNFybD1ttjROPPk29QS4-329" style="vsdxID=1058;fillColor=#FFFFFF;gradientColor=none;shape=stencil(vVNLDsIgED0NyxIETXVd9R5EaUtEaAa09fZCIFZFY1KTJizm84Y3b2AQq2zLO4EosQ7MSfTy6FrEtohSqVsB0nkLsR1iVW1ANGAu+hj9jgdksM7mGm4YYh0JFZTcolducHD92Ucwh4PPQgIv8WIV8ZAKKMHlOoYyTIIsSOIYCj5IW4Bx3EmjX/gVh0YUnq2oFW9eUrYXosvCqT8l9ZOYzQqvP5NPlvPoPpvQDHreycf2JuvJRzTb62Q/48+n+TabGaT82BpvjPtWS6Xiuj7n3/fTh+Jus90d);strokeColor=none;spacingTop=-3;spacingBottom=-3;spacingLeft=-3;spacingRight=-3;points=[];labelBackgroundColor=none;rounded=0;html=1;whiteSpace=wrap;" parent="bNFybD1ttjROPPk29QS4-327" vertex="1">
          <mxGeometry x="4" y="2" width="11" height="2" as="geometry" />
        </mxCell>
        <mxCell id="bNFybD1ttjROPPk29QS4-330" style="vsdxID=1059;fillColor=#1ac3f2;gradientColor=none;shape=stencil(vVPbDoIwDP2aPc6MTaM+I/7HIgMW50bKFPh7h8NwWYiJJLz1crr2tDuIxVXBS4EoqSyYu6hlagvELohSqQsB0joLsQSxODMgcjBPnXq/5B2ysx7m1b3Q+DrSVVDSeu902B2jT+TqwRxuLgs9ONrv6NkXQBuEQtAXQ/ouDeaNrDAYy600ejKB4pAL7PrhTPF8kqpqIcog3E+opB7RGQjMm68gRJaWtAGhefNhvP8JhUva7D7h51h7naX1bEDmh3acMaguk0p50Y7zc5W6kFc4S94=);strokeColor=none;spacingTop=-3;spacingBottom=-3;spacingLeft=-3;spacingRight=-3;points=[];labelBackgroundColor=none;rounded=0;html=1;whiteSpace=wrap;" parent="bNFybD1ttjROPPk29QS4-327" vertex="1">
          <mxGeometry x="4" y="2" width="2" height="2" as="geometry" />
        </mxCell>
        <mxCell id="bNFybD1ttjROPPk29QS4-331" style="vsdxID=1060;fillColor=#32d4f5;gradientColor=#198ab3;shape=stencil(xZTbcoMgEIafhkt3OHq4TtP3YBpUplQctE3y9tGgVTTmItOxd8vuDz8fOyxih6aUtUIUN62zn+qsT22J2BuiVFelcrrtIsSOiB1y61Th7Hd18uta9so++rI//QkXvy9LIBb9LoqvPoPvq3cvNrqaiQXeVkr30VXcoKRAqNe665jJhswg4SmwhTNkySCJ5EU3kbOtbLWt5nbYSFeoqLOLciOLoNSclapX6YcoHAMngTshINgzIsFDIgYiAGIpJHF4JAVO/5SIbBPR5XNO7htAo34CojwgCttNBMS79Se0zmJIn/bmAUrYnPXrYLwXy/qPjeav0vxefvU+O+Aszdn4k16l2ZpB/9KaQNwF0+DMtTF+7s7ry0HbpfyQZscb);strokeColor=none;spacingTop=-3;spacingBottom=-3;spacingLeft=-3;spacingRight=-3;points=[];labelBackgroundColor=none;rounded=0;html=1;whiteSpace=wrap;" parent="bNFybD1ttjROPPk29QS4-327" vertex="1">
          <mxGeometry y="4" width="50" height="36" as="geometry" />
        </mxCell>
        <mxCell id="bNFybD1ttjROPPk29QS4-332" style="vsdxID=1061;fillColor=#FFFFFF;gradientColor=none;shape=stencil(vVVdd4IwDP01PJrTJrSlz879D46icsbEU3G6f7+ylo8Auif3VpKb5uaSNAmtL8f8XCQoLo2rP4pbuWuOCb0liOXpWLiy8aeENgmt97UrDq6+nnbh+5y3yPb0WX+1N9xDnJGgqI1C8R0sAoT5NbwHfO623ukinkCqAHcRLyGzwRIh2kKWLl8p7qv8Xl5Wrm7ypqxP0R18Ve4OxcqnW+2r/MBcl1tRnGfmSHB7daEiOc8vZwQwggzYDoQzEPUgGTHUYawe567K00hMAalihSsLEp+JSYaLiSCIiTm7Usv+D7xCTE4w7ekMBFNkBAk0coIeIl9HkCueEgj9IP1iACpQXFBrQKePJUAw6bThtWISoOll6u60YPF1GkwZyilB1JxgBuo/+U0nEi0YwydyzCDOH/le5xM5BsUBJF9ch6IeFeVf/ONSCFY7+UuzZ2yHADmN6LkOGOwxOKE6YDruGZinr4HKpsMmeadZ3c9WV40G3T2/L582lQLSg/SLAX67EH8dumZ9NGt6Nmu8lZ/sq38Q4O9t6Q/Dqt2XVRU29dg/Xc3eFNY6bX4A);strokeColor=none;spacingTop=-3;spacingBottom=-3;spacingLeft=-3;spacingRight=-3;points=[];labelBackgroundColor=none;rounded=0;html=1;whiteSpace=wrap;" parent="bNFybD1ttjROPPk29QS4-327" vertex="1">
          <mxGeometry x="18" y="10" width="14" height="23" as="geometry" />
        </mxCell>
        <UserObject label="" tags="Tło" id="bNFybD1ttjROPPk29QS4-333">
          <mxCell style="vsdxID=1062;fillColor=none;gradientColor=none;strokeColor=none;spacingTop=-3;spacingBottom=-3;spacingLeft=-3;spacingRight=-3;points=[];labelBackgroundColor=none;rounded=0;html=1;whiteSpace=wrap;" parent="1" vertex="1">
            <mxGeometry x="306.61" y="312.25" width="50" height="58" as="geometry" />
          </mxCell>
        </UserObject>
        <mxCell id="bNFybD1ttjROPPk29QS4-334" style="vsdxID=1063;fillColor=#0078d4;gradientColor=none;shape=stencil(lZLbDoMgDIafhlvSUTxw7bb3MBEnmROD7vT2g5Bt4iJhdy39/uZvKcFq6upREgbTbPRZ3lUzdwT3hDE1dNKo2UYEDwSrVht5Mvo6ND4fa0e66KJvrsPD6zJwEgZPn/rs6MleDQsyBBmngqfCBadFuQ2vPOwg4uJd/LTOKOTpOIvjsW2EexNAizyAc0FLTG5t9Si2aUEZD+cECtkfvH0pI/3XbihGrP/OagWx309Yjg2+J9mqvvcXvayvT9g++fPHwws=);strokeColor=none;spacingTop=-3;spacingBottom=-3;spacingLeft=-3;spacingRight=-3;points=[];labelBackgroundColor=none;rounded=0;html=1;whiteSpace=wrap;" parent="bNFybD1ttjROPPk29QS4-333" vertex="1">
          <mxGeometry width="50" height="58" as="geometry" />
        </mxCell>
        <mxCell id="bNFybD1ttjROPPk29QS4-335" style="vsdxID=1064;fillColor=#005ba1;gradientColor=#0078d4;shape=stencil(rZLdCsIwDIWfJrelS+Z013O+x2CdLdZ1dPXv7W0JohOEIrs7J/kS0iZAzay7SQHKOXh3UjfTBw20B0QzauVNiAqoBWoG59XRu8vYs5+6RCZ1dtfU4c51G5lKUD7Ysjswac34F7kEdyTK6jdcCywXfCHzh6BCIK1F11Jsq/xRXsnMd67z0VG8NzkYa/kQPvPfm48hvhpqnw==);strokeColor=none;spacingTop=-3;spacingBottom=-3;spacingLeft=-3;spacingRight=-3;points=[];labelBackgroundColor=none;rounded=0;html=1;whiteSpace=wrap;" parent="bNFybD1ttjROPPk29QS4-333" vertex="1">
          <mxGeometry width="50" height="17" as="geometry" />
        </mxCell>
        <mxCell id="bNFybD1ttjROPPk29QS4-336" style="vsdxID=1065;fillColor=#50e6ff;gradientColor=none;shape=stencil(vVXBkoIwDP0ajmTapi3t2XX/g1FUZllxCq7491u2FA0qXlZvJclrX5JHkuCi2eWHIhGsaV39VZzKdbtL8CMRotzvCle2/pTgMsHFpnbF1tXH/Tp8H/I+sj991z/9DV3AGQnS9ijBzsGiGVj9Z/kMgNytvNcNAA2Gh3g3ABRIGSzxTg6KXKkMmMHSpXlXNqmr27wt633ws+CrcrctUv9cuqnyLXE1p6I43JjvElQSmKAMJQI3hKJkwCThiB5mX8exKvdXVeeM0ZoD2sfRRgPTJH7u6gwyQzPz7VBzDbVy2lClSLUEB0EJSA6Wv6ujOsrpQlBQfgL4lF4mX0ePVlwgCKp3qUDzx/mgBWtoRr5Hw08Xb9UGGFKR+Cyzf02KP06K6tMiqBmBcgRDh0gU+H09+2RpwXyy8xI1eDNzaLn8HOOTOeZR75KAf92Y6es6uwasji7MXX6BDCo+8xEj448nxqgsRokxKv6MHY5ROhYUxyg2X9GnU3xmM7ynpM8Wkz9c1tqmrKqwFa/90zXoTWGF4vIX);strokeColor=none;spacingTop=-3;spacingBottom=-3;spacingLeft=-3;spacingRight=-3;points=[];labelBackgroundColor=none;rounded=0;html=1;whiteSpace=wrap;" parent="bNFybD1ttjROPPk29QS4-333" vertex="1">
          <mxGeometry x="7" y="7" width="34" height="43" as="geometry" />
        </mxCell>
        <mxCell id="bNFybD1ttjROPPk29QS4-337" style="vsdxID=1066;fillColor=#198ab3;gradientColor=#50e6ff;shape=stencil(vVPRbsMgDPwaHoMMNF3ynHX/gRqSoLEQOWzt/r6kpluzacuiSXkz5ztjbI6pauz0YJiEMaB/Nidbh46pRyal7TuDNsSIqQNTVePRtOhf+5rOg56YU/Ti36YKZ9IVwEU5qSS8E5LvuNxfkScSaDzGLCaBKHkhSIBJIff8IdW4kQBmNQvBIU+MTJ/tmKEPOljfUz6xncbWZPG+rHG6TaUoNZ6MGe5gWNthMWvwt2evbhH+0KKz/bqpz9ckdhzETPDPASj1wflO2WRFi3/ohydvsJ6Facfg006NdY7ceJ//ar8IkXXV4QI=);strokeColor=none;spacingTop=-3;spacingBottom=-3;spacingLeft=-3;spacingRight=-3;points=[];labelBackgroundColor=none;rounded=0;html=1;whiteSpace=wrap;" parent="bNFybD1ttjROPPk29QS4-333" vertex="1">
          <mxGeometry x="11" y="17" width="30" height="22" as="geometry" />
        </mxCell>
        <UserObject label="" tags="Tło" id="bNFybD1ttjROPPk29QS4-338">
          <mxCell style="vsdxID=1067;fillColor=none;gradientColor=none;strokeColor=none;spacingTop=-3;spacingBottom=-3;spacingLeft=-3;spacingRight=-3;points=[];labelBackgroundColor=none;rounded=0;html=1;whiteSpace=wrap;" parent="1" vertex="1">
            <mxGeometry x="306.61" y="402.25" width="50" height="67" as="geometry" />
          </mxCell>
        </UserObject>
        <mxCell id="bNFybD1ttjROPPk29QS4-339" style="vsdxID=1068;fillColor=#005ba1;gradientColor=#005ba1;shape=stencil(fZPRkoIwDEW/pq+ZNhFpn133PxxF6SwLTsUV/16wFUiW4a1J720Pl1TR7lYeroVCfWtD81M8/KktFX0pRF+XRfBtv1K0V7Q7N6G4hOZen2J9PQzKYfXb/A0ndNGX6cGC+hlLk4F9N76j+HgPUW3iPiKQSw4jLLrD2PkcmUoLLlk64gJWphsrX8/wOJ3dAK7RaU7mEGzG0RA5m3Ngtxxu44A4n9ErhDJArpWEeQ5bI/JLjpFxbIyQBEYkOGloORoOOckXEpeMk9h8fmDuOOL8M/DfGJBIhpZnaz1HIe4X0wiffVXFFzDflyPft+Jzof0L);strokeColor=none;spacingTop=-3;spacingBottom=-3;spacingLeft=-3;spacingRight=-3;points=[];labelBackgroundColor=none;rounded=0;html=1;whiteSpace=wrap;" parent="bNFybD1ttjROPPk29QS4-338" vertex="1">
          <mxGeometry y="9" width="50" height="58" as="geometry" />
        </mxCell>
        <mxCell id="bNFybD1ttjROPPk29QS4-340" style="vsdxID=1069;fillColor=#e8e8e8;gradientColor=none;shape=stencil(fZLRDoIwDEW/Zq/L1orgM+p/EAEhIpABCn8vS1HWRXhru9ud26YC465I2kyA6nrTPLJ3mfaFwLMAKOsiM2U/RwIvAuO8MdndNEOdUt4mVmmjZ/OyP4zUp5WyPaAmygNKr6S9DYbE2lcvhTCUEVVG+FWOehGB1zUig6gJuWCDCiDxxLnrlwtDcWQYyUPAoR5zf1BvTNAyCDjQNcU9bE25C3TXxj2M/ha/ONcU+pq/U87Begd5WVV0Ru67fzdziW4OLx8=);strokeColor=none;spacingTop=-3;spacingBottom=-3;spacingLeft=-3;spacingRight=-3;points=[];labelBackgroundColor=none;rounded=0;html=1;whiteSpace=wrap;" parent="bNFybD1ttjROPPk29QS4-338" vertex="1">
          <mxGeometry width="50" height="18" as="geometry" />
        </mxCell>
        <mxCell id="bNFybD1ttjROPPk29QS4-341" style="vsdxID=1070;fillColor=#50e6ff;gradientColor=none;shape=stencil(jVLLDoIwEPyaXknp8tAz4n8QKdKIQApo+XtbF+0jwXjb3c7szDRLoJjaauSE0WmWw40/RT23BE6EMdG3XIpZVwRKAkUzSH6Vw9LX2I+VQZrqPjzMBoW8mFLDYXTFPjlGB3hPzgi/LBLxcUjYBnkeZcigin1HabKhWEBTgIP0swZ8wI4sY1GS+cJ25aZBfUnXGPgI+DNsEFWboEFU15dvYy/oz5juz/keVPiRq3UAuS9pMXtBdWEvohFdhwflvocXpEd4fVC+AA==);strokeColor=none;spacingTop=-3;spacingBottom=-3;spacingLeft=-3;spacingRight=-3;points=[];labelBackgroundColor=none;rounded=0;html=1;whiteSpace=wrap;" parent="bNFybD1ttjROPPk29QS4-338" vertex="1">
          <mxGeometry x="5" y="2" width="38" height="11" as="geometry" />
        </mxCell>
        <mxCell id="bNFybD1ttjROPPk29QS4-342" style="vsdxID=1071;fillColor=#198ab3;gradientColor=none;shape=stencil(vZPbbsMgDIafhstYHEN23XXvgVqSoLIQEbZmb18iZ2tDtak3650Pv82HZROxm3ozWsLplGI42bM7pp6IV8K5G3obXcoWEXsidm2ItovhYziiP5pFuVjv4XPpMGOdoksJp1/ooveGShMPORNXJZMNyBrVcZUzKikoicH5tsV3Q8VAqDVfmdlNVQzJJBeGjdqb2NkqP1i13nSb1HS2drwL/4JYg25KRN6AftkgFp9mlD6PUIDgJSGVoDaAP0SrRGrQz5ui4sB0yVjXoP6c4j/O0LvhwZXNxnXTW+c9HsptvryMHMKrEvsL);strokeColor=none;spacingTop=-3;spacingBottom=-3;spacingLeft=-3;spacingRight=-3;points=[];labelBackgroundColor=none;rounded=0;html=1;whiteSpace=wrap;" parent="bNFybD1ttjROPPk29QS4-338" vertex="1">
          <mxGeometry x="9" y="9" width="30" height="4" as="geometry" />
        </mxCell>
        <mxCell id="bNFybD1ttjROPPk29QS4-343" style="vsdxID=1072;fillColor=#f2f2f2;gradientColor=#E6E6E6;shape=stencil(xVnbctowEP0aHtnR/fKcpv/hSSBhSiFjSEP/vuvaktg1OHRi1DewJev47O7Zixf64fDavK0WShyO7f7H6mPzfHxd6G8LpTa711W7OeKvhX5c6If1vl29tPv33XP//63pVna/fu5/dU849fuCgSC7XUr87q84C9H/vfK937Dd7CY3CIju+nrvQNgvrfcRorq+QQrxleX//LqjDZRQaUFFskEbEPp8Q9M+4d02bfDQP060ZYPvGSqgQSvyUBVADrhOy+a0OSzb/bE5bva7geT+3rZpX1ZLPHC53jYv5NbhY7V6O7ssr0M0oCnCAMYQgBEkNZqSEGMtfDqzkwA6sIoz6KgdpQNlayF04CxFKDUIZmSTHKEsia4WQvRbz/1QlPMHq5ps+IQxwh1JpLE4Pj1zePGVlM0xkl7JRNBymnUx6+uIScYjZ1yCpoyjdlA1cTPzPQVQ5ChKAFG8kyOfyGPTfV0C7w74nt7bXmslPXz4qzWogdGTSh4ik3AOV4xI+UGcdFIvn/xquGJywF72rADKUGas5Zp4FlFpDbJjZmVnUrQF8y5fJDmnHqUpwgiumuRocIEjVIpzmNaU9GtDLYQeQmSyjWZmJEqgHDoPrlrqwywmGYkoIsnvUoxyEu9sZirbo9O9T6FyObgkSMdkW5bAyazTdB5UqrJqKGMYVRwa1TwQiEqBpdrtURHuqI43qTdL6BaYZ5Q3qwJxjDBbMWcUTVXUGIjVLN2JFPNFB5qmwKmS/y4QWUfzecdBWxTnchGUJMtMR6QCpjFoA0+93cXsbmkNNi3zZrspO6msEGcYFdXB8Yt3/jZvNplyd0wMXDUM0IBEZTbUmDYXJxUQ4ukcITaaVHqxhk7tae7o/bzZZMrQIuf/tjiaoUW9jrk+yyzW0wzMDqztwOTA8pdWIGnZUNUVUdYiZ9GX84dFEaidMQ0HXw0iJnTmi0ZnsyYaJURqaCfmHjxMRzS3tC7laQ4gR2nEMkDWE0Z0K44x5oSRQhqzPlWdICDc0RtpBrOOd0ppSndxuQtg7e3L8emWPt0HNsIbWdWwgRfqtKJ1yVQSrUDZDTmcJv0xC6UJuMhCGenl3sfngUVJBZI+1J1VR3dvfkKeT51BZPMTOWrCMcfVm6oZXjkhr4KSiAIRqTvPXzl9AnGMkXn7mEbs0pSqhRErDu6LxT2LL7JGAd9MVvRFw8Yt2Jo7yiLGoPuPLHYDqdGsgAKMbJZR2xMV091uZjXi8KqOVRhm3CCj+KN8bVtvttv+Y935ff51Di/1X/b04x8=);strokeColor=none;spacingTop=-3;spacingBottom=-3;spacingLeft=-3;spacingRight=-3;points=[];labelBackgroundColor=none;rounded=0;html=1;whiteSpace=wrap;" parent="bNFybD1ttjROPPk29QS4-338" vertex="1">
          <mxGeometry x="6" y="29" width="40" height="20" as="geometry" />
        </mxCell>
        <UserObject label="" tags="Tło" id="bNFybD1ttjROPPk29QS4-344">
          <mxCell style="vsdxID=1076;fillColor=none;gradientColor=none;shape=stencil(nZBLDoAgDERP0z3SIyjew0SURgSD+Lu9kMZoXLhwN9O+tukAlrNpJg1SzDH4QW/URgNYgZTkjA4UkwJUgGXng+6DX1zLfmoymdXo17xh5zmRJ6Q42BWCfc2oJfdAr+Yv+AP9Cb7OJ3H/2JG1HNGz/84klThPVCc=);dashed=1;strokeColor=#000000;points=[];labelBackgroundColor=none;rounded=0;html=1;whiteSpace=wrap;" parent="1" vertex="1">
            <mxGeometry x="268.61" y="187.25" width="127" height="322" as="geometry" />
          </mxCell>
        </UserObject>
        <UserObject label="&lt;div style=&quot;font-size: 1px&quot;&gt;&lt;font style=&quot;font-size:14.11px;font-family:Segoe UI;color:#000000;direction:ltr;letter-spacing:0px;line-height:120%;opacity:1&quot;&gt;Azure Data Lake Storage V2&lt;br/&gt;&lt;/font&gt;&lt;/div&gt;" tags="Tło" id="bNFybD1ttjROPPk29QS4-345">
          <mxCell style="verticalAlign=middle;align=center;overflow=width;vsdxID=1081;fillColor=none;gradientColor=none;shape=stencil(nZBLDoAgDERP0z3SIyjew0SURgSD+Lu9kMZoXLhwN9O+tukAlrNpJg1SzDH4QW/URgNYgZTkjA4UkwJUgGXng+6DX1zLfmoymdXo17xh5zmRJ6Q42BWCfc2oJfdAr+Yv+AP9Cb7OJ3H/2JG1HNGz/84klThPVCc=);strokeColor=none;points=[];labelBackgroundColor=none;rounded=0;html=1;whiteSpace=wrap;" parent="1" vertex="1">
            <mxGeometry x="268.61" y="261.25" width="127" height="41" as="geometry" />
          </mxCell>
        </UserObject>
        <UserObject label="&lt;div style=&quot;font-size: 1px&quot;&gt;&lt;font style=&quot;font-size:14.11px;font-family:Segoe UI;color:#000000;direction:ltr;letter-spacing:0px;line-height:120%;opacity:1&quot;&gt;Azure Synapse&lt;br/&gt;&lt;/font&gt;&lt;/div&gt;" tags="Tło" id="bNFybD1ttjROPPk29QS4-346">
          <mxCell style="verticalAlign=middle;align=center;overflow=width;vsdxID=1082;fillColor=none;gradientColor=none;shape=stencil(nZBLDoAgDERP0z3SIyjew0SURgSD+Lu9kMZoXLhwN9O+tukAlrNpJg1SzDH4QW/URgNYgZTkjA4UkwJUgGXng+6DX1zLfmoymdXo17xh5zmRJ6Q42BWCfc2oJfdAr+Yv+AP9Cb7OJ3H/2JG1HNGz/84klThPVCc=);strokeColor=none;points=[];labelBackgroundColor=none;rounded=0;html=1;whiteSpace=wrap;" parent="1" vertex="1">
            <mxGeometry x="268.61" y="371.25" width="127" height="28" as="geometry" />
          </mxCell>
        </UserObject>
        <UserObject label="&lt;div style=&quot;font-size: 1px&quot;&gt;&lt;font style=&quot;font-size:14.11px;font-family:Segoe UI;color:#000000;direction:ltr;letter-spacing:0px;line-height:120%;opacity:1&quot;&gt;Azure SQL Database&lt;br/&gt;&lt;/font&gt;&lt;/div&gt;" tags="Tło" id="bNFybD1ttjROPPk29QS4-347">
          <mxCell style="verticalAlign=middle;align=center;overflow=width;vsdxID=1083;fillColor=none;gradientColor=none;shape=stencil(nZBLDoAgDERP0z3SIyjew0SURgSD+Lu9kMZoXLhwN9O+tukAlrNpJg1SzDH4QW/URgNYgZTkjA4UkwJUgGXng+6DX1zLfmoymdXo17xh5zmRJ6Q42BWCfc2oJfdAr+Yv+AP9Cb7OJ3H/2JG1HNGz/84klThPVCc=);strokeColor=none;points=[];labelBackgroundColor=none;rounded=0;html=1;whiteSpace=wrap;" parent="1" vertex="1">
            <mxGeometry x="274.61" y="467.25" width="115" height="42" as="geometry" />
          </mxCell>
        </UserObject>
        <mxCell id="bNFybD1ttjROPPk29QS4-348" parent="1" vertex="1">
          <mxGeometry x="413.6100000000001" y="512.25" as="geometry" />
        </mxCell>
        <mxCell id="bNFybD1ttjROPPk29QS4-349" value="" style="shape=image;verticalLabelPosition=bottom;labelBackgroundColor=default;verticalAlign=top;aspect=fixed;imageAspect=0;image=data:image/png,iVBORw0KGgoAAAANSUhEUgAAAG0AAACCCAYAAABM6kYBAAAAAXNSR0IArs4c6QAAAARnQU1BAACxjwv8YQUAAAAJcEhZcwAAFxEAABcRAcom8z8AACH8SURBVHhe7d15kF1lmcdxamr+mJokfdNAWERERQQcVHAXxbCDEHZCICjgMm7ggCLKHkJCwo4siqwCAVkcJbIvQggJ2Tu9pNNbujudjaSzd6eX2x30nd/zvMt5znvec/vcTqaqLe6t+tZ77u0knTqfPO85p2cKdym9Sq/Sq/QqvUov81rzzPBvbJg+8qHNL4yc0fNa+Yye1xGt1CvpdYu6vOOulwO9VD6jE9Fqj2382Qs49to8vXzG+8/mnmmbljvb/HVLr9V/yh32/p9zGwGk1v7vSLXmz6bnRqrVaT2bbJXtmWQr7fHTOA71p8Jt+iv+bvi+K54sG2f+2h/u1/t/Lnu0+9XyorFiSHY1OSQqhGQTMCtM7vipeBv/Uq7anixbvuzR/9jX/NU/nK+1T+c+vua53KpN08vDSDYDFcOiJA6yWLwCpdBkWSAfzcdqM+sqfO19fM8VT3/Ip23VM7mjVj038h/r/iKAAlADYdlSsQyMj2RXH0rW9iRWtBLH7c+VqxWP5y4zf/0P52vlsyNHA60/hmaQsmJZmEJT5Zc2VTKLRSsf47N1z5arlU+MvMT89T+crxiaQcqKxQEliCWAEkh29RNIEiuOhuMnykpoQOlfh7vGBFYIyRaCsgkod+wD+RGKycdqm6ajr63D9y6hGTS61c+CVQjJAYnVFYJCPEGmGBKvOQdm0dbi71BCs2i41Q8hcSEomwGSWHwcAJKlYnGEpVsu0VAJDS9GeyaABpCsWA6KCgBxBiaG5CewGOwJjbb8CR3BrcX3LqE9OxxoOY2GE1IQy0OyBZFswKA1jOQnJ8ygGbASmngR2kpCw61+MViDulbZElgmh2TBJBph4uEaf5+2x0poo1c+net/H2g7CsUBJXULZBw7TYCwWOY4jmV63IZfB7z38f1LaI8D7U8emkHauVjxGMnmpskLULZWWvFZCQ2vlU8ZNNzqW6DBQCXADI5fOhRNFlYPSkafrcHfqeWxD/tPRATaYMEKQQ08UdEWaGFa+dj0WBSj4XuX0AzaGoOWimVggliUQUqABaFMBklDySQW3ptKaOZFaCueAhqezYJYyGIloKgQFBVConDi/ZJYEZSt5Y96Xf1keQmttRBaCMkmoBxWCMkmgOJQGkMnJywHHAQsWwnNvGJowEjd/igPylbMZIWxbGGsEpr3smircatfLFjWrTAGVWALpEJYtlZUQsOL0Z7UaIWgCMd/HwGZ23UBtTOxWh7VMdo0oD36YUfDw3XrE7l++j/lt+KkxwJM4jOKEOzqZyFCn3FxvCASZaCazcrh89X4O7U8+iF/uG56ZPhoXEP6aVtswQmmmulk2mOzYktyn/nxyfeKkGwRVgJIJpEQodno/aoSmkZrBhpteYTlwgkMrv4x4hsHXtEf9U1EEo2+ViCD4kNxj+gYDRO+7KES2uhlQKPr0TKcvNRwwmyEFn0th/eU/twhWKjBYj2CP5OjY10JzbyaHhk5uvGRXD9NC1auwayNOFHRezrWNeHkOUR8jaMTDQQLGASy4dcOjBWhLUOMhkpoeC2869+/Wnv/sP6Gh4er2geGq6WI1to/4NhkP6fjugdHqPqHylTjwwLRoNno5A+EFYOiGMYHM2j4XhQdr8Q19F8Crb127PB84+kH99Wf9tm+5jMOiVXnd3KibSnHHdWnHrj61c9e1PDEXtubpu2t6h/fK1aD7QldI62P76nqHipXtfcPV/UPlqmGhwD3sJ5ETC1HcCGodCxbhGWhZP8SaNvqTz2qv+n0h3rqTqvqqTt1C9ZOrB1UN3dKR/dSvzEd3bW2k4N11Z7U0bWE27qt5sTubVUnqE6qkjpedJxucVRHxTFq09xvqVUvH6LqHt5N4wFO40Vw6VjRBCULY9ma0ZBG61l62tX/aDmjR60Zq9Tys9QHy85QHzSdrraLPmg6DStqtJ0ar+EU1Y9o3d4wBsdj1PZ6rPUnu/J1J6nuJajm21gRrTUn6qptJ6gu5Fb6Wu1JauPsb6ilj44yUwc41Ai8JpzcdKwwWgjJhT+TYjTc2Cx7YAii5RvGfDvfcNoHqvVMhelSPUtPVd2xTsFJQ3atHRO15GSuy6wEgonSK0DinQgEmUbhqo7ntrmOU9swdVHHqp7aE1X7jK+o6t/ncL3DtY7gaOLoBFssBxNA83FkBiqKpjCn0YbipPXWn/ZXtepsD8pghaA4i6ShHFZN8ViEpFfgxLCODXScqn/yY6r6PrpZybmJi7BsBisEZAtBoSYTHa/AdXLITdo/m84ehWtW/T9bzohjMVQAy0FprGiqBsKSUBorPl0FsBYf4+quOV61/OUgVXH3MGyTOVVn4OxtuiuEZAtgWSjuQZ1FaxxqaJ21p34GOBs/WHb6zsNKnaoIK7wNSqgIq5PXo7numuNUy/OfUQvuGqaWAK32DxrOoYWQqAQUroUekt/QRasZc1DP0lPa6SYjgRWD2hGsQlMlsBgqgFWh60Td1cep5r8erObfMUzV/L4McGW4vuEk4/qzs7A4+oeAdQWuk0Nue2S02jFAw7ZYACsVKnS94okKYBFQ6mRpqCiNFIEdxXVXH6uWAW3e7cNwXcupmt/leOISaDEoPTUDYgHK1kgrPmsD2tCbtEXHH4SbCo0WwmIojUW35w7Lh3JTFcfSYBJqYCw7VRbKtehI1V11jGr634PV3NuGqSqgVRMa7iYJI4SVdaoslIy+NoTRTmr/AM9ZCTCerghKo/lYAq3gDYaAqiQcAvPR7GR5WBVHMphGOxpoB6k5hHZvTlURGqITLMGaOHyeAYyBBJZDQ224Tg5hNFzPDJTGCmyFDku3LYDloFK3QR8qwkpMl4GSEVrjnw9S7906TC0mNLNFEkAEhvcZpyuE1YhrJPUvgDbGQIWwJNgJDot+HBWeqixYgHJYAoqxQmCjVefC0aq7ktAOVO/dArR7fDS9FswHshko2dBGW/LtdvqxUxJLTpaZqJ2BxVugN1kM5WNpqKhvAe0oRpsNtAqgVd5bhutamWoMAdlw8ovBohrMuhzXycb7hyzayelYBiwzVsHrlb8FDozVASwCo7Vr8ZGq8TlC+088YJepynuAdh/QABDCSiBRAkdGUBzuRin6bGij1WNbTMGKkEJQPpaEwrNWaKpiaB6WA9NQFqtj4RGqY8EREdpUTNpvy7BFluGGRKD5QH4GSCahZPS1oYtWc6JBM1ACK9NkMZjEApQp7dY9jBVB+Vi2rsWjGW3WzcPUIkLDtDEaTvCgJiuAZWtEy3FjM0TRTgAabYtxLDldXSGoNCw3WR5YCCptsgSU7ptcV8W3VMOzn1azMGkODdPG16ABsPjX0OrhJMJzXz0a2mjVx7dvrwOahKrUWMGpGhBLQKVhuWtWISwNxc2nvgG0IxjtXUK7q4y3SLquOTQDI+OJonwcmYGyKx/j81ag1Q1NtGPb++vw3MVYASh3YyGwKjRWZyqWgCIcCyaABsQyUDJGe0ajLSQ0czNCJzgIJmECOSCLhccH+Vnrg0C7b8ii4e4wBObQklMVxCp4J+hDBbAYKgLbijTY4apj3uGqa9E3gXaAeneKQaNJAxwBOKg0LMIQxzaLxGAii9Y4FNG6Ko9p719q0UJYBmrQWBqMoRhLQqVgzRMTBixqK9q28JuqHmgzCe1OoAGO0AiDrkEJKIpAzJqAshmoOh/tgSE6aRqNtkY5UXEsjeRDSaQklN0CkxOFPCQ/AqI01td1c78OtG+o+qcJbTij0XVtMaaNTnwISwK5YwHjR2jcffp9C6HdM+TQRgPt6Pb+WkyZBCMgM1kOK8ODcAwrbapSrldyonysrXO/xm1beDjQPqVmTh6mFqShCSCJxjB29QOSxbLR54RWOxTROhcfpdGAE8cyE1XsZCWwDNQAWBYshBVD+9P+auZNBg05NJNDskkcvwCWQ0MtfxjCaH212BrlVLkCUDEsAZWGlbYNGqTYVKVgbZ3zVW7bgq8DDZNGaHcINJz4BJjEIRj53gNy3Rs19NGW0I+cCmEhMVUWitcY1MBYaderBJTA0n3FoO2v3qHt0aJhi2SQnYRFLTVozUMVratCoPlQ3mTZiSoayyENDmsL2voe0OZ/TdU99UmHthDRHaRDk0AmQiGAIJgH5bpHf9Z8/1CdtIoj2/tqgCaxFmqwjkyTZcAKYEVoEstDm5OOteW9L6OvqM75X43QbhdoAIhB0Wo+SyDZVeSDDWm0DQsOPxA4QMO1zEwUQWksAVUslnkYjqAGmK4YlgaTWHr9chgNW2QCTUJZJKyE4t6bHJRdhzra6pn779ux8PB1fdVHqM4F8ZPeSSee+7oOJ5zaOu9r5vPQZFEWy2ahBsIClMOKoKK+pDrnGbRJw9T8ABpNmIMSMZYBGgir1qx1aFBofe1TP//B6ik/6109ZWrfqpsm+/XGmuQ1MVafKTqedEO+7Zr7uxu+351v+p7qqb9IdaOe+gtVT92FOKb1AtUd6zuqa8lZmMqjVQdOusYrEisG9VW9BRbCmv0lV+e8L6u6Jz+pZhDabWU8bYsAxxg+lsGJYRGIeS+hZBJt2e+B9tuMaNvW3bRnfs2U+7avvXmL2nqnUtvuUqoTK3eH6PaojtuU2mrquNV0C97LbtZ1UFOV2jJV9a+5SeVXT1Z9qH8NNUn1r56E97TeyPW5Jqq+VRNUvu3XwDtHw/AEhqA8rLlhLA3lY0VQui9yhLb0yU8URjNAFif2nkDsGqj27ih6nxlt64qnyvtW3/y86rtHqQ23qf73p6q+NVP45Pa71YaTTCeb0yfbRidZn/SJHJ/w1TfoVlETdCv1ml91PY5t15mu5fJuvUZ/tgpfw6/vrh2vMQxeEgoJqMFibZml65j7JUyaQEMxNIPjw/k4FE2UxZFYtqUoM9r29Q/frrruVtsJa/UUdJOXngqdnghsdVgxCatkNBWURspzhIMIinAIymFZKI1loXTXMBijrbha5Sn6NSuuwqPCCUD48oBY9poV3ALTsBzYF7hOoC2dBrQbgXarQcO00YnPAuXygGL9Vq+M9rusaBtuf1ZtuxMIKVAExEgGSmDlgURJLDtVCbACU6WjqYpiKNdVHE1c11JM25wvpWCZ61WmyQpDbXYdpjrmfJHR3gbaPIFGU8NgBFIIzGAkoCiDtYRWVBza+lumqY7bIyROQtGxxNJQGktMFXAcVGyiJFSEFWWg3ETFoXRXcoTWXf89oGDSGCcNS0DNpgJYZguUUPr4MLX5XZ1G+7h6e6JGoy1yoUELIfHnOPn83uKEMlCUQ0NN92VGu1mjSSQL5bLTFIeKTRWhEVBg+4tvfQKKs0g+FKWxdL/Bn30t33FuxcTEkXCcmCoqgFVgsizW5ncP5TrmfEEtfcKg3SLQcOJ9MEbCmgCyGRwJteQufUwrvS8CbQrQbsMJkUg+lI9lbio4AAWhvKla4UGlYsWhXLiDpN9LjwaMgWmjm4zCW2A6VgSWxOJmfl51vHcY0PYD2vB0NB/HZmBkDstGaCb6vEi0W3HiC0PFtj95Y1Fw+xNQwOEtsMD256Da4lg2wu6uv0ADxKB8LAElsEJbYAjLRmi1hHaDQcMW6dBMQSysFiiBZFevWtR0b9FoGkpfr6Ltz2HJ7Y+xJJTEElCcRSoEZbAsGCGtsFhXuPpWXsUP3RoNODuEJaA8LN3ngHaoqn18P/UW0ObeHKEt8aEoAZTAojwkqsYe34lfj5XR7siENnkaPQA7JF5pkgyWmyYqDQr525+DKoRloLhoonysfNuvOI32XYAAgWECYN71ajBYm975nNqMOmYT2sccmr2DZBgPS0I5MIviVQMkgrLxe3zeWDQabXmEVez2J7EIyID1pUHJrS+BlYTSXc71rbySf7S1BQgOKQWr8PWqMNamdz7LbZ39eY02waBhi4yhGSAJ5gPFMkAWzR7X3KHfN94zUtXclgWtfRLQ8GBtpym4/XlQMgIKXqeoAFaB7S8OFWFxy3+J7/Ub1VV3vkEz0ya2wCTU4LC4GYeorbM+p2ofM2hTPbQQll39JFCo4tEmAg0P1BYtDcufKDdVEokSUBap4ET5WAQUQeXbEK3Lf4Hv+2vVjYfrLQCQU6XXFKgglkWyxbFsW2d9Vi15bF/1d6DNsWjYIulaVGiyCIKPJYwMSLZqsw4CDQ/UHpR+tiKgAFZiqjwom5wqRssAZbFcv3D1rbgCaOdpiB3ASkyVh6X7ryQatkiLNqipCmDZlqCGu0eqyuLQJJacLJoo+jngAFMlr1V8HIKSYAKJoQyWmywJdhnXt+JXBg0ADsoDS9kCo21wYCzubaC9e4ha8kegXQ+0KWX6DhLTRgAhLFoTSHY1WSyHdjuOER0XgXbDNLVlEk6ImCxMkrupKIhlgQySxWKYlMmKTZSEiiZKQuku5ZXRaoFGCIzkTVdgsuwWqLHEhM3wwSKsTW9/htv67n8B7aOF0ejYVAiLIijGIig6NmARWi4r2vVAuxEnm35Im7YFioliILui2PYnoezWZ6bKXafscWii0sB0fSsuB9q5jBHHikMxFq2MJaAyYukO1miPDozmsGwEY4HkGsCqvk2vBNnw28zXNIOGZ6DwNJnaBJRFclAWi4ACYA5NTpXEEkitAqr1f6K19eeqD39Od+04AyOh4mDRTYbAYrA0rDjYRuqtg9WWmRHae4SG69p8wDFaCpRMosWguDJVReug0NYCbTMeqmNgPpqdKAMWg/KRDJTd+mLbn4TysGJQhCT7OdeHP6eL0AAQBAthxaAGwHpLY9m2zPyMRrsOaDdFaIyRApaAsqsLv5/LqSoCs+F9PW5usm2Pa68zaB4SQ5liU2WhUrDkZFm0GFQa1qWql7AcmIaKugRovwDaOcA5RCMZqB3HiqB0B3Fb3jkYaPs4NHsHaWH8GIiKIdnw+/CMR1WZlbAIzuLVY7vNiHYN0CbEsRjMIvlQPpZActtfCCsAZSKsXkBRPlTUxUC7THUtGQsUoAEmcb1Kw3JQEZbdAn0o7u/UgYxW88g+6k2Lhi1yHuAIIQiWgBIZJIum2yG063Gyf4MLPYCC258PJbAYrHgomqYklES6RPW2XIxVx8dtlwLtbA0Rg/Kx8HVvqgipIBZDaSzblncO0mjXAm1yEq3wZCGDQUVQHtqtuiLRrma0OFgaloAaFFZ8++s1habKgbX8LAq/l/5f6jQK4QQmy0BtFFPFWN71qhDWxjdp/bTaMuNAVfPwRxJofAMRxCJQO1G6aJoEFh7QdQIN1eH6mBHtymlqEx6qM0GlIaVA4TrlQ8mp6vWgXADqlVgtP+X6lv8caGdqCAdFgCYxWRGWhDJYISiDteHNT2PVbRZoswkNzQUcb2c+WAJJJHD8Km/R0XHdnXi4vjkT2q+Bhme0EBRfpwphBaDsRDFSGCsI1QocyoPS/US3/BLVVUNoBwegaLrSsABUECuCoja8eYDa8MYBavPbn9Zo1wBtEtDoDtJHo2MJJPOAbJWUwYqj4Tg7Gh6k3TSZHFJGKDtVAaj4RAks2gIDE0X1GqxewuL1x/jzLwbaGWoTIDROfKo2FbsFxrAAJXvjU0A7QNU8tLdDoy3SoflANoEjS0KVxd5XoTpsucWh2bu/IFQKFkGlTpSPJaAGmihESK5mWn+E70lopzNEAgvTF4OKgQkszkJREutTjGUjtGqgvWHR0FxMGwEk0ASQhOJV4GgsG97frCO0pVnR+tcQGh6mE0gpUAmsOFTqRA2w/dFE6QQWoLhmHf1+h8bTJqfKA0vBstcsf6qS7a82v/UpVf0g0K4ermbdqNFoi2SMAlNlS8XCs56OkHJqMa2MhmvalCyTtuaKaWojntGyQKVufxLLQDmwdKgIS0ARUAzrv1351p+qrurTNEAIKoilkWxZsDa8rtv81v5A28uh2euanaAEEhWDkkVYizmNZSO8pbePVBXZJu1yoOFhOoRVAEpjFZiqIFQKltn+JFS+JcLqbf4hl2/9CdBO1RBFYQmoIFYEpfskR2hVD+4ZTRqiO0hCyIxlQCKwONbiqTqHlm3SCA3PZrGpAlAqVgDKlQ4V3P4Iy2x9cqryBGSgdD/g8q0/Vl1VQCOItwjGh9oRLA21ntdPqA2vfUJt+vsnVfUDQLvKTJqHlgByW6B5DwhbCErGaLdlRvsl0PBsVnCqUqAy3FQEocR1KpomMVEmi6X7Pv68HwHtFMbIjIVb9+xYCFjrTYRW9cBe6vWrRqhZEyO0xTEoymIhnihAoCxYVAWqRLW4ThaFFv04KQKLX6skGIAYjR6CCSgJltj+AhMVAnNIyzQUt0xHW+a2qjEGDTgxKKp4LB8q6uNq05ufANqe6jVM2ruEhuhmhK5JCTSz/Um0QlC2iik6Oq7F9C7Mgta/5rJpagMeqBklhGRXOVFJpPSpsmAEEwKzUFgJymLxMa3fM12E76HRCEBCFcaSUNmw1r+qY7Q/7KFeuxJoN9CkjYijAUWnP8s6VRZKRl/Ljraa0C73bioMVOJW3Yeih2CLZcACNxVxIG+i3GRFE9XbbKEiMI32Q7Wt8iSG0FDibrAglkYKbYEuA6Xbj9v0xscZ7fUrRzDaLIs21ZsmmQDyC2FxN+HrWGvxD2Hh5MxoeJjmabIRFKHJnwGGpspAcRIqKxgBWTDCsWsEFXUhvu8PHBo/CAexJBgh7R9hBcEkVAQWQ/uNQZsINFzXCCDr9YowaI2QykRJtIpsaD8HGp7PCCZ1C/ShLBZBmTUBRTh2tUgCS06Wg/KxLhRdgJuT7wPt20DByU9ASSyJhgl7zccCjtgGJRT3yse4TW/sF6FNIDR921+BScsyWQSRxBKfAcuF90sILdv2SGiX4cT7WHr7i7DsRIWmKjRNtjQsiWRXwklicU0W7USNIaECWyEHrPhUGTAf65U4lm5ften1j6nK+0ep14A2E2h8M2LRQkimGIwLvw8P5vFyapGJfg2hZbumrQTaekKzP6RNu04ZLAclsXwwCYWCE2WhbAIKQJzB6m36Lpdv+Z5Go8mJTZSHheesBFSGyaLagUVg7S/vqzb6aHQzAjgCyAZl4mmKsCyUa7L+NUswudmuaSsvBtqlAklg2YqGkhPlY0koD8shRVC673D55otU5+ITeKsLYRFQ5m1QQPlYuo8CbV9VRWi/TkeLA+mvxbGiJJLfIND+J46UGWqwWFmgIizd+UC7EGjHMwT/1GInYDGUh2Xb+NpHVeXvd1evemiLaGKCWMhse1mxqIWoAtXgH0FGtJ8BDQ/SjDMYrB2F8rHiUFHjgXZBhGaAElgOqhisCEq3j2p/aR+g7aMqf2fQrgca4GYDLohmtj6JNhAWNwlQeIxYNLmsWLRLcPJ9JB9KThTKBFUIKw1KYo1XvY3jVQ+v56k8fj/9j4gzAk9TCEtADYjlg2ks3UcM2m6F0RgownJQhbAAtQhQhGUrEu0n01T7xYAogMU/paAkVCEsAZVpoiRUhKU7z5Vf9l3VWXEsMHDyGS0NKwlVcLIclMZahxjt1Y+oxYR2xQj1znV02z9Co+EEW6DBTFUoQqzBP4Ii0TwoWRApANVksSRUEVgOSoKd68ov+w7QjtEQKVjtHla2qYpjtb9I7Z1Eux5omDaJlg0rDMXhEYIqEu3HQMNtfipUoYkyWImpkkg+lEBKQJ2nehyUBBuHz8cB7XygHc0Ycaz9dhyLoTTWOtOGV/ZmtFc8NJzYHcMyUNQCgVZdNJr9Ye2AWAIpBpUBq9FiSShcsxjIpqEIiSIw3TlAG8//GUE6+RZoR7DsVK3jIqx1L+yFdS+Ndp9Gm3FtmZp5XZmaRWg4wUEkSuL4CSwboVm4avwjWDgxE9p/T1Pr8FwWA/KhisGSUAYrAaWBIiw7UXqq7GQRVG8DwtrTMBbf9zygHaURYmgSS0C9RAWw3FR5WIBiMG5PteHlvYC2q3rlV5g0i4YbEgLYESwLxeERgioS7YdAw63+gFjAyXT3Z5FMYqKiafKh9GTJqeohLA5YiNGaCO1Ig2aRAlhpU+Uma2+sAstBaSzbhpf3dGhu0nw0H0gGiCCWgZINAg23+0EogxWECmANuP3FoaKJQhaJp0sj2XobzsZ6Nv7cc/m/e8wQQSwUwhJTFWFJqDjWur9RezBaxb0G7RqgAY7QFoSAbAZIVgjLBixVhX8EGdG+r9HcnZ/JQflYHpRLQmmkQtufy2DRZGkgi6WhdGepnvqz8D3GGTQg7GwshtJYtg0v7aHRLtdo71yLmxHckBDAQFDUQFjzacUjBIdjRpuQGQ3PZoRWEMquEgrRdHERVjyN1UNrg8UyU2WgojBNEkpWfya+3zn8XxNnjBjSDmCJyYoapdZNH2XQytXLlw8HGl3XPDSDUwwUZ6Dmi+g9oc3LhLbiomlqLZ7NGMXHslAGy21/cajQ3Z+dquhaRUh2siRUBBZ1JiIsswKsp/4MfN+xQDuCIdKxvOtVEZPFAYtaO313tf7FURHa1UAD3LuAoxM/WCwJJSsS7UKg4VY/geRPldz+/KkiIAmmsRjMTFRyqiSUmChA9dJUEZjBssXRDJSYLIvmwDJNVYS11rW7QdtdVdwzUr38S2yPKWiDmapEeIwYBBqeyRotkgUDTAKMYCSYRcL216Cx/KkinPh1yq4SSmPxFsgBiN9HYA5tAdAAoeE0Tmy6CMlOFwFZqBcAQzko4NA2SKuHtXb6bhyj3Q00XNPeFmh0LdphMEBRQNJoiNDm3jDiUkOT/tJouM2XWx+DWSi6+5NQEssimfiaFd1URNmJQvU+mJ0ojdTboMHS0Oh/CYMgYhPFWSwDJbH86Zq+B4MlsJ7XWLw+v6ta/8JuDs1O2kyDFkSiADIQlB/D4euLJubU/OtHXGho0l/9bRc8o9YBzUwW/URd/1Q9DcoDM1DRNhjCAg7u/tzKx4CgvC2Qpy0DmkYSYMGtkHAEFiexDNjzNgtm0F7clf/n/18R22MqGk56KpjAsZMl13l4jFiEP2PedSN65lyd+4KhSX/1NJ9/hVp7kepvxoQZoOCturvzIygDxFh6+4tvgYTiYbmJikMUk90e+eQzjAfFE6WxbIzmI7nJ8qE01tq/6tpfANrdcTTeHgFREMqA+FkgPsYqq5tCU1b2Xu2EXYYbmvTXlsrTRgLlBbXuQvWP1vPV9ubzROeq/mXn8rq9eRyOx6ntrnO4fm6s6Gxdk+0svEe0Np25Q21vOUd1VxyhNuCubsNLe8Z70YbnK7SeG4UtToabC+pvuF79za42TNZ0Xfv0cqzlatOL5arq3px6HQ/XhDULt/vvoUW4llUgWjkAhqIH5kVAXFggAl8KsAU3jNg6b8Kwow3LwK/Ni8bm8k3n/vGDtvFd+dbxfb3N5+Z7WxCtzeNE54jGis4WnfX/Vn75uPy2iiPyG18cld/40h5oTxxjdY3KA1T3ArU72i2/0bWr7m+75oEkKo+abhuZ3/TiyHzVfWX5N68Ynp917Yj87OtG5OdcPyIPqDzQdBN1QEp2w8AtvrFs+8IJIxbPmTDsWMOR/TVhwi7/1rfyO4f8c/13D1Pt4w/dOY3dyY0/tK929KF9r49CH0k2Y9ShXVi78HWq7/Vcal1pvRRFv67xwdyhs6/+z0MrJ6DJutpbc7rJO17d5NwXaqbmyg1D6VV6lV6lV+lVepVepddQeu2yy/8B7G2IHAREucIAAAAASUVORK5CYII=;" parent="1" vertex="1">
          <mxGeometry x="498.3399999999999" y="223.5" width="50.31" height="60" as="geometry" />
        </mxCell>
        <UserObject label="&lt;div style=&quot;font-size: 1px&quot;&gt;&lt;font style=&quot;font-size:14.11px;font-family:Segoe UI;color:#000000;direction:ltr;letter-spacing:0px;line-height:120%;opacity:1&quot;&gt;Power BI&lt;br&gt;&lt;/font&gt;&lt;/div&gt;" tags="Tło" id="bNFybD1ttjROPPk29QS4-351">
          <mxCell style="verticalAlign=middle;align=center;overflow=width;vsdxID=1081;fillColor=none;gradientColor=none;shape=stencil(nZBLDoAgDERP0z3SIyjew0SURgSD+Lu9kMZoXLhwN9O+tukAlrNpJg1SzDH4QW/URgNYgZTkjA4UkwJUgGXng+6DX1zLfmoymdXo17xh5zmRJ6Q42BWCfc2oJfdAr+Yv+AP9Cb7OJ3H/2JG1HNGz/84klThPVCc=);strokeColor=none;points=[];labelBackgroundColor=none;rounded=0;html=1;whiteSpace=wrap;" parent="1" vertex="1">
            <mxGeometry x="460" y="284.5" width="127" height="41" as="geometry" />
          </mxCell>
        </UserObject>
        <mxCell id="bNFybD1ttjROPPk29QS4-352" value="" style="shape=image;verticalLabelPosition=bottom;labelBackgroundColor=default;verticalAlign=top;aspect=fixed;imageAspect=0;image=data:image/png,iVBORw0KGgoAAAANSUhEUgAAAI4AAACOCAYAAADn/TAIAAAAAXNSR0IArs4c6QAAAARnQU1BAACxjwv8YQUAAAAJcEhZcwAAFxEAABcRAcom8z8AACpQSURBVHhe7Z0HmBzVle+F94XF+94a765tHuu3sObZxmuTwYDxwxhYB4IRxiQHwHjNgjEWJo2QjSUQSiiM0miURznnnKWRNMqjkSbnntQz05ODBBL2x9n7r+rbc+r2vdVVMz2tEZ7zff8PW9NdVffeX/3PuRVuD+iP/uiP/uiP/uiP/uiPT0AMyrpswOu5Nwx4I3vggKTTzw54M+eVAUm5yQMG56QNGJy716ik3LXWZ5JyhtkS303KuXtAUtZV4S33xycmAAkGV8KRlJN1yeDc1kveyiWuT72V50vq9wVYFAHL2pfYZ39cZGG5gOUKDkj4wP+Nov82xLvU70J821Ew4VjgcP3Rt+KldZVXDN1S9ZuRO2uODpxXFlJBkYPLB/+/a/Q/huR7kvo9vl0dTBGQknJbw67X70YXKj7++OO/W3wiNHx5Zn3WqqzQR8tPhmiF0LyjIbr8vUIHKHyQOQD/8w/R+tsY0n2Hb5PvS4VJ40YCov76KCGx+mTo+hkHa+euyAy1SFhUvbym0gEJH2QOwaV/NKnAoOjP8u1BKkweIRKFtyi0+6MXQhS5XxpdOGPBsdB5HTArI2qw9M8jihygdA22E4ZPu+jv3ral+5uUc3vRQOlA4hDxdBZxof6IQ1izIli6XeS+sbFKA4wNC9dbm6rDgxgNiAQC+l9vF3ZbfDuQG0xuEKku1A9QT8KeRouZkQ0MOhWd+5lhBQIMPTCrFH1tXIljYOWA/+8/OfX33RTfhg6oaJD0EOlcKAIQpvb94TGQ7wfnBDgw6FR0MDr6R2kBIyyWsmzNyKh3gMIH/TNMlw0t8i3+fYhvW4WJg8Qh4unMFSBrNtZfA5kD1zqScteagIHQyejs1IN1WlhWK/rJ/IrI4PKB/6yif/Ap9fs6oDhIHCKnEzldiAOE9jsdCFet+2dhzrAu3zvTEodGAmN3dAHdNLEkAowKC7TGUiMtPt5AXx5TEhlgOfD/OEynYo9yfk8HlAqSG0ReAOqCBw7U7z4xXUYFRp6t6PQhm2u0sKgavbOWDXQXAP/0jlOf8yD1OxDfpgoTB4lDxNNZtwBKysn663Uf+/6R5TJ+gEFno9Mvf69YgKEHZu0pp/59ZsAaZA7B5zX6wrslrlI/z7enh8kJEXci1YVUgDg8nxlaQH8vdNXoYrppchndNztATy2tPpNyuPnVcG/+lYSABveRPuXRZTgw6Gx59j6zrMoVGKmlJxroqpGlUXBcrtH/Ga6X7rN8WypMXiBSAbpmXCndkRKgRxdW0+821NE7uxro/X1NNDmjmWYdaxVqsTTzaAvNCGvM3sZ54V79hIeYZvPU5BcYedai8zEIsw7Va2FZp2jY1qA12ByGKwz65+GlDuk+w7ejg4mD5ISoiL44opiunVBGd6VW0BOLa+i93Y2UcqiF5h5vjWiOotkWOE54JEATDjSVE9Gnwz38CQtcmxEzA6+piQPDoZHA2PVEMX1rarkRFmj96S79cFaFNegcii++1z3xbagwqRBdObKEbp9aQT9bGqSRe5oo9XArzT/RZmleWGmQAARyg4cDxOER/7/hnZ31d4R7+xMS9hVgqwhWofHqMiow8izGGT1UuIkJFlW3T6lwAPB/uyH+fS4O0tWjS+nBtGp6ZUOIZh5ppQWZ7WEJYKTC8PgBSIVHAgR4Zh9rOb80q+35cK9f5IHqf3BOQKYmCY0pNfkBBqkAZ/SXRpXFBAbaIJR2OET/MqLMoSt9in9XwvSVMSL1TKukZ5fXirqkmRadbKdFApSFitwA8us+Jni2F595M9z7F2nY6ckBjS41+XEZDgzSgUwPP19cpQXFVpNDf9hcK4rlsoj+1Yf496C7U6vopTX1NPtoGy0WsEhZ4EgJUMwQeQforwMe+35TlhkafWryA4ysLZAekCrG7aljwDhh2aho4Nwq+tLI8oiuHuVN+OydU6voP1bU0/j0FlqS1e4Qh8cEkR+AvKeuaHguuul6WkbjNV8YXrDZKzRuLmNyGA4MhHTx1THltDzThkYFRWpTtq2VJ5vomxMr6P8JGKAvjw646rrxFfT00jqaIGBZmtVhlBtEbgB5dR8/8ECj9oReCg9L347H0gKXv7+rJv/qMUUxodGlJi8uowLDa5X7pldoQdFp0r6QA46vaHS9AGbQugaad7ydlgkwdNIBBHmCyANAPYEHzjMuveGJ8PD0zaiqqrp0yOaaUyN3Benb00o9Q2NKTX6AkbUKUsnboobRgaJqs9CvlweFUwUiumZMhaUbJlTS79c30HwBzPJTnUIdDukAkvIKUHfcx63uMcEzP7O14+OPP/5KeJj6VgCa8Xtql4wQ0ACc780u7xY0flxGBUbWIUg9MzMatKDYanbovtRq+pqABbpRAPMqgDnRTisEMJANjpvMMJkg8gqQF3jGpjdZwpXmpK319PL6Ovrt+lp6blWQnlhSbel7cwKZ4aHqW5G6Pzhu9O7gOUAzSuiZZZW+oNGlJj/AqLXK7ZMqGSxOULbkOLUmq4luTraBWcCA8SKvEHkGSAMP3Gf6kVbr4uFv19XRU4tr6JbJAfq38aX0heHFVp2IvkUfY6aKPsdJi8secH3UmtbNUTya0ZdiTVbDYxwa6JV1Vd2Cxs1l3ByG1yky7fxicdAIi9T23GY6EWijExUdtPJ0p2+5g+QOkAmeWWJq/9aWBnp8UQ3dNDFAV42y77Ohj+DK6DP0HepC9CX6VMKD/lbhQa0JePrUYxkrj9XcOGFfsALQSHBG76qld7YHrQa4Q+MsgnXQxHIZFRhZoyDt/Nv7FfT+znoHKFuZ9hW2UGGwg8rqbZ2q6h48XHqIol2IAzTnWBv9cVsjPTIvSLdPqYycLOgD9AX6BC7sFx44PuCB6wAe23UAzwV+JAN1zYS9wXQVmjHQ7lq64r0iqyF8yq1zGrWe4S4jofELzNeFvjG2km6dWEWLjzU6gNme10xZFW0RYLhOC3hWCQC8SAeOlAkgQJMmCu6h25vosQViEpFiX09C+3BioK1oM9ruFx6cnB7h2RsewgsTsw7X/0EWwxIaCxwBDXTzpNIeQePHZVRgrg3rOqGBc6otYHbktdCx8jYqqYsGhgvwrBaDH0teQQI8KLbf39NCA9Nq6foJFdaxy3agTWibBCge8Nj1ToGVsgBPVL1zoR6E35nffMek9NqQhEZ1m/eFHpxbYTUEDULDVGh4eopVz/gBBrBYGldJ14+rspS8t5Hya9oVSDodKmfKru6kNdlnHFrNJYBwAwnALDzRQeP2ttKvlofoFuF8OEYcK44Zx442SIBUeNB2P/DgpEQf4yRFn8N1dMVypN6xHoJPcMpCilp8PGRMUYAG+o+V1VHQoKFu0Kj1jMllvABzw/gqumNSNb25sYkWZ3ZQXk00IG46GuiktQISSIVISgfS+H2t9PzKBrpN7BvHgmPC8eE43eCB/MKDk9ANnj6VsrbmNf6Cz6J4ipLQjN1TS+/tqLUaggaZoOHpiUODzuPQeHIZBsyNQj+cGaS5R9utgcUgr889Q3lBPSQRhZyy4Mmx4dFJArQks5OS09vo/lm1dFN4/xCOBcfkBpAKD9rcHXhwcqKvcbKqxbIuZSV8lnX71JLdbilKgjNO6F9HlYTdxm4gGooGq9Dw9BQLmljAYOBeEGf8YjGYcmAhDPQGAU9hbTQgbjpcLr4LeDRaerKThmxuoodm19KtE6ot3SJ0s5AECMfFAXJzHz/w4ORDX+JktOFxq3eiU5blOkhZCYk3sgde+naea4qS0OBu9Q9mBawGyboGDUWD0XCZorxC48VlviXSw7DtLQ5YIgoP9ub8M1SqcRc3HRHwrMs5G9YZWiaAeW19E31/ei3dPrHG0m3JNfTN5GpLJoB07tNdeHDycXj8piy4jg1PAlxH7GjvpwU4DrcRsEhwAI0NTh2NF3phVbVnaNSaRkKjpiaTyzySVkdpRzucwIRhgTDgts7S9sKzWkDcBHgWHO+k361pontTagWkQUt3hMHxA5AKD9rWE3jg5BIeXcrSzbIchXKvhnAbEIodDlpb5eo2gAYaubPOahAahgaioRwadERPocGgvLiqwaozzMDYbrGeaVfhmQgUgRiCQx0vb6d3tzbS/59ca+nbk4N0pwAH0kEkAYrlPn7gwUmGPkP/QW71Dk9ZulmWo1DGu/q9FXAbEIodPpwW0BbEMkUBmgl7bV07vsxqmFrXoAPQEegQdIwbNGpqki5z5+QaGr27VesyEhgOi9SGsHYXndGCwpVf00Hpha20K6/F0vhdjXSXAAdSIfIKkF94cFKhj3CSoc+465jqHZ6yTIVy77sOcxvs8Aezyw1u44QGemBOZVSKigUNr2k4NDw1AZqJYibjFRgLllxbG5nSi/XwFAhgDhS10e78Vlt5XZqT0UR3T6ml7whxiEwAmdyHw4M2dheeWCnLVCg7XKc3Lgpyt8EOb5hY4sltkoXG7KqLSlFoODoAHYEOkZ3jFZoHxLQX9YwXaCQwHBZVh8q64MG1nhMiLe0tCANj0NyMZvrulLoIQBIiFSCd+6ipy815cDKhb3Byoa909Y4+ZXXNskyFcu+6juI2AOeyofme3CZ5Xz1NFPra2K687FbXoKPQYeg4XtOo0Kj1THeA2ZQn9YGlIwKeTAHMPgHMHgGGSVHwTK2LAMRdSAVIl7rc4MHJg77AycThwcmm1js8ZXXHdQCO5TpxnWENzknjbgNSseN3tzvdBtCobgNoJgn9enm1w210KcoEDa9pfixmThFoDC7jBgwHZTPTvKOd9OKKJnp/R5MWFpMAT9qhZroH8DCAYrmPDh5dzcPhQT9BsVKWV9dRax0bnNy14VHvYQzKugzveXO3wQ6x49+srvLkNgBn7O56q4HSbXQpCh2EjkKHWSlKgcYxc2LQeHEZCQyHRWr8nnZ6eFYD/SA1ZGnszmYrTemkgwdaeqxFTNHrXAEywaOtecJ9gJMIfcLrHV3Kkm6uFsr82o7OdQAOd534PXYh0hQ2KMGRbgNwHpgbcK1tJDTQ5PR6un9WpXWGfDulkn67po6mZbTQ1vwOOhQ4Q7l1H1o6HDhLK7LaxIyt2epAdKSEJjJzcoHGKzBbhNaePkuvrmmhHwpY7lc0YpsZHi4VngdnhroAMriPGzw4SdBmnDS6YllNWd1xHXWGBXAcrhOPIlktim23sR/QumVSmSNNmdwG0IzcFaJxexspp/ZDOvfRn+kvf/mLJ9W3f0RHK84Kx2qmecfCxbAOGgUYCY0OGGj2oU56Iq2R7p8uQBF6YHpDlEYKePYVtDmkgweS8GzNbqWfLWiIch+/8HhNWV5dR611+HUdma4irtPjIvn13Bt4UYwdyDSFHX/u3UJtmuJuM3Z3iDKrztKf/6wHw49CAqJ3xGDOFwC5QaNzGQnMOuEyQza20iOzbTgeDOuhGXqN2h4Nj5QbQL9aHKL7UuqjUpcbPHKqDoeNwCOgUVOWqVCO5TrqdR0bnC7XcRbJPUlXwrKk2/A0hR1ixyD35TXVWrdJzWgQKafVl7t4VUH9ebGPFk/QSGC2Cq3LPksvr2yJACPh+FFYD89s1Oqdzc2UXthG6QIWKBZAEp7X1jRa8MB9dPCosy24jlos61IWn2XFch2Aw10H4HDXkeBI14lLuhJF8VoJDi+KJTgg9/GFlVFuM3xHiGrbzmsHPZ5andVJc450eIJmwbEz9OS8pggwHJSBYT3ionclPFICGBUiHUDvbmmKgkctmL2mrO66jtci2ZGuuv2sjjKbUtMUdowDuG1KuQOcSfsbesVlTNpfcpZSD3ZooQEwW/PteubR2Y0OYDgsP57VpUdnNWmFv/1OTNcd8DCI3OCZnm6GR07VTSmLz7JU13GrdSQ40nVMRbJrusL7/77DMJviaQrgXD68yAJm1K46qwCORy3jVw0dH9H0jA4tNMl7OyLQ6ICJwDHb1k8Mkn8HPPsFLJAJHhUgwDPvULOj5pGzLV7v6FIWn2XFch0JjnQdU5HsOV1162JgUs6w6DTVBQ6IxQHgQAatraEXVtVcEGikikPnrYt4HJrRO9vpJ3MaHS7jAIaB8djs5ogen+MU/xs+y+FRAXKDZ5mYrv94ThgeTb3j1XXUGRa/ruOWrniRzMFR0xXAsdJVdy4GXvJWTgAbUOsbmaY4OLdOLqcz5xKXnkxac+pMpAgesrHNkZp0wHBQnmB6UpH8dw7Si8uaaVeeHh5T6gI8mK7/cnG9NmXxWZbqOmqto17XATjcdSQ4vEh2n13ZY8zTlf9pOeobZRqODav1DQ4ABxJMQCHsVXMOtVszJy/QSGAkIE/NbYnop2Hxf+Mg4bs/n9dCazK74HEApIEH4EgNXt8QlbL4LEvnOnyGJdMVdx3dBUG32ZUEh6erntU5STl344um+gY7lOBM2N+oHcALpfOiMMfMSQeNDhgOyc/S3MVB4gAtPdqqhcfkOhDucSXvborpOlEzLAENdx1dkRxrdgVw1HRlrnP8/KIfu37jVt9cn1zWJ1KUqq25Z2JCowLzc6FfpLUahb9DHCAOz5Q93YNniah7Hp5lw2OqdXiR/P0ZNfTy6noaubOJ0gSwk9KbaaKYtb2xMUR3pVQaZ1e6i4Gx6hwLHF/Xc5S74by+4eCsz23TDtyFFop0FMI6aLjLOICZZ+tpg+TfJUQcIAnPuJ1d8EhwYqUswLNZ1D1PL6xzuI4EB67z3ZQgTTvQQrm1H9BHH33kqoNlnTTrSAvdwVZX9VPnSHBYneO9QMaFP7fCWKapD8/pD74vaJtwHVnT6KDhwOhAMSkWPElrm327DoRHUt9Y2+C4rnPvtCAtPNZKje0f0Llz53xrekaT5zonLgWynFG5Fcbj9jbQ+fPn+6xCbecihXC8oOGSAOngwYzLAY+L60hw8Dgq4Jm6r9EC5+fCgcpDZ+iDDz7okUKtZ+ne6RXaOkeCo9Y53QMnKesq3YxK1jcSnF2FLfThhx/2af3nEttteE0TD2ikVHhkzYN9viDgwYzL5DoSnAg8YXCgmQebqKH1DJ09ezZuenpptecCWYITqXM8zaxez70BpJnAkfVNe2d8G9Yb2pLdEXEbDCwGOF7QSGFbMm0BTuwL+4TTIVVOT2/x7DqAZtPpFqpv7qDOzs6460dzKy1wTAWyBCeqQPb0g/vhqTiIM4Hz9NIqOnPmTJ9XWV1nxG0wsJbbKAMfDwFGbFt1HaRKFOjyBmkscLbntlCgvp06Ojp6RcHGdrpRzIR9z6w8TcmTTj8rwekqjJ3gvLquWntgfU3VofYot9ENfE/FUxavdaTrPCJmeL9e0kwbslqN4GwRM6vdwnHa2tp6VTtyG7Xg8AI5Ghwv96y013Ccj1JMP1BL7e3tfV6tbe3O2kYZ8HhKdZ0IOGHXweWBx+c00sLDLRFwODwrTzRRS0tLQvTkwooIOG5T8gg4nq7lGMCRMyrsZPmJemptbe3zahGSaaq33EZK1jqmdAVwcDUbV7XxSKoKTnp+EzU3NydE2YEGCxzTlJyDAxZwwztMh0sk5SbHAmdLdr2W5L6ol5YlDhw1Xang4Go27qHhCcT/XNJA23JsaBYdbabGxsaE6rrxpTHBAQM2OF5+QN/lqjHAQU7cfKqOmpqaLgpF0lQvgwOZwJF1DgcHb1IMnNVAy463UOq+BmpoSKx+v6YizuDEcByAM3xrpZbivqbaUGNC6hspHTi8QFbBwTtc35tWT2uOh6i+vj6hWny42hUcjH2vgBMKhfq8KoINFwU4mzLrqLa2NqE6XlSTeHDuTS2jurq6Pq+c0vo+naokOKdLghQMJlaFgWC8U5XukVFncYyd6Sjua9qfU2cNIgazt8HxWxxzcE4V11B1dXXCdeWIBIGDjUtwDuVXUU1NTZ9W0qqGhILjdTqugpORW0NVVVUJ1ZH8ypiO43M6rgcHG+XgDNtYrqW4r6i8otoaPICTiDoHYHJwdBcAJTh45Rjvq0twtmdWUUVFRUK142TA+wVAT1eOw6/FOMGJvsn59bFFVFlZ2We1O6vaGry+cssBaUoF5/sCmn9PqaeZe6qovLw8oUpLL/N+y0EwEabDJRg4+DI2ogMHNncgR0/zhVZA6PWVIStVSNfBoPaW66huo6YpCQ6vbzg4r62sobKysoTq7Y2240hwUIqYHcfLTc5BWZcBHHzJDRzs9BvjirQ0X2jtzKy0Bg2Dp3OdeMIjaxuT28Sqb/CS3kMz66ikpCRhCgQCNONgHb2xoYaum1ASAQclCTJMNDheFiAwvBojwZFTcoCD+x0rMkq0RF8olQo9tyBkDRoGj7tOpNaJEzw8RencRp2Gq2lKgoMX9ObtDVBxcXFCtDu7xnptG8ISNX/YXEP/+E4XOChRkHEi4Hh9RUZ9Zxzg8Ck5B+fa8cVUWKwn+0Jo7aEKa7BwpmPwAI90nXjCo0Ij3QbQ6NxGnYbLNCXfJ78/tZYKCwt7XQBn7iEJTZ21TA00ZHM13T8nILKJcvFvcE4gjEXsuGRwThbAUWdWKjioc/AY4pPz9GQnWvtOlluDhMECPBg8NWX1FB4JjExPHJpIihJSaxvdbIovRIAX897fVE75+fm9qkUZFda7/hwcuQAoFgPFLxveNsX+BWcbHD+rVrhcPVYLZICDxxFfWlqkJTxRyskrpJ/NrbUGCYMFeCzXYSlLhQcDzwFyg0gC4waNmqJ0bsOLYkAj3yOXL+WtzSiivLy8XtGB7HKakm6vKmICB4ue46cWnl9VSQ+mldM900sXhKnwEB5fyLPBsX/g4/NCy/YXaCnvbeXm5dOKIyFrCTWc2RgswIPB08HDax4OUAQijeTfOTCyplGhkSnKMZOK4Tbyhbz7Umpo3/F8ysnJia8KyyhNpCi5HI2sb0zg4Ede8OuHO/MbV7S1tf1DmIwYIapogGMqkAEOr3MkOL9YWks7TpRoae8tncwpoOUCmiX4YfZDYnAXNHqGh7uPBMhNHBgOjUxPOmhkitLVNqrbyJfxHpxeSZsz8uj06dNx0aZDeTR5b40DGhUcQIOV8lVwjpU3vx6mwkMYZlamAlmmq0kHW+zfyz5Uo6c+ztp1rIjSDoZosYAGsuA5bMODQdPBgwHWASQhkpIw8X9TgcE2TNBg34BGTVF8JhVr0YGULfmUlZXVIy3YlU1Xj7JP7PtnV9CftgSNaUoHTmdn5zfCVHiLWAWyWufckFxu/bC6/KH1NSdDwnLzKDs7u1e0PqOE5mQ006IjLZZiwcNrHg4PB0hKAiIhkcLnTMAATi00SoriMykvy5z8an4pbc/IoszMTF9ate8UvbgwL+r13yuGF1nXb0z1DQcHv7nqPU3J0BbI5jrnp0uDDnDwi/348fUFGdV04uRpOnXqVI+VJbRwdz6N2lZHCw4304IjzbRQyATPc4ui4dG5D4dIgsTF/xYBBtJAI9OTGzTdWVjp2XklNGpdPu0/kkknTpzQKv1wJk3bcpqenptHXx1j/3aGaWGlu6aVWddvVHAkNNDsQ7W7wzT4CI9Lucl0lXygmeYLcBYo4Mhf8N+VFaADJ3K0duqmk0IZx0/Rmv15NHZbjfWW43wBDaTCI8GR8GAliNfWdC0YKeGJAigMEQeJKwIKFP68zmVM0Mi6xpSi+EID3G1MS7ndNblM7LuEfjqnSDhSAd07tZjumVJMXx9rr1zvZyk3/MT379dXa9PUptOhRWEafISmztFdz8FBXDuhjOafaAuDw1yHgbMkqz3yy/47M8uFlWbTloOn6MDRLDp2QpxFwl7x3yPHs2jP4VO0bv9pmr2zgJLWiTNiZwNNP9AkZgVNNE/IAY4QwHGDZ+im5gg83H04QFIRkBTJv+PzKjAcGlkIu0GjpqhYbuN18Uisi9PdxSOvGVtMTywMRMDBj/W2t7e/GqbBX1zylv7BdTVdPbW4Rg+OAZ7UQ6103Xi78egErC6FTkHn4MxCZ6HT3t3WIOqYRktzBTBQt+ARStnXbD0crgKkQmSS/IwJGOkyHBqZnvjUOxY0cJuoxZQ8LhwZj+VqP/dugXX9ZmZGXUlHR8eLYRR8Bnur0y1dTdgvBhHgROCxwTG5zq9X1luNRuPRCYAHnYLOATzoLHQa4BkehmduRhc4FjyH3eFRax4Idc8Ly5qsQZYASYg4SCZxWNyAkbMnHTRqXWNKUabl20xuA3Ck28Ra2kSCg8wBI4AhSHCQYewbm6ef9T2jioSHdHXntAClCWDmOcAxu86cY21088QK60xBw9EJgEe6jgWP6CwJDzpRBw9cxw88HKA/bWqyBlsCJCWBMEl+Dt/jwLhBw9OTDhpTioq4TbhP3NzGbfk2nqbgNro0hTFFRoFBwChscHr4CzJiI8YfAcHOH19UQ2nHWx3guLnOH7c1Wo2V4KATZMpC5+hSll94ZMHsBlDK3mb65cLw4IchiiX5WQnMM2LW5uYyupqGF8NeU1R33SbWsiZqmpLgiBl1HH6zKpyu1NmVdJ1x+8UgCnC8us7dqVVWY9FoDo90HTVlaeERwPQUHqm3NzZZgy+dw6RnBST47c6WznN07vxHdF5Irv6F/x1qP0+Fdedoyr7WqCk3h0bnNCo0aopCnwAav7UNdxu1KOZpCobgSFOenviLFSxdqUXyV8T0by6g0YCjc52xokDFmYHGotGAR549aqGspizAg859c119FDxqzRMLIBWieYda6KUVjZZzQABJ6tU1zVRYi6XU9Ct/6dRx9hytPyVOEp/QyLrGlKKk2wCanriNWhTzNCXcptXz8zcxg70WzF3n/rlVNEdAI+EBOG6u8+zyWuvMwBmCRqspC52jS1kqPK+sNsAjZILHBBCHaMpeMfWebacdaG9hu3alL69qP/OhtZK6nD3poFGLYa8pqrtuE7so9vIqjNdQlneTrvO7DXUOcGK5zrXjA1YDpeuYUpYOHnQqh+e5JWLfSs0j4TG6D8QAMoE0Zkej9QP1ulW+uqMhGxssaABMTKcxQKOmKPQdoJFuA2hMMymT28g0Jd3GBsfPusZeYrCzSP7ssEKaktFsgeMGj3Sdd3Y2Wo1DI6XrmFIWr3dM8KDDH54ddMDjFyAdRFBjq36Fr55o8IYGX9CY6ho1RUm3ATT8uo1ft8HYdv+nhtxCFMncdW6dUk6zj9nQGMGJwNNuPXKBxkl40GhTylLhseodAzw/mBGk1APu8KgARUEkJaApqG7Tru7VU7W2d9BDs4KRKbdXaPykqO66TSRNxaUo1gSWsZWuM3BBlQMcN9eZcaSVrhlbbjUO8KCxXuBB5+ng4TUPBuBbk6Kn61EAQRqApADO8dLeXUqtvK41Ag2OP17QqAWx6bpN4t1GBnOd0fsaaZYAR+s6QgBHwvPG5pB1JqBxgIenLLd6R4WHpy10uHQfDERU3aMBKJYL1Tc2axdniqdeW1PrGxpTXQPxFIU+VlOU7rpNQt1GBp7TuXJ0sYCmxZIX1/nhnCrrTEDjAA9PWbze8QqP5T4KPDx1Je9h7mMAKAIRJCA6UpKYpdSq6pqtY8bx4yTwA41a13hJUbqrxIl1Gxmi6v5WajnNFNNXG55o11Hh+fKYUutM8AIPOkkHD695IvBABoAGhafsUhwgHUjB+ibt4ky9oafmVzugQbviBY2aonhBrLtukxC3kXH3zIo9XeDYrmNKWSN2N1pnABoFeNBIwKPWO17hke4TCx7oodlBmra/C54IQApEy443USikX/KsN7T6eG3EZboLjamuUVOUriCWbmNBkxC3kZGUddVv1tUaXYfD88sVtdYZgEYBHjQS8KDRKjzoHFPaglR4vLjP7ROr6PV19TRbQANxiCRIe3IbtMud9ZbyAnUOaNAunBzdgQZ9aUOjT1G6gli6jXWV2NOq6XGMzwzLXzjxYHNMeL49DW8H2g2KBzxudY8JIOh702to9I5QBCAO0tHCOu2qVb2l4oqgw2U4NGhvLGjQZyZovKSoiNt4Wvcm3jEo67JvppQG3VLW1EMt9PnhxdYZgAbZKct+nUaFR9Y7EE9b6EB0pA4eV/dhAHGIHk0L0oTdToAyi2u1CzP1liqrqunl1bX0zJIg3TOtkm5Oth8z8QtNrLrGlKIst8GrvXG7J+U3RKHslrIGbayz7BKNATxonBs83HnQYeg4Do/JfUwAcQdSIXpmcS2NFwDNEuBgKTXdqlW9pYrKKlF7NUSUsj9k6feiL19YWUNPLaymO6eKdoxz3k6IBU10XaNPUZe+jTQV71sLPuOzwwqmJB9s0sLzqOgAkN9TeOA+XuDRAWSCSIL0tABob05QuzhTb6mgrNIBzNR0W1OYJqfXW5q0r57e2RakIZuC9Oq6IP1mVQ29KPTM0ip6cmElDUyroIeF7ppWJsqCMrplUhndNKmU7phq6/YppfSd1DL6UVo5Pb+ykl5eW0kvra7YIAC+NDyEFyiE3d061U5ZKjy3pZRb5AMenAl+4JGpi8Pj1X04QK4QhTV0Q6W1ZkyidDw/YIRGAiOhgSYKJUPhNzGdr/HqX+XVvSeFNxdeWVdZ/Vha4PLw6F3giEpZdr1zxYgiyy79wAMrVuGRAOngMQHEU5gKEQcJuielUrvWTm9p18lyV5eJBzTq6y7QoHWVH3x5ZNFt4VHrI/Fmzitvi1mLhGfozpCVW5FjuwMP3EcHj5v7qACZINKBdLqglEpLE6Pp+6pcU5MExi80EXA00CBF/dPQ7OfDo9W3AlP0kXsbLXieWxW0Knk/8PCpuoTH5D4mgFQHMkHEUxqUsqNUu+ZOvJVbWKwFxgQNB8YvNBKcNzZW0RdHFKaGh6lvxuXvFRycIcC5M7XcquK9wMOn6oBHuo8XeHQAmVxIBYnDBOUV6Nfeiac2HC3zBIzqMt2F5u1tNfQvIwtyL9zU22uIA7x2Ykn+TZPLrGsGfuCB+6jweHUfFSCvEHFN2lqkXX8nXsrMzncA4xUaANNdaG6cWFzQ96GRgXdyBuda1wxiwcOn6hIe1X04PG4A8RTmBhFPaVyA52BmvnYdnnhoUUalL2BUaAAMh8YCJhY0PX0/KuGBC0yu8NjvZkl4pPuY4DG5jwqQzoUkRDqQVKBun1hKmaf06/H0RNN3FdPrG4J6YCADNNxl/EBzXXJR8OKDRgZuoMWAB+6jwuPmPjqAdA4kAdJBxEHiMEl9M7mETgh4dOvy+NVpobEb861jwzHiWL/6fhndNS1AD8yppJ8uqrQu6L2yrsZa9Eh1Gb/Q4FrNLZNLOhJ+8zLugQYk5bZyeHD5W4XHre5R4dEBFMuFdCDpgOLaeihbu06PV2E9nyEr7cWNcGw4RhwvhGNHG9AWtAvtQzvRXrT7ypHFdO2EErpV1Iq4GnxnSil9a2opfXd6uVAZfQdKFZBPKaFrk4vp6jFFdMXIArpiREH7Bb+dELcIwyMfO5XwSPdR4fHqPipAOheSEOlA4jCZNGRFrrX8im7VK5OwZEvK5tN0/bgiBzA4Th0wKjRoM9qOPkBfoE/QN/KGJfoMfcfvP4XvdmddvOnJFGhQGB40VIVH5z5eAJIQSYAgCZAOIg6SCSad3hIAbTqQRceP61fDwr+nH8mktO1Z9N0pBVp36T4w0dCg/3ASRqDBA1kXzezJb6BhooESHre6xw2eaIBsiCRAKkQ6kFSYVEmwdH+7V4Dx2Kw8Grwix/rvT4SuE+6iwgJJWDgwOG4TMDpodC7jgAZvX35ioeEhGqrC49d9VAfqgqjLhdxA4jBxcbCkdJ+D+Lbk9uX+nLB0AYPjVYHx6jIcmrDLXKCHsS5k4AFp0XB0gBd4vAAkIeIuxCHSgcTFQVCl+7zclgkUCYsEBsfpxWHcgPmUhAaPfSbqIfM+F9Z0PSfgx310AEmI5MBwiHQgqTBBHAKT1O9AKigqLBIYCXksYDxB84muZ/wEcnTYfboDkA4iN5CcMElxCNzk/B7fJgdFhUUCI4+3W8DAZd7MeSXca/1hhTVlz8nSwWMCSEKEQeAu5AYRB0mKD74X8e/y7cp9SVjksaiw+AHG4TKfuKl2PANnlMF99ADZEMkB4RDpQOIwSfHB9yL1+3zbOlgkMBJ2CYsOmCiXwUPl/S7jMezaJ80LQF4g0oEkxQfdj/g25LZVUFRYJDDyuF2BkWmpv5bpRrgAJCFC53MXUiHiIJlg6o74dqBoUNxhkcCgPVHAoM39aSkOYQBIQiQHgkOkB6kLJogD1R3xbfF9yP1yWCQwEnoJSxQwaGt/xDkUgLxApAMpGiZVZii4+PYgHSgqLBIYefyiPXYN05+SEhRJp58VAO3lLqRCxEEywcSlgsCl+zzEt6mCYoTFchdx7P3AXMBALYABwJ1hxYl0IEEcJikOgEm67/Htyn1JUIyw9NcvfSxw9lpOhOLSvhOvgsRh4uIAuEn3Xb7tCCgC4ggsOKZ+Z7mIAg804Qy36yIrrUEcKIgPvBep349AYj0Pk5tsgdJf5H7CAmkCNwdxV9m61RGGykp1olANw2WDoAh/t+FYK5QcTpF3W5D0O0p/9Ed/9Ed/9Ed/9MdFHgMG/Bde7wDQXl8+UgAAAABJRU5ErkJggg==;" parent="1" vertex="1">
          <mxGeometry x="493.5" y="336.5" width="60" height="60" as="geometry" />
        </mxCell>
        <UserObject label="&lt;div style=&quot;font-size: 1px&quot;&gt;&lt;font style=&quot;font-size:14.11px;font-family:Segoe UI;color:#000000;direction:ltr;letter-spacing:0px;line-height:120%;opacity:1&quot;&gt;Web Apps&lt;br&gt;&lt;/font&gt;&lt;/div&gt;" tags="Tło" id="bNFybD1ttjROPPk29QS4-353">
          <mxCell style="verticalAlign=middle;align=center;overflow=width;vsdxID=1082;fillColor=none;gradientColor=none;shape=stencil(nZBLDoAgDERP0z3SIyjew0SURgSD+Lu9kMZoXLhwN9O+tukAlrNpJg1SzDH4QW/URgNYgZTkjA4UkwJUgGXng+6DX1zLfmoymdXo17xh5zmRJ6Q42BWCfc2oJfdAr+Yv+AP9Cb7OJ3H/2JG1HNGz/84klThPVCc=);strokeColor=none;points=[];labelBackgroundColor=none;rounded=0;html=1;whiteSpace=wrap;" parent="1" vertex="1">
            <mxGeometry x="460" y="399.25" width="127" height="28" as="geometry" />
          </mxCell>
        </UserObject>
      </root>
    </mxGraphModel>
  </diagram>
</mxfile>
